{"glyphs":{"0":{"ha":1000,"x_min":21,"x_max":979,"o":"m 967 307 q 887 130 951 203 q 722 19 822 57 q 500 -18 622 -18 q 278 20 378 -18 q 113 133 178 58 q 33 318 49 208 q 24 408 28 357 q 21 528 21 460 q 25 648 21 597 q 33 738 29 699 q 113 933 49 854 q 278 1052 178 1013 q 500 1092 379 1092 q 722 1052 622 1092 q 887 935 822 1013 q 967 743 951 858 q 975 653 971 704 q 979 532 979 601 q 976 399 979 453 q 967 307 972 346 m 532 379 l 532 689 q 525 747 532 731 q 500 763 518 763 q 476 747 482 763 q 469 689 469 731 l 469 379 q 476 322 469 338 q 500 306 482 306 q 525 322 518 306 q 532 379 532 338 z "},"1":{"ha":1000,"x_min":69,"x_max":932,"o":"m 768 1069 l 768 394 l 932 425 l 932 0 l 94 0 l 69 388 l 268 388 l 268 624 l 160 624 l 125 981 l 368 1069 l 768 1069 z "},"2":{"ha":1000,"x_min":57,"x_max":944,"o":"m 121 585 l 67 986 q 302 1065 190 1039 q 507 1092 414 1092 q 815 1004 706 1092 q 924 739 924 917 q 905 608 924 661 q 853 519 886 556 q 773 452 819 482 q 669 390 726 422 l 669 365 l 944 425 l 944 0 l 82 0 l 57 431 q 324 567 233 517 q 413 649 414 617 q 383 669 413 669 q 322 656 363 669 q 228 624 281 643 q 121 585 176 604 z "},"3":{"ha":1000,"x_min":50,"x_max":963,"o":"m 767 558 q 909 465 856 528 q 963 294 963 403 q 919 140 963 201 q 798 44 875 79 q 621 -7 721 8 q 410 -22 521 -22 q 231 -16 322 -22 q 50 0 140 -10 l 117 435 q 261 378 194 400 q 369 356 328 356 q 421 389 421 356 q 371 437 421 417 q 210 461 321 457 l 210 594 q 361 638 321 617 q 401 682 401 660 q 391 701 401 694 q 365 707 381 707 q 262 685 329 707 q 117 629 194 663 l 69 988 q 322 1069 201 1047 q 547 1092 443 1092 q 742 1056 654 1092 q 881 953 829 1021 q 932 785 932 885 q 887 642 932 696 q 767 558 842 588 z "},"4":{"ha":1000,"x_min":18,"x_max":975,"o":"m 888 517 l 975 538 l 975 88 l 888 88 l 888 0 l 419 0 l 419 88 l 39 88 l 18 494 l 425 1069 l 888 1069 l 888 517 m 432 500 l 432 710 l 283 499 l 432 500 z "},"5":{"ha":1000,"x_min":50,"x_max":950,"o":"m 561 685 l 560 644 q 768 594 681 631 q 903 490 856 558 q 950 314 950 422 q 911 144 950 210 q 801 41 872 78 q 635 -10 731 4 q 426 -25 539 -25 q 242 -17 338 -25 q 50 0 146 -10 l 97 417 q 224 388 157 403 q 349 364 290 374 q 445 357 408 354 q 482 382 482 360 q 383 437 482 414 q 97 468 285 460 l 97 1069 l 913 1069 l 913 642 l 561 685 z "},"6":{"ha":1000,"x_min":31,"x_max":963,"o":"m 651 660 q 831 617 763 660 q 931 508 899 575 q 963 365 963 440 q 853 80 963 181 q 540 -21 743 -21 q 315 7 407 -21 q 167 85 224 35 q 80 201 110 135 q 40 343 50 267 q 32 500 31 419 q 67 781 36 667 q 164 963 99 894 q 334 1061 229 1031 q 590 1092 439 1092 q 737 1086 660 1092 q 903 1072 814 1081 l 875 685 q 771 702 819 697 q 681 707 722 707 q 538 685 586 707 q 471 632 490 664 q 568 653 524 647 q 651 660 613 660 m 499 340 q 532 355 521 340 q 543 390 543 369 q 524 438 543 414 q 454 467 506 461 l 454 451 q 453 403 454 429 q 463 359 453 378 q 499 340 472 340 z "},"7":{"ha":1000,"x_min":44,"x_max":957,"o":"m 44 642 l 44 1069 l 957 1069 l 957 707 q 839 488 888 606 q 763 245 790 369 q 728 0 735 121 l 190 0 q 228 240 196 117 q 312 481 260 363 q 428 701 364 600 l 44 642 z "},"8":{"ha":1000,"x_min":13,"x_max":988,"o":"m 781 563 q 879 513 832 544 q 957 424 926 482 q 988 269 988 367 q 872 56 988 133 q 496 -22 757 -22 q 222 15 329 -22 q 64 119 115 53 q 13 274 13 186 q 43 417 13 364 q 123 499 74 471 q 228 542 172 528 q 144 586 186 557 q 73 664 101 615 q 44 788 44 713 q 87 940 44 871 q 230 1050 129 1008 q 506 1092 331 1092 q 719 1067 633 1092 q 856 1001 806 1043 q 927 906 906 960 q 949 790 949 851 q 926 681 949 725 q 865 608 903 636 q 781 563 826 581 m 503 794 q 471 778 479 794 q 463 746 463 761 q 478 698 463 719 q 521 657 493 676 q 538 699 532 678 q 543 735 543 719 q 536 776 543 758 q 503 794 529 794 m 490 318 q 528 334 518 318 q 539 367 539 350 q 527 406 539 385 q 482 450 515 428 q 453 413 463 432 q 444 376 444 393 q 453 337 444 356 q 490 318 463 318 z "},"9":{"ha":1000,"x_min":36,"x_max":968,"o":"m 458 1092 q 684 1064 593 1092 q 832 986 775 1036 q 919 871 889 936 q 958 730 949 806 q 967 574 968 654 q 931 293 963 407 q 835 111 900 179 q 665 13 769 43 q 408 -18 560 -18 q 263 -13 340 -18 q 96 0 185 -8 l 124 388 q 228 370 179 375 q 319 365 276 365 q 461 387 414 365 q 528 443 508 408 q 432 421 476 428 q 347 414 388 414 q 169 456 238 414 q 68 566 100 499 q 36 708 36 633 q 146 992 36 893 q 458 1092 256 1092 m 457 683 q 475 637 457 660 q 544 607 493 614 l 544 622 q 546 670 546 644 q 537 715 546 696 q 500 733 528 733 q 467 719 478 733 q 457 683 457 704 z "},"A":{"ha":1122,"x_min":0,"x_max":1125,"o":"m 1125 0 l 675 0 l 661 128 l 464 128 l 450 0 l 0 0 l 275 1069 l 850 1069 l 1125 0 m 525 674 l 510 540 l 615 540 l 600 674 l 525 674 z "},"Á":{"ha":1122,"x_min":0,"x_max":1125,"o":"m 1125 0 l 675 0 l 661 128 l 464 128 l 450 0 l 0 0 l 275 1069 l 850 1069 l 1125 0 m 525 674 l 510 540 l 615 540 l 600 674 l 525 674 m 926 1378 l 735 1135 l 389 1135 l 500 1378 l 926 1378 z "},"Â":{"ha":1122,"x_min":0,"x_max":1125,"o":"m 1125 0 l 675 0 l 661 128 l 464 128 l 450 0 l 0 0 l 275 1069 l 850 1069 l 1125 0 m 525 674 l 510 540 l 615 540 l 600 674 l 525 674 m 754 1378 l 933 1135 l 601 1135 l 561 1229 l 519 1135 l 188 1135 l 367 1378 l 754 1378 z "},"Ä":{"ha":1122,"x_min":0,"x_max":1125,"o":"m 1125 0 l 675 0 l 661 128 l 464 128 l 450 0 l 0 0 l 275 1069 l 850 1069 l 1125 0 m 525 674 l 510 540 l 615 540 l 600 674 l 525 674 m 256 1135 l 256 1378 l 536 1378 l 536 1135 l 256 1135 m 586 1135 l 586 1378 l 865 1378 l 865 1135 l 586 1135 z "},"À":{"ha":1122,"x_min":0,"x_max":1125,"o":"m 1125 0 l 675 0 l 661 128 l 464 128 l 450 0 l 0 0 l 275 1069 l 850 1069 l 1125 0 m 525 674 l 510 540 l 615 540 l 600 674 l 525 674 m 732 1135 l 385 1135 l 194 1378 l 619 1378 l 732 1135 z "},"Å":{"ha":1122,"x_min":0,"x_max":1125,"o":"m 1125 0 l 675 0 l 661 128 l 464 128 l 450 0 l 0 0 l 275 1069 l 850 1069 l 1125 0 m 525 674 l 510 540 l 615 540 l 600 674 l 525 674 m 861 1285 l 861 1250 q 835 1192 861 1221 q 742 1145 808 1164 q 556 1126 676 1126 q 372 1145 435 1126 q 285 1192 308 1164 q 261 1250 261 1221 l 261 1285 q 285 1343 261 1314 q 372 1391 308 1372 q 556 1410 435 1410 q 742 1391 676 1410 q 835 1343 808 1372 q 861 1285 861 1314 m 624 1264 l 624 1272 q 561 1299 624 1299 q 499 1272 499 1299 l 499 1264 q 561 1236 499 1236 q 608 1243 592 1235 q 624 1264 624 1251 z "},"Ã":{"ha":1122,"x_min":0,"x_max":1125,"o":"m 1125 0 l 675 0 l 661 128 l 464 128 l 450 0 l 0 0 l 275 1069 l 850 1069 l 1125 0 m 525 674 l 510 540 l 615 540 l 600 674 l 525 674 m 668 1119 q 600 1130 626 1119 q 552 1153 574 1140 q 505 1176 531 1167 q 439 1186 479 1186 q 372 1169 400 1186 q 317 1133 344 1153 l 243 1319 q 370 1389 319 1372 q 463 1406 421 1406 q 527 1396 503 1406 q 572 1373 551 1386 q 617 1349 592 1360 q 682 1339 642 1339 q 742 1355 718 1339 q 792 1389 765 1371 l 879 1199 q 765 1136 818 1153 q 668 1119 713 1119 z "},"Æ":{"ha":1456,"x_min":-3,"x_max":1443,"o":"m 1067 419 l 1067 363 l 1443 363 l 1443 0 l 642 0 l 642 128 l 485 128 l 460 0 l -3 0 l 321 1069 l 1422 1069 l 1422 757 l 1067 757 l 1067 700 l 1392 700 l 1392 419 l 1067 419 m 642 686 l 596 686 l 565 528 l 642 528 l 642 686 z "},"B":{"ha":1046,"x_min":33,"x_max":1028,"o":"m 922 556 q 999 456 971 518 q 1028 303 1028 393 q 982 121 1028 188 q 861 27 936 54 q 700 0 786 0 l 33 0 l 33 1069 l 638 1069 q 808 1038 728 1069 q 940 940 889 1007 q 990 769 990 874 q 973 640 990 692 q 922 556 956 588 m 561 718 l 458 718 l 458 643 l 567 643 q 591 650 578 643 q 604 679 604 657 q 588 710 604 703 q 561 718 572 718 m 458 353 l 603 353 q 627 360 614 353 q 640 389 640 367 q 624 420 640 413 q 597 428 608 428 l 458 428 l 458 353 z "},"C":{"ha":1072,"x_min":25,"x_max":1047,"o":"m 593 519 l 1047 493 l 1047 301 q 912 67 1047 151 q 535 -18 776 -18 q 286 19 394 -18 q 113 128 178 57 q 35 301 47 200 q 28 401 31 339 q 25 536 25 463 q 28 671 25 610 q 35 769 31 732 q 113 944 47 872 q 286 1053 178 1015 q 535 1092 394 1092 q 808 1053 693 1092 q 985 942 922 1014 q 1047 769 1047 871 l 1047 643 l 593 594 l 593 707 q 556 744 593 744 q 518 707 518 744 l 518 369 q 556 332 518 332 q 593 369 593 332 l 593 519 z "},"Ç":{"ha":1072,"x_min":25,"x_max":1047,"o":"m 593 519 l 1047 493 l 1047 301 q 954 98 1047 178 q 690 -7 861 18 l 683 -19 q 798 -67 769 -37 q 826 -150 826 -97 q 777 -226 826 -196 q 646 -269 728 -256 q 463 -276 564 -282 q 257 -249 361 -271 l 272 -96 q 462 -118 397 -114 q 526 -106 526 -122 q 479 -81 526 -87 q 308 -69 432 -75 l 356 0 q 134 108 219 31 q 35 301 49 185 q 28 401 31 339 q 25 536 25 463 q 28 671 25 610 q 35 769 31 732 q 113 944 47 872 q 286 1053 178 1015 q 535 1092 394 1092 q 808 1053 693 1092 q 985 942 922 1014 q 1047 769 1047 871 l 1047 643 l 593 594 l 593 707 q 556 744 593 744 q 518 707 518 744 l 518 369 q 556 332 518 332 q 593 369 593 332 l 593 519 z "},"D":{"ha":1050,"x_min":33,"x_max":1029,"o":"m 33 1069 l 458 1069 q 726 1042 621 1069 q 894 965 832 1015 q 985 844 956 915 q 1022 685 1014 774 q 1028 496 1029 597 q 1021 344 1026 418 q 990 208 1015 271 q 904 99 964 146 q 736 26 844 51 q 456 0 628 0 l 33 0 l 33 1069 m 558 383 l 558 683 q 553 705 558 689 q 521 721 549 721 q 488 705 493 721 q 483 683 483 689 l 483 383 q 488 363 483 379 q 521 346 493 346 q 553 363 549 346 q 558 383 558 379 z "},"Ð":{"ha":1107,"x_min":6,"x_max":1083,"o":"m 88 1067 l 513 1067 q 781 1040 675 1067 q 948 963 886 1013 q 1039 842 1010 913 q 1076 685 1068 772 q 1082 496 1083 597 q 1075 344 1081 418 q 1044 208 1069 271 q 958 99 1018 146 q 789 26 897 53 q 508 0 681 0 l 88 0 l 88 475 l 6 475 l 6 600 l 88 600 l 88 1067 m 613 383 l 613 683 q 608 705 613 689 q 575 721 603 721 q 542 705 547 721 q 538 683 538 689 l 538 600 l 588 600 l 588 475 l 538 475 l 538 383 q 542 363 538 379 q 575 346 547 346 q 608 363 603 346 q 613 383 613 379 z "},"E":{"ha":915,"x_min":33,"x_max":896,"o":"m 471 419 l 471 363 l 896 363 l 896 0 l 33 0 l 33 1069 l 871 1069 l 871 757 l 471 757 l 471 700 l 833 700 l 833 419 l 471 419 z "},"É":{"ha":915,"x_min":33,"x_max":896,"o":"m 471 419 l 471 363 l 896 363 l 896 0 l 33 0 l 33 1069 l 871 1069 l 871 757 l 471 757 l 471 700 l 833 700 l 833 419 l 471 419 m 824 1378 l 632 1135 l 286 1135 l 397 1378 l 824 1378 z "},"Ê":{"ha":915,"x_min":33,"x_max":896,"o":"m 471 419 l 471 363 l 896 363 l 896 0 l 33 0 l 33 1069 l 871 1069 l 871 757 l 471 757 l 471 700 l 833 700 l 833 419 l 471 419 m 651 1378 l 831 1135 l 499 1135 l 458 1229 l 417 1135 l 85 1135 l 264 1378 l 651 1378 z "},"Ë":{"ha":915,"x_min":33,"x_max":896,"o":"m 471 419 l 471 363 l 896 363 l 896 0 l 33 0 l 33 1069 l 871 1069 l 871 757 l 471 757 l 471 700 l 833 700 l 833 419 l 471 419 m 153 1135 l 153 1378 l 433 1378 l 433 1135 l 153 1135 m 483 1135 l 483 1378 l 763 1378 l 763 1135 l 483 1135 z "},"È":{"ha":915,"x_min":33,"x_max":896,"o":"m 471 419 l 471 363 l 896 363 l 896 0 l 33 0 l 33 1069 l 871 1069 l 871 757 l 471 757 l 471 700 l 833 700 l 833 419 l 471 419 m 629 1135 l 282 1135 l 92 1378 l 517 1378 l 629 1135 z "},"F":{"ha":907,"x_min":33,"x_max":883,"o":"m 883 1069 l 883 729 l 471 729 l 471 672 l 871 672 l 871 369 l 471 369 l 471 0 l 33 0 l 33 1069 l 883 1069 z "},"G":{"ha":1075,"x_min":25,"x_max":1050,"o":"m 1050 775 l 1050 733 l 613 683 l 613 708 q 563 758 613 758 q 513 708 513 758 l 513 367 q 563 317 513 317 q 613 367 613 317 l 613 410 l 563 410 l 563 646 l 1050 646 l 1050 303 q 918 64 1050 150 q 550 -22 786 -22 q 197 63 332 -22 q 38 300 61 149 q 28 401 32 339 q 25 540 25 464 q 28 673 25 613 q 38 769 32 733 q 197 1007 61 922 q 550 1092 333 1092 q 913 1008 781 1092 q 1050 775 1044 924 z "},"H":{"ha":1081,"x_min":33,"x_max":1046,"o":"m 596 769 l 596 1069 l 1046 1069 l 1046 0 l 596 0 l 596 344 l 483 344 l 483 0 l 33 0 l 33 1069 l 483 1069 l 483 769 l 596 769 z "},"I":{"ha":506,"x_min":33,"x_max":471,"o":"m 471 -1 l 33 0 l 33 1069 l 471 1069 l 471 -1 z "},"Í":{"ha":506,"x_min":33,"x_max":618,"o":"m 471 -1 l 33 0 l 33 1069 l 471 1069 l 471 -1 m 618 1378 l 426 1135 l 81 1135 l 192 1378 l 618 1378 z "},"Î":{"ha":506,"x_min":-121,"x_max":625,"o":"m 471 -1 l 33 0 l 33 1069 l 471 1069 l 471 -1 m 446 1378 l 625 1135 l 293 1135 l 253 1229 l 211 1135 l -121 1135 l 58 1378 l 446 1378 z "},"Ï":{"ha":506,"x_min":-53,"x_max":557,"o":"m 471 -1 l 33 0 l 33 1069 l 471 1069 l 471 -1 m -53 1135 l -53 1378 l 228 1378 l 228 1135 l -53 1135 m 278 1135 l 278 1378 l 557 1378 l 557 1135 l 278 1135 z "},"Ì":{"ha":506,"x_min":-114,"x_max":471,"o":"m 471 -1 l 33 0 l 33 1069 l 471 1069 l 471 -1 m 424 1135 l 76 1135 l -114 1378 l 311 1378 l 424 1135 z "},"J":{"ha":736,"x_min":19,"x_max":706,"o":"m 19 -11 l 31 364 q 156 365 106 363 q 231 394 206 368 q 256 490 256 421 l 256 1069 l 706 1069 l 706 399 q 672 197 706 276 q 576 73 638 118 q 428 8 514 28 q 240 -13 343 -11 q 19 -11 136 -15 z "},"K":{"ha":1078,"x_min":33,"x_max":1058,"o":"m 458 0 l 33 1 l 33 1069 l 471 1069 l 465 829 l 453 675 l 465 675 l 583 1069 l 1033 1069 l 804 581 l 1058 0 l 571 0 l 465 394 l 453 394 l 458 0 z "},"L":{"ha":921,"x_min":33,"x_max":896,"o":"m 471 1069 l 471 425 l 896 425 l 896 0 l 33 0 l 33 1069 l 471 1069 z "},"M":{"ha":1313,"x_min":32,"x_max":1282,"o":"m 444 0 l 32 0 l 57 1069 l 594 1069 l 653 710 l 665 710 l 724 1069 l 1257 1069 l 1282 0 l 869 0 l 869 556 l 857 556 l 769 0 l 544 0 l 457 569 l 444 569 l 444 0 z "},"N":{"ha":1063,"x_min":32,"x_max":1032,"o":"m 444 0 l 32 0 l 32 1069 l 519 1069 l 613 681 l 625 681 l 619 1069 l 1032 1069 l 1032 0 l 582 0 l 450 500 l 438 500 l 444 0 z "},"Ñ":{"ha":1063,"x_min":32,"x_max":1032,"o":"m 444 0 l 32 0 l 32 1069 l 519 1069 l 613 681 l 625 681 l 619 1069 l 1032 1069 l 1032 0 l 582 0 l 450 500 l 438 500 l 444 0 m 639 1119 q 571 1130 597 1119 q 523 1153 544 1140 q 476 1176 501 1167 q 410 1186 450 1186 q 343 1169 371 1186 q 288 1133 315 1153 l 214 1319 q 341 1389 290 1372 q 433 1406 392 1406 q 498 1396 474 1406 q 542 1373 522 1386 q 588 1349 563 1360 q 653 1339 613 1339 q 713 1355 689 1339 q 763 1389 736 1371 l 850 1199 q 736 1136 789 1153 q 639 1119 683 1119 z "},"O":{"ha":1075,"x_min":25,"x_max":1050,"o":"m 1038 289 q 883 60 1015 143 q 538 -22 751 -22 q 192 60 324 -22 q 38 286 61 142 q 28 391 32 325 q 25 533 25 457 q 28 670 25 607 q 38 769 32 733 q 193 1007 61 922 q 538 1092 325 1092 q 883 1008 751 1092 q 1038 775 1015 924 q 1047 676 1043 739 q 1050 538 1050 613 q 1047 393 1050 458 q 1038 289 1043 328 m 575 353 l 575 717 q 538 754 575 754 q 500 717 500 754 l 500 353 q 538 315 500 315 q 575 353 575 315 z "},"Ó":{"ha":1075,"x_min":25,"x_max":1050,"o":"m 1038 289 q 883 60 1015 143 q 538 -22 751 -22 q 192 60 324 -22 q 38 286 61 142 q 28 391 32 325 q 25 533 25 457 q 28 670 25 607 q 38 769 32 733 q 193 1007 61 922 q 538 1092 325 1092 q 883 1008 751 1092 q 1038 775 1015 924 q 1047 676 1043 739 q 1050 538 1050 613 q 1047 393 1050 458 q 1038 289 1043 328 m 575 353 l 575 717 q 538 754 575 754 q 500 717 500 754 l 500 353 q 538 315 500 315 q 575 353 575 315 m 903 1378 l 711 1135 l 365 1135 l 476 1378 l 903 1378 z "},"Ô":{"ha":1075,"x_min":25,"x_max":1050,"o":"m 1038 289 q 883 60 1015 143 q 538 -22 751 -22 q 192 60 324 -22 q 38 286 61 142 q 28 391 32 325 q 25 533 25 457 q 28 670 25 607 q 38 769 32 733 q 193 1007 61 922 q 538 1092 325 1092 q 883 1008 751 1092 q 1038 775 1015 924 q 1047 676 1043 739 q 1050 538 1050 613 q 1047 393 1050 458 q 1038 289 1043 328 m 575 353 l 575 717 q 538 754 575 754 q 500 717 500 754 l 500 353 q 538 315 500 315 q 575 353 575 315 m 731 1378 l 910 1135 l 578 1135 l 538 1229 l 496 1135 l 164 1135 l 343 1378 l 731 1378 z "},"Ö":{"ha":1075,"x_min":25,"x_max":1050,"o":"m 1038 289 q 883 60 1015 143 q 538 -22 751 -22 q 192 60 324 -22 q 38 286 61 142 q 28 391 32 325 q 25 533 25 457 q 28 670 25 607 q 38 769 32 733 q 193 1007 61 922 q 538 1092 325 1092 q 883 1008 751 1092 q 1038 775 1015 924 q 1047 676 1043 739 q 1050 538 1050 613 q 1047 393 1050 458 q 1038 289 1043 328 m 575 353 l 575 717 q 538 754 575 754 q 500 717 500 754 l 500 353 q 538 315 500 315 q 575 353 575 315 m 232 1135 l 232 1378 l 513 1378 l 513 1135 l 232 1135 m 563 1135 l 563 1378 l 842 1378 l 842 1135 l 563 1135 z "},"Ò":{"ha":1075,"x_min":25,"x_max":1050,"o":"m 1038 289 q 883 60 1015 143 q 538 -22 751 -22 q 192 60 324 -22 q 38 286 61 142 q 28 391 32 325 q 25 533 25 457 q 28 670 25 607 q 38 769 32 733 q 193 1007 61 922 q 538 1092 325 1092 q 883 1008 751 1092 q 1038 775 1015 924 q 1047 676 1043 739 q 1050 538 1050 613 q 1047 393 1050 458 q 1038 289 1043 328 m 575 353 l 575 717 q 538 754 575 754 q 500 717 500 754 l 500 353 q 538 315 500 315 q 575 353 575 315 m 708 1135 l 361 1135 l 171 1378 l 596 1378 l 708 1135 z "},"Ø":{"ha":1088,"x_min":25,"x_max":1050,"o":"m 907 1140 l 1007 1067 l 935 969 q 1003 882 976 931 q 1038 775 1029 833 q 1047 676 1043 739 q 1050 538 1050 613 q 1047 393 1050 458 q 1038 289 1043 328 q 883 60 1015 143 q 538 -22 751 -22 q 240 33 363 -22 l 169 -61 l 68 13 l 135 103 q 38 286 54 176 q 28 391 32 325 q 25 533 25 457 q 28 670 25 607 q 38 769 32 733 q 193 1007 61 922 q 538 1092 325 1092 q 697 1078 624 1092 q 829 1036 769 1064 l 907 1140 m 500 594 l 575 694 l 575 717 q 538 754 575 754 q 500 717 500 754 l 500 594 m 500 353 q 538 315 500 315 q 575 353 575 315 l 575 485 l 500 383 l 500 353 z "},"Õ":{"ha":1075,"x_min":25,"x_max":1050,"o":"m 1038 289 q 883 60 1015 143 q 538 -22 751 -22 q 192 60 324 -22 q 38 286 61 142 q 28 391 32 325 q 25 533 25 457 q 28 670 25 607 q 38 769 32 733 q 193 1007 61 922 q 538 1092 325 1092 q 883 1008 751 1092 q 1038 775 1015 924 q 1047 676 1043 739 q 1050 538 1050 613 q 1047 393 1050 458 q 1038 289 1043 328 m 575 353 l 575 717 q 538 754 575 754 q 500 717 500 754 l 500 353 q 538 315 500 315 q 575 353 575 315 m 644 1119 q 576 1130 603 1119 q 528 1153 550 1140 q 481 1176 507 1167 q 415 1186 456 1186 q 349 1169 376 1186 q 293 1133 321 1153 l 219 1319 q 347 1389 296 1372 q 439 1406 397 1406 q 503 1396 479 1406 q 548 1373 528 1386 q 593 1349 568 1360 q 658 1339 618 1339 q 718 1355 694 1339 q 768 1389 742 1371 l 856 1199 q 742 1136 794 1153 q 644 1119 689 1119 z "},"Œ":{"ha":1363,"x_min":25,"x_max":1350,"o":"m 974 419 l 974 363 l 1350 363 l 1350 0 l 549 0 q 194 70 326 0 q 38 286 61 140 q 28 391 32 325 q 25 533 25 457 q 28 677 25 611 q 38 782 32 743 q 194 1001 61 933 q 549 1069 328 1069 l 1331 1069 l 1331 757 l 974 757 l 974 700 l 1299 700 l 1299 419 l 974 419 m 482 707 l 482 399 q 500 349 482 363 q 549 336 518 336 l 549 769 q 500 756 518 769 q 482 707 482 743 z "},"P":{"ha":1028,"x_min":33,"x_max":1008,"o":"m 471 0 l 33 0 l 33 1069 l 682 1069 q 845 1035 771 1069 q 964 917 919 1001 q 1008 685 1008 833 q 963 453 1008 539 q 842 331 917 368 q 682 294 768 294 l 471 294 l 471 0 m 579 718 l 446 718 l 446 643 l 583 643 q 608 650 594 643 q 621 679 621 657 q 606 710 621 703 q 579 718 590 718 z "},"Þ":{"ha":1032,"x_min":32,"x_max":1019,"o":"m 469 942 l 692 942 q 855 908 781 942 q 974 790 929 874 q 1019 560 1019 707 q 974 328 1019 414 q 853 206 928 243 q 692 169 778 169 l 469 169 l 469 0 l 32 0 l 32 1069 l 469 1069 l 469 942 m 469 518 l 594 518 q 619 525 606 518 q 632 554 632 532 q 616 585 632 578 q 589 593 600 593 l 469 593 l 469 518 z "},"Q":{"ha":1122,"x_min":25,"x_max":1100,"o":"m 735 283 l 735 258 q 916 290 840 264 q 1038 347 992 317 q 1100 390 1085 376 l 1100 -100 q 1000 -115 1068 -108 q 844 -122 932 -122 q 632 -111 739 -122 q 425 -74 525 -100 q 244 1 325 -47 q 108 122 163 49 q 38 299 54 194 q 28 399 32 333 q 25 533 25 464 q 28 667 25 603 q 38 765 32 731 q 200 1008 64 922 q 550 1092 336 1094 q 901 1009 765 1094 q 1063 769 1038 924 q 1072 665 1069 732 q 1075 519 1075 599 q 1074 488 1075 503 q 1071 457 1074 472 q 1039 415 1068 440 q 962 362 1010 389 q 856 313 914 335 q 735 283 797 292 m 525 703 l 525 440 q 530 419 525 435 q 563 403 535 403 q 595 419 590 403 q 600 440 600 435 l 600 703 q 595 724 600 707 q 563 740 590 740 q 530 724 535 740 q 525 703 525 707 z "},"R":{"ha":1046,"x_min":33,"x_max":1046,"o":"m 471 0 l 33 0 l 33 1069 l 669 1069 q 833 1038 758 1069 q 951 935 907 1006 q 996 746 996 864 q 991 674 996 713 q 969 597 986 635 q 919 528 953 558 q 826 482 885 499 l 1046 0 l 558 0 l 483 286 l 471 286 l 471 0 m 567 728 l 433 728 l 433 653 l 571 653 q 595 660 582 653 q 608 689 608 667 q 593 720 608 713 q 567 728 578 728 z "},"S":{"ha":1013,"x_min":18,"x_max":999,"o":"m 926 594 q 769 660 853 639 q 569 690 686 682 q 551 692 560 692 q 533 693 542 693 q 504 669 504 693 q 520 651 504 656 q 564 643 536 646 q 678 627 618 636 q 794 600 738 618 q 898 547 851 582 q 972 456 944 513 q 999 313 999 399 q 954 152 999 217 q 834 49 910 88 q 662 -6 758 11 q 463 -22 565 -22 q 226 -9 343 -24 q 18 28 108 6 l 57 517 q 133 466 89 493 q 254 417 178 439 q 456 382 331 394 q 469 381 463 381 q 481 381 475 381 q 503 385 496 381 q 511 403 511 389 q 498 422 511 418 q 457 431 485 426 q 308 454 382 439 q 172 501 233 469 q 74 590 111 533 q 38 739 38 647 q 99 947 38 869 q 267 1058 161 1024 q 503 1092 372 1092 q 732 1072 613 1092 q 968 1017 851 1051 l 926 594 z "},"ẞ":{"ha":1088,"x_min":28,"x_max":1074,"o":"m 1018 892 l 1018 696 l 886 563 q 1031 444 989 514 q 1074 272 1074 374 q 1026 94 1074 158 q 893 5 979 31 q 689 -21 807 -21 q 573 -16 625 -21 q 471 0 521 -11 l 496 354 q 560 322 519 338 q 631 307 601 307 q 693 344 693 307 q 641 402 693 379 q 507 431 589 425 l 507 582 l 614 725 q 593 729 607 728 q 571 731 579 731 q 477 689 514 731 q 440 564 440 647 l 440 0 l 28 0 l 28 651 q 93 908 28 811 q 275 1048 158 1004 q 546 1092 392 1092 q 718 1071 640 1092 q 857 1019 796 1050 q 959 953 918 988 q 1018 892 1000 919 z "},"T":{"ha":1044,"x_min":22,"x_max":1022,"o":"m 1022 1069 l 1022 657 l 754 657 l 754 0 l 292 0 l 292 657 l 22 657 l 22 1069 l 1022 1069 z "},"U":{"ha":1031,"x_min":28,"x_max":1003,"o":"m 28 1069 l 478 1069 l 478 372 q 483 351 478 368 q 515 335 488 335 q 548 351 543 335 q 553 372 553 368 l 553 1069 l 1003 1069 l 1003 353 q 978 209 1003 276 q 896 90 953 142 q 742 8 839 38 q 503 -22 646 -22 q 286 8 376 -22 q 139 92 196 39 q 55 211 82 144 q 28 350 28 278 l 28 1069 z "},"Ú":{"ha":1031,"x_min":28,"x_max":1003,"o":"m 28 1069 l 478 1069 l 478 372 q 483 351 478 368 q 515 335 488 335 q 548 351 543 335 q 553 372 553 368 l 553 1069 l 1003 1069 l 1003 353 q 978 209 1003 276 q 896 90 953 142 q 742 8 839 38 q 503 -22 646 -22 q 286 8 376 -22 q 139 92 196 39 q 55 211 82 144 q 28 350 28 278 l 28 1069 m 881 1378 l 689 1135 l 343 1135 l 454 1378 l 881 1378 z "},"Û":{"ha":1031,"x_min":28,"x_max":1003,"o":"m 28 1069 l 478 1069 l 478 372 q 483 351 478 368 q 515 335 488 335 q 548 351 543 335 q 553 372 553 368 l 553 1069 l 1003 1069 l 1003 353 q 978 209 1003 276 q 896 90 953 142 q 742 8 839 38 q 503 -22 646 -22 q 286 8 376 -22 q 139 92 196 39 q 55 211 82 144 q 28 350 28 278 l 28 1069 m 708 1378 l 888 1135 l 556 1135 l 515 1229 l 474 1135 l 142 1135 l 321 1378 l 708 1378 z "},"Ü":{"ha":1031,"x_min":28,"x_max":1003,"o":"m 28 1069 l 478 1069 l 478 372 q 483 351 478 368 q 515 335 488 335 q 548 351 543 335 q 553 372 553 368 l 553 1069 l 1003 1069 l 1003 353 q 978 209 1003 276 q 896 90 953 142 q 742 8 839 38 q 503 -22 646 -22 q 286 8 376 -22 q 139 92 196 39 q 55 211 82 144 q 28 350 28 278 l 28 1069 m 210 1135 l 210 1378 l 490 1378 l 490 1135 l 210 1135 m 540 1135 l 540 1378 l 819 1378 l 819 1135 l 540 1135 z "},"Ù":{"ha":1031,"x_min":28,"x_max":1003,"o":"m 28 1069 l 478 1069 l 478 372 q 483 351 478 368 q 515 335 488 335 q 548 351 543 335 q 553 372 553 368 l 553 1069 l 1003 1069 l 1003 353 q 978 209 1003 276 q 896 90 953 142 q 742 8 839 38 q 503 -22 646 -22 q 286 8 376 -22 q 139 92 196 39 q 55 211 82 144 q 28 350 28 278 l 28 1069 m 686 1135 l 339 1135 l 149 1378 l 574 1378 l 686 1135 z "},"V":{"ha":1075,"x_min":13,"x_max":1063,"o":"m 833 0 l 243 0 l 13 1069 l 476 1069 l 532 358 l 544 358 l 599 1069 l 1063 1069 l 833 0 z "},"W":{"ha":1431,"x_min":15,"x_max":1415,"o":"m 649 0 l 169 0 l 15 1069 l 442 1069 l 458 371 l 471 371 l 551 1069 l 879 1069 l 958 369 l 971 369 l 989 1069 l 1415 1069 l 1272 0 l 794 0 l 728 282 l 715 282 l 649 0 z "},"Ẃ":{"ha":1431,"x_min":15,"x_max":1415,"o":"m 649 0 l 169 0 l 15 1069 l 442 1069 l 458 371 l 471 371 l 551 1069 l 879 1069 l 958 369 l 971 369 l 989 1069 l 1415 1069 l 1272 0 l 794 0 l 728 282 l 715 282 l 649 0 m 1081 1378 l 889 1135 l 543 1135 l 654 1378 l 1081 1378 z "},"Ŵ":{"ha":1431,"x_min":15,"x_max":1415,"o":"m 649 0 l 169 0 l 15 1069 l 442 1069 l 458 371 l 471 371 l 551 1069 l 879 1069 l 958 369 l 971 369 l 989 1069 l 1415 1069 l 1272 0 l 794 0 l 728 282 l 715 282 l 649 0 m 908 1378 l 1088 1135 l 756 1135 l 715 1229 l 674 1135 l 342 1135 l 521 1378 l 908 1378 z "},"Ẅ":{"ha":1431,"x_min":15,"x_max":1415,"o":"m 649 0 l 169 0 l 15 1069 l 442 1069 l 458 371 l 471 371 l 551 1069 l 879 1069 l 958 369 l 971 369 l 989 1069 l 1415 1069 l 1272 0 l 794 0 l 728 282 l 715 282 l 649 0 m 410 1135 l 410 1378 l 690 1378 l 690 1135 l 410 1135 m 740 1135 l 740 1378 l 1019 1378 l 1019 1135 l 740 1135 z "},"Ẁ":{"ha":1431,"x_min":15,"x_max":1415,"o":"m 649 0 l 169 0 l 15 1069 l 442 1069 l 458 371 l 471 371 l 551 1069 l 879 1069 l 958 369 l 971 369 l 989 1069 l 1415 1069 l 1272 0 l 794 0 l 728 282 l 715 282 l 649 0 m 886 1135 l 539 1135 l 349 1378 l 774 1378 l 886 1135 z "},"X":{"ha":1110,"x_min":7,"x_max":1094,"o":"m 564 750 l 619 1069 l 1094 1069 l 919 582 l 1094 0 l 632 0 l 564 415 l 551 415 l 482 0 l 7 0 l 194 582 l 19 1069 l 482 1069 l 551 750 l 564 750 z "},"Y":{"ha":1050,"x_min":13,"x_max":1038,"o":"m 532 607 l 574 1069 l 1038 1069 l 757 269 l 757 0 l 294 0 l 294 269 l 13 1069 l 476 1069 l 519 607 l 532 607 z "},"Ý":{"ha":1050,"x_min":13,"x_max":1038,"o":"m 532 607 l 574 1069 l 1038 1069 l 757 269 l 757 0 l 294 0 l 294 269 l 13 1069 l 476 1069 l 519 607 l 532 607 m 890 1378 l 699 1135 l 353 1135 l 464 1378 l 890 1378 z "},"Ŷ":{"ha":1050,"x_min":13,"x_max":1038,"o":"m 532 607 l 574 1069 l 1038 1069 l 757 269 l 757 0 l 294 0 l 294 269 l 13 1069 l 476 1069 l 519 607 l 532 607 m 718 1378 l 897 1135 l 565 1135 l 525 1229 l 483 1135 l 151 1135 l 331 1378 l 718 1378 z "},"Ÿ":{"ha":1050,"x_min":13,"x_max":1038,"o":"m 532 607 l 574 1069 l 1038 1069 l 757 269 l 757 0 l 294 0 l 294 269 l 13 1069 l 476 1069 l 519 607 l 532 607 m 219 1135 l 219 1378 l 500 1378 l 500 1135 l 219 1135 m 550 1135 l 550 1378 l 829 1378 l 829 1135 l 550 1135 z "},"Ỳ":{"ha":1050,"x_min":13,"x_max":1038,"o":"m 532 607 l 574 1069 l 1038 1069 l 757 269 l 757 0 l 294 0 l 294 269 l 13 1069 l 476 1069 l 519 607 l 532 607 m 696 1135 l 349 1135 l 158 1378 l 583 1378 l 696 1135 z "},"Z":{"ha":982,"x_min":22,"x_max":960,"o":"m 947 782 l 621 375 l 960 375 l 960 0 l 22 0 l 22 288 l 349 694 l 47 694 l 47 1069 l 947 1069 l 947 782 z "},"a":{"ha":888,"x_min":18,"x_max":875,"o":"m 875 0 l 519 0 q 510 55 514 26 q 507 124 507 83 l 494 124 q 474 60 494 94 q 410 2 454 26 q 290 -22 365 -22 q 128 13 188 -22 q 43 102 68 47 q 18 221 18 157 l 18 288 q 101 482 18 421 q 383 543 185 543 q 440 542 411 543 q 500 538 468 540 q 492 572 503 561 q 467 585 482 583 q 416 590 440 588 q 368 592 392 592 q 181 565 257 592 q 63 514 106 539 l 38 814 q 266 867 160 850 q 461 883 372 883 q 758 806 653 883 q 863 582 863 729 l 863 161 q 875 0 867 79 m 472 261 l 472 349 q 467 370 472 354 q 435 386 463 386 q 402 370 407 386 q 397 349 397 354 l 397 261 q 402 240 397 257 q 435 224 407 224 q 467 240 463 224 q 472 261 472 257 z "},"á":{"ha":888,"x_min":18,"x_max":875,"o":"m 875 0 l 519 0 q 510 55 514 26 q 507 124 507 83 l 494 124 q 474 60 494 94 q 410 2 454 26 q 290 -22 365 -22 q 128 13 188 -22 q 43 102 68 47 q 18 221 18 157 l 18 288 q 101 482 18 421 q 383 543 185 543 q 440 542 411 543 q 500 538 468 540 q 492 572 503 561 q 467 585 482 583 q 416 590 440 588 q 368 592 392 592 q 181 565 257 592 q 63 514 106 539 l 38 814 q 266 867 160 850 q 461 883 372 883 q 758 806 653 883 q 863 582 863 729 l 863 161 q 875 0 867 79 m 472 261 l 472 349 q 467 370 472 354 q 435 386 463 386 q 402 370 407 386 q 397 349 397 354 l 397 261 q 402 240 397 257 q 435 224 407 224 q 467 240 463 224 q 472 261 472 257 m 608 915 l 274 915 l 417 1132 l 806 1132 l 608 915 z "},"â":{"ha":888,"x_min":18,"x_max":875,"o":"m 875 0 l 519 0 q 510 55 514 26 q 507 124 507 83 l 494 124 q 474 60 494 94 q 410 2 454 26 q 290 -22 365 -22 q 128 13 188 -22 q 43 102 68 47 q 18 221 18 157 l 18 288 q 101 482 18 421 q 383 543 185 543 q 440 542 411 543 q 500 538 468 540 q 492 572 503 561 q 467 585 482 583 q 416 590 440 588 q 368 592 392 592 q 181 565 257 592 q 63 514 106 539 l 38 814 q 266 867 160 850 q 461 883 372 883 q 758 806 653 883 q 863 582 863 729 l 863 161 q 875 0 867 79 m 472 261 l 472 349 q 467 370 472 354 q 435 386 463 386 q 402 370 407 386 q 397 349 397 354 l 397 261 q 402 240 397 257 q 435 224 407 224 q 467 240 463 224 q 472 261 472 257 m 135 915 l 276 1132 l 639 1132 l 782 915 l 488 915 l 458 978 l 428 915 l 135 915 z "},"ä":{"ha":888,"x_min":18,"x_max":875,"o":"m 875 0 l 519 0 q 510 55 514 26 q 507 124 507 83 l 494 124 q 474 60 494 94 q 410 2 454 26 q 290 -22 365 -22 q 128 13 188 -22 q 43 102 68 47 q 18 221 18 157 l 18 288 q 101 482 18 421 q 383 543 185 543 q 440 542 411 543 q 500 538 468 540 q 492 572 503 561 q 467 585 482 583 q 416 590 440 588 q 368 592 392 592 q 181 565 257 592 q 63 514 106 539 l 38 814 q 266 867 160 850 q 461 883 372 883 q 758 806 653 883 q 863 582 863 729 l 863 161 q 875 0 867 79 m 472 261 l 472 349 q 467 370 472 354 q 435 386 463 386 q 402 370 407 386 q 397 349 397 354 l 397 261 q 402 240 397 257 q 435 224 407 224 q 467 240 463 224 q 472 261 472 257 m 174 1132 l 436 1132 l 436 915 l 174 915 l 174 1132 m 481 1132 l 743 1132 l 743 915 l 481 915 l 481 1132 z "},"à":{"ha":888,"x_min":18,"x_max":875,"o":"m 875 0 l 519 0 q 510 55 514 26 q 507 124 507 83 l 494 124 q 474 60 494 94 q 410 2 454 26 q 290 -22 365 -22 q 128 13 188 -22 q 43 102 68 47 q 18 221 18 157 l 18 288 q 101 482 18 421 q 383 543 185 543 q 440 542 411 543 q 500 538 468 540 q 492 572 503 561 q 467 585 482 583 q 416 590 440 588 q 368 592 392 592 q 181 565 257 592 q 63 514 106 539 l 38 814 q 266 867 160 850 q 461 883 372 883 q 758 806 653 883 q 863 582 863 729 l 863 161 q 875 0 867 79 m 472 261 l 472 349 q 467 370 472 354 q 435 386 463 386 q 402 370 407 386 q 397 349 397 354 l 397 261 q 402 240 397 257 q 435 224 407 224 q 467 240 463 224 q 472 261 472 257 m 313 915 l 115 1132 l 492 1132 l 635 915 l 313 915 z "},"å":{"ha":888,"x_min":18,"x_max":875,"o":"m 875 0 l 519 0 q 510 55 514 26 q 507 124 507 83 l 494 124 q 474 60 494 94 q 410 2 454 26 q 290 -22 365 -22 q 128 13 188 -22 q 43 102 68 47 q 18 221 18 157 l 18 288 q 101 482 18 421 q 383 543 185 543 q 440 542 411 543 q 500 538 468 540 q 492 572 503 561 q 467 585 482 583 q 416 590 440 588 q 368 592 392 592 q 181 565 257 592 q 63 514 106 539 l 38 814 q 266 867 160 850 q 461 883 372 883 q 758 806 653 883 q 863 582 863 729 l 863 161 q 875 0 867 79 m 472 261 l 472 349 q 467 370 472 354 q 435 386 463 386 q 402 370 407 386 q 397 349 397 354 l 397 261 q 402 240 397 257 q 435 224 407 224 q 467 240 463 224 q 472 261 472 257 m 761 1024 q 735 966 761 993 q 642 923 708 939 q 458 907 576 907 q 278 923 340 907 q 192 966 215 939 q 168 1024 168 993 l 168 1053 q 192 1110 168 1085 q 278 1152 215 1136 q 458 1168 340 1168 q 642 1152 576 1168 q 735 1110 708 1136 q 761 1053 761 1085 l 761 1024 m 522 1033 l 522 1043 q 464 1063 522 1063 q 407 1043 407 1063 l 407 1033 q 464 1013 407 1013 q 522 1033 522 1013 z "},"ã":{"ha":888,"x_min":18,"x_max":875,"o":"m 875 0 l 519 0 q 510 55 514 26 q 507 124 507 83 l 494 124 q 474 60 494 94 q 410 2 454 26 q 290 -22 365 -22 q 128 13 188 -22 q 43 102 68 47 q 18 221 18 157 l 18 288 q 101 482 18 421 q 383 543 185 543 q 440 542 411 543 q 500 538 468 540 q 492 572 503 561 q 467 585 482 583 q 416 590 440 588 q 368 592 392 592 q 181 565 257 592 q 63 514 106 539 l 38 814 q 266 867 160 850 q 461 883 372 883 q 758 806 653 883 q 863 582 863 729 l 863 161 q 875 0 867 79 m 472 261 l 472 349 q 467 370 472 354 q 435 386 463 386 q 402 370 407 386 q 397 349 397 354 l 397 261 q 402 240 397 257 q 435 224 407 224 q 467 240 463 224 q 472 261 472 257 m 549 907 q 492 914 514 907 q 452 929 469 921 q 413 944 435 938 q 357 951 392 951 q 233 908 313 951 l 174 1069 q 375 1149 288 1149 q 432 1142 410 1149 q 472 1126 454 1135 q 513 1110 490 1117 q 569 1103 535 1103 q 667 1144 607 1103 l 742 981 q 549 907 647 907 z "},"æ":{"ha":1350,"x_min":19,"x_max":1332,"o":"m 939 886 q 1081 861 1011 886 q 1208 790 1151 836 q 1298 679 1264 744 q 1332 532 1332 614 l 1332 390 l 892 390 l 892 315 q 926 278 892 278 q 961 315 961 278 l 961 349 l 1326 328 l 1326 301 q 1276 127 1326 200 q 1132 16 1225 54 q 914 -22 1039 -22 q 763 6 829 -22 q 653 101 697 35 q 547 7 621 36 q 354 -22 474 -22 q 188 -1 264 -22 q 65 74 111 21 q 19 221 19 126 l 19 288 q 103 486 19 421 q 385 551 186 551 q 440 550 411 551 q 501 546 469 549 q 494 582 504 571 q 468 594 483 593 q 417 599 442 597 q 369 600 393 600 q 182 574 257 600 q 64 522 107 549 l 39 824 q 256 869 151 856 q 450 883 361 883 q 602 864 542 883 q 697 800 663 844 q 803 867 747 849 q 939 886 858 886 m 892 540 l 892 490 l 961 490 l 961 540 q 926 578 961 578 q 892 540 892 578 m 499 261 l 499 349 q 494 370 499 354 q 461 386 489 386 q 428 370 433 386 q 424 349 424 354 l 424 261 q 428 240 424 257 q 461 224 433 224 q 494 240 489 224 q 499 261 499 257 z "},"b":{"ha":981,"x_min":38,"x_max":963,"o":"m 692 883 q 847 844 792 883 q 927 739 903 804 q 957 594 951 674 q 963 435 963 515 q 954 262 963 344 q 914 115 946 179 q 812 13 882 50 q 618 -22 742 -24 q 501 9 550 -21 q 419 82 451 39 q 417 42 418 63 q 413 0 415 21 l 38 0 q 46 89 43 44 q 49 176 49 133 l 43 1117 l 456 1117 l 456 876 l 443 676 l 456 676 q 515 828 457 774 q 692 883 572 883 m 556 339 l 556 526 q 551 547 556 531 q 518 564 546 564 q 485 547 490 564 q 481 526 481 531 l 481 339 q 485 317 481 333 q 518 301 490 301 q 551 317 546 301 q 556 339 556 333 z "},"c":{"ha":910,"x_min":22,"x_max":888,"o":"m 500 418 l 888 396 l 888 292 q 772 62 888 144 q 450 -21 657 -21 q 240 15 335 -21 q 88 121 146 51 q 25 289 31 190 q 23 348 24 308 q 22 439 22 388 q 23 527 22 489 q 25 583 24 565 q 88 747 31 679 q 240 849 146 814 q 450 883 335 883 q 683 849 585 883 q 834 748 781 814 q 888 589 888 682 l 888 508 l 500 465 l 500 515 q 463 553 500 553 q 425 515 425 553 l 425 360 q 463 322 425 322 q 500 360 500 322 l 500 418 z "},"ç":{"ha":910,"x_min":22,"x_max":888,"o":"m 500 418 l 888 396 l 888 292 q 813 97 888 174 q 603 -7 739 21 l 597 -18 q 719 -54 689 -26 q 749 -126 749 -82 q 658 -222 749 -189 q 417 -254 567 -254 q 301 -249 363 -254 q 175 -236 240 -244 l 201 -74 q 315 -90 267 -85 q 393 -96 363 -96 q 438 -82 438 -96 q 392 -59 438 -65 q 232 -47 346 -53 l 272 4 q 99 110 167 38 q 25 289 31 182 q 23 348 24 308 q 22 439 22 388 q 23 527 22 489 q 25 583 24 565 q 88 747 31 679 q 240 849 146 814 q 450 883 335 883 q 683 849 585 883 q 834 748 781 814 q 888 589 888 682 l 888 508 l 500 465 l 500 515 q 463 553 500 553 q 425 515 425 553 l 425 360 q 463 322 425 322 q 500 360 500 322 l 500 418 z "},"d":{"ha":968,"x_min":19,"x_max":944,"o":"m 933 260 q 935 136 933 203 q 944 0 938 69 l 557 0 q 551 91 551 46 q 553 182 551 136 l 540 182 q 516 88 539 135 q 447 9 493 40 q 328 -22 400 -22 q 156 18 218 -22 q 64 126 93 58 q 27 274 35 193 q 19 435 19 354 q 30 605 19 524 q 71 749 40 686 q 161 849 101 813 q 319 883 221 885 q 449 859 400 883 q 528 800 499 835 l 528 1117 l 933 1117 l 933 260 m 503 339 l 503 526 q 498 547 503 531 q 465 564 493 564 q 433 547 438 564 q 428 526 428 531 l 428 339 q 433 317 428 333 q 465 301 438 301 q 498 317 493 301 q 503 339 503 333 z "},"ð":{"ha":946,"x_min":19,"x_max":926,"o":"m 621 1132 l 576 1067 q 835 878 743 1019 q 926 472 926 736 q 810 104 926 231 q 467 -22 694 -22 q 230 21 331 -22 q 74 149 129 64 q 19 361 19 235 q 62 539 19 461 q 178 662 104 617 q 343 707 251 707 q 438 694 389 707 q 538 654 486 682 q 488 735 524 700 q 386 789 453 771 l 336 715 l 269 757 l 300 801 q 280 803 290 803 q 258 803 269 803 q 216 801 239 803 q 169 797 193 800 l 176 1082 q 354 1094 271 1094 q 427 1092 392 1094 q 496 1083 463 1089 l 557 1172 l 621 1132 m 431 346 q 492 378 467 346 q 531 457 517 410 q 493 461 510 460 q 461 463 476 463 q 392 446 411 463 q 372 408 372 429 q 389 366 372 386 q 431 346 406 346 z "},"e":{"ha":918,"x_min":21,"x_max":896,"o":"m 454 881 q 772 793 654 881 q 896 549 890 706 l 896 390 l 429 390 l 429 313 q 467 275 429 275 q 504 313 504 275 l 504 349 l 892 328 l 892 299 q 776 63 892 147 q 454 -21 661 -21 q 162 63 271 -21 q 29 296 53 146 q 23 351 25 314 q 21 439 21 389 q 23 526 21 488 q 29 582 25 564 q 161 801 51 722 q 454 881 271 881 m 429 540 l 429 490 l 504 490 l 504 540 q 467 578 504 578 q 429 540 429 578 z "},"é":{"ha":918,"x_min":21,"x_max":896,"o":"m 454 881 q 772 793 654 881 q 896 549 890 706 l 896 390 l 429 390 l 429 313 q 467 275 429 275 q 504 313 504 275 l 504 349 l 892 328 l 892 299 q 776 63 892 147 q 454 -21 661 -21 q 162 63 271 -21 q 29 296 53 146 q 23 351 25 314 q 21 439 21 389 q 23 526 21 488 q 29 582 25 564 q 161 801 51 722 q 454 881 271 881 m 429 540 l 429 490 l 504 490 l 504 540 q 467 578 504 578 q 429 540 429 578 m 610 915 l 275 915 l 418 1132 l 807 1132 l 610 915 z "},"ê":{"ha":918,"x_min":21,"x_max":896,"o":"m 454 881 q 772 793 654 881 q 896 549 890 706 l 896 390 l 429 390 l 429 313 q 467 275 429 275 q 504 313 504 275 l 504 349 l 892 328 l 892 299 q 776 63 892 147 q 454 -21 661 -21 q 162 63 271 -21 q 29 296 53 146 q 23 351 25 314 q 21 439 21 389 q 23 526 21 488 q 29 582 25 564 q 161 801 51 722 q 454 881 271 881 m 429 540 l 429 490 l 504 490 l 504 540 q 467 578 504 578 q 429 540 429 578 m 136 915 l 278 1132 l 640 1132 l 783 915 l 489 915 l 460 978 l 429 915 l 136 915 z "},"ë":{"ha":918,"x_min":21,"x_max":896,"o":"m 454 881 q 772 793 654 881 q 896 549 890 706 l 896 390 l 429 390 l 429 313 q 467 275 429 275 q 504 313 504 275 l 504 349 l 892 328 l 892 299 q 776 63 892 147 q 454 -21 661 -21 q 162 63 271 -21 q 29 296 53 146 q 23 351 25 314 q 21 439 21 389 q 23 526 21 488 q 29 582 25 564 q 161 801 51 722 q 454 881 271 881 m 429 540 l 429 490 l 504 490 l 504 540 q 467 578 504 578 q 429 540 429 578 m 175 1132 l 438 1132 l 438 915 l 175 915 l 175 1132 m 482 1132 l 744 1132 l 744 915 l 482 915 l 482 1132 z "},"è":{"ha":918,"x_min":21,"x_max":896,"o":"m 454 881 q 772 793 654 881 q 896 549 890 706 l 896 390 l 429 390 l 429 313 q 467 275 429 275 q 504 313 504 275 l 504 349 l 892 328 l 892 299 q 776 63 892 147 q 454 -21 661 -21 q 162 63 271 -21 q 29 296 53 146 q 23 351 25 314 q 21 439 21 389 q 23 526 21 488 q 29 582 25 564 q 161 801 51 722 q 454 881 271 881 m 429 540 l 429 490 l 504 490 l 504 540 q 467 578 504 578 q 429 540 429 578 m 314 915 l 117 1132 l 493 1132 l 636 915 l 314 915 z "},"f":{"ha":651,"x_min":19,"x_max":633,"o":"m 633 1126 l 615 913 q 560 917 586 917 q 517 907 535 918 q 494 861 500 896 l 632 861 l 632 561 l 494 561 l 494 0 l 94 0 l 94 561 l 19 561 l 19 861 l 94 861 l 94 879 q 133 1044 94 982 q 238 1133 171 1106 q 392 1160 306 1160 q 508 1151 447 1160 q 633 1126 569 1142 z "},"g":{"ha":964,"x_min":25,"x_max":944,"o":"m 932 675 l 939 160 q 919 -18 940 60 q 845 -148 899 -96 q 694 -227 792 -200 q 444 -254 597 -254 q 369 -252 415 -254 q 269 -245 322 -250 q 164 -233 215 -240 q 75 -214 113 -225 l 106 167 q 248 132 188 139 q 361 125 308 125 q 484 142 429 125 q 551 199 539 160 q 522 188 539 193 q 474 178 506 182 q 389 174 443 174 q 116 250 207 174 q 25 469 25 326 l 25 565 q 94 799 25 715 q 336 883 164 883 q 490 848 435 883 q 551 732 546 813 l 564 732 q 566 797 564 764 q 571 861 568 829 l 944 861 q 935 767 939 814 q 932 675 932 721 m 501 410 l 501 572 q 497 594 501 578 q 464 610 492 610 q 431 594 436 610 q 426 572 426 578 l 426 410 q 431 389 426 406 q 464 372 436 372 q 497 389 492 372 q 501 410 501 406 z "},"h":{"ha":969,"x_min":32,"x_max":947,"o":"m 688 883 q 822 856 771 883 q 900 782 874 829 q 936 674 926 735 q 947 547 946 614 l 947 0 l 535 0 l 535 515 q 530 536 535 519 q 497 553 525 553 q 465 536 469 553 q 460 515 460 519 l 460 0 l 38 0 l 32 1117 l 457 1117 l 457 713 l 469 713 q 542 841 479 799 q 688 883 606 883 z "},"i":{"ha":463,"x_min":32,"x_max":432,"o":"m 32 899 l 32 1117 l 432 1117 l 432 899 l 32 899 m 432 0 l 32 0 l 32 861 l 432 861 l 432 0 z "},"ı":{"ha":463,"x_min":32,"x_max":432,"o":"m 432 0 l 32 0 l 32 861 l 432 861 l 432 0 z "},"í":{"ha":463,"x_min":32,"x_max":579,"o":"m 432 0 l 32 0 l 32 861 l 432 861 l 432 0 m 382 915 l 47 915 l 190 1132 l 579 1132 l 382 915 z "},"î":{"ha":463,"x_min":-92,"x_max":556,"o":"m 432 0 l 32 0 l 32 861 l 432 861 l 432 0 m -92 915 l 50 1132 l 413 1132 l 556 915 l 261 915 l 232 978 l 201 915 l -92 915 z "},"ï":{"ha":463,"x_min":-53,"x_max":517,"o":"m 432 0 l 32 0 l 32 861 l 432 861 l 432 0 m -53 1132 l 210 1132 l 210 915 l -53 915 l -53 1132 m 254 1132 l 517 1132 l 517 915 l 254 915 l 254 1132 z "},"ì":{"ha":463,"x_min":-111,"x_max":432,"o":"m 432 0 l 32 0 l 32 861 l 432 861 l 432 0 m 86 915 l -111 1132 l 265 1132 l 408 915 l 86 915 z "},"j":{"ha":585,"x_min":17,"x_max":560,"o":"m 160 899 l 160 1117 l 560 1117 l 560 899 l 160 899 m 17 -254 l 35 -29 q 79 -25 57 -28 q 119 -9 101 -22 q 149 35 138 4 q 160 125 160 67 l 160 861 l 560 861 l 560 133 q 524 -74 560 4 q 428 -192 488 -153 q 296 -245 368 -232 q 151 -258 224 -258 q 17 -254 78 -257 z "},"ȷ":{"ha":585,"x_min":17,"x_max":560,"o":"m 160 899 l 160 1117 l 560 1117 l 560 899 l 160 899 m 17 -254 l 35 -29 q 79 -25 57 -28 q 119 -9 101 -22 q 149 35 138 4 q 160 125 160 67 l 160 861 l 560 861 l 560 133 q 524 -74 560 4 q 428 -192 488 -153 q 296 -245 368 -232 q 151 -258 224 -258 q 17 -254 78 -257 z "},"k":{"ha":958,"x_min":32,"x_max":949,"o":"m 432 0 l 32 0 l 32 1117 l 444 1117 l 444 728 l 432 560 l 444 560 l 518 861 l 932 861 l 754 454 l 949 0 l 514 0 l 443 335 l 431 335 l 431 194 l 432 0 z "},"l":{"ha":539,"x_min":31,"x_max":531,"o":"m 508 249 l 531 6 q 428 -9 488 -4 q 317 -14 369 -14 q 166 15 231 -14 q 66 119 101 43 q 31 340 31 196 l 31 1117 l 431 1117 l 431 307 q 452 256 431 268 q 508 249 474 243 z "},"m":{"ha":1375,"x_min":25,"x_max":1353,"o":"m 1108 883 q 1240 857 1192 883 q 1313 784 1289 831 q 1344 676 1336 738 q 1353 546 1351 615 l 1353 0 l 965 -1 l 965 514 q 960 535 965 518 q 928 551 956 551 q 895 535 900 551 q 890 514 890 518 l 890 0 l 521 -1 l 521 514 q 516 535 521 518 q 483 551 511 551 q 451 535 456 551 q 446 514 446 518 l 446 0 l 35 0 l 35 558 q 35 688 35 603 q 25 861 36 772 l 378 861 q 394 681 394 774 l 407 681 q 428 781 407 735 q 499 855 450 826 q 628 883 547 883 q 768 858 718 883 q 841 786 818 832 q 869 681 864 740 l 882 681 q 903 781 882 735 q 975 855 925 826 q 1108 883 1025 883 z "},"n":{"ha":950,"x_min":25,"x_max":928,"o":"m 631 883 q 794 857 735 883 q 883 784 854 831 q 919 676 911 738 q 928 546 928 615 l 928 0 l 521 -1 l 521 514 q 516 535 521 518 q 483 551 511 551 q 451 535 456 551 q 446 514 446 518 l 446 0 l 35 0 l 35 558 q 35 688 35 603 q 25 861 36 772 l 378 861 q 394 681 394 774 l 407 681 q 429 781 407 735 q 501 855 451 826 q 631 883 550 883 z "},"ñ":{"ha":950,"x_min":25,"x_max":928,"o":"m 631 883 q 794 857 735 883 q 883 784 854 831 q 919 676 911 738 q 928 546 928 615 l 928 0 l 521 -1 l 521 514 q 516 535 521 518 q 483 551 511 551 q 451 535 456 551 q 446 514 446 518 l 446 0 l 35 0 l 35 558 q 35 688 35 603 q 25 861 36 772 l 378 861 q 394 681 394 774 l 407 681 q 429 781 407 735 q 501 855 451 826 q 631 883 550 883 m 574 907 q 517 914 539 907 q 477 929 494 921 q 438 944 460 938 q 382 951 417 951 q 258 908 338 951 l 199 1069 q 400 1149 313 1149 q 457 1142 435 1149 q 497 1126 479 1135 q 538 1110 515 1117 q 594 1103 560 1103 q 692 1144 632 1103 l 767 981 q 574 907 672 907 z "},"o":{"ha":928,"x_min":22,"x_max":907,"o":"m 903 301 q 774 58 890 138 q 465 -22 657 -22 q 156 58 272 -22 q 28 301 40 138 q 24 362 26 325 q 22 438 22 399 q 24 510 22 478 q 28 567 26 542 q 157 806 40 729 q 465 883 274 883 q 774 806 657 883 q 903 567 890 728 q 907 443 907 519 q 906 365 907 403 q 903 301 906 326 m 503 344 l 503 529 q 498 550 503 533 q 465 567 493 567 q 433 550 438 567 q 428 529 428 533 l 428 344 q 433 323 428 339 q 465 307 438 307 q 498 323 493 307 q 503 344 503 339 z "},"ó":{"ha":928,"x_min":22,"x_max":907,"o":"m 903 301 q 774 58 890 138 q 465 -22 657 -22 q 156 58 272 -22 q 28 301 40 138 q 24 362 26 325 q 22 438 22 399 q 24 510 22 478 q 28 567 26 542 q 157 806 40 729 q 465 883 274 883 q 774 806 657 883 q 903 567 890 728 q 907 443 907 519 q 906 365 907 403 q 903 301 906 326 m 503 344 l 503 529 q 498 550 503 533 q 465 567 493 567 q 433 550 438 567 q 428 529 428 533 l 428 344 q 433 323 428 339 q 465 307 438 307 q 498 323 493 307 q 503 344 503 339 m 614 915 l 279 915 l 422 1132 l 811 1132 l 614 915 z "},"ô":{"ha":928,"x_min":22,"x_max":907,"o":"m 903 301 q 774 58 890 138 q 465 -22 657 -22 q 156 58 272 -22 q 28 301 40 138 q 24 362 26 325 q 22 438 22 399 q 24 510 22 478 q 28 567 26 542 q 157 806 40 729 q 465 883 274 883 q 774 806 657 883 q 903 567 890 728 q 907 443 907 519 q 906 365 907 403 q 903 301 906 326 m 503 344 l 503 529 q 498 550 503 533 q 465 567 493 567 q 433 550 438 567 q 428 529 428 533 l 428 344 q 433 323 428 339 q 465 307 438 307 q 498 323 493 307 q 503 344 503 339 m 140 915 l 282 1132 l 644 1132 l 788 915 l 493 915 l 464 978 l 433 915 l 140 915 z "},"ö":{"ha":928,"x_min":22,"x_max":907,"o":"m 903 301 q 774 58 890 138 q 465 -22 657 -22 q 156 58 272 -22 q 28 301 40 138 q 24 362 26 325 q 22 438 22 399 q 24 510 22 478 q 28 567 26 542 q 157 806 40 729 q 465 883 274 883 q 774 806 657 883 q 903 567 890 728 q 907 443 907 519 q 906 365 907 403 q 903 301 906 326 m 503 344 l 503 529 q 498 550 503 533 q 465 567 493 567 q 433 550 438 567 q 428 529 428 533 l 428 344 q 433 323 428 339 q 465 307 438 307 q 498 323 493 307 q 503 344 503 339 m 179 1132 l 442 1132 l 442 915 l 179 915 l 179 1132 m 486 1132 l 749 1132 l 749 915 l 486 915 l 486 1132 z "},"ò":{"ha":928,"x_min":22,"x_max":907,"o":"m 903 301 q 774 58 890 138 q 465 -22 657 -22 q 156 58 272 -22 q 28 301 40 138 q 24 362 26 325 q 22 438 22 399 q 24 510 22 478 q 28 567 26 542 q 157 806 40 729 q 465 883 274 883 q 774 806 657 883 q 903 567 890 728 q 907 443 907 519 q 906 365 907 403 q 903 301 906 326 m 503 344 l 503 529 q 498 550 503 533 q 465 567 493 567 q 433 550 438 567 q 428 529 428 533 l 428 344 q 433 323 428 339 q 465 307 438 307 q 498 323 493 307 q 503 344 503 339 m 318 915 l 121 1132 l 497 1132 l 640 915 l 318 915 z "},"ø":{"ha":922,"x_min":22,"x_max":907,"o":"m 147 -47 l 86 -3 l 140 69 q 63 167 92 110 q 28 301 33 225 q 24 362 26 325 q 22 438 22 399 q 24 510 22 478 q 28 567 26 542 q 157 806 40 729 q 465 883 274 883 q 711 840 611 883 l 775 925 l 836 881 l 778 803 q 865 705 832 764 q 903 567 897 646 q 907 443 907 519 q 906 365 907 403 q 903 301 906 326 q 774 58 890 138 q 465 -22 657 -22 q 204 29 308 -22 l 147 -47 m 428 529 l 428 457 l 497 551 q 486 562 493 557 q 465 567 479 567 q 433 550 438 567 q 428 529 428 533 m 503 344 l 503 432 l 429 332 q 438 315 431 324 q 465 307 446 307 q 498 323 493 307 q 503 344 503 339 z "},"õ":{"ha":928,"x_min":22,"x_max":907,"o":"m 903 301 q 774 58 890 138 q 465 -22 657 -22 q 156 58 272 -22 q 28 301 40 138 q 24 362 26 325 q 22 438 22 399 q 24 510 22 478 q 28 567 26 542 q 157 806 40 729 q 465 883 274 883 q 774 806 657 883 q 903 567 890 728 q 907 443 907 519 q 906 365 907 403 q 903 301 906 326 m 503 344 l 503 529 q 498 550 503 533 q 465 567 493 567 q 433 550 438 567 q 428 529 428 533 l 428 344 q 433 323 428 339 q 465 307 438 307 q 498 323 493 307 q 503 344 503 339 m 554 907 q 497 914 519 907 q 458 929 475 921 q 419 944 440 938 q 363 951 397 951 q 239 908 318 951 l 179 1069 q 381 1149 293 1149 q 438 1142 415 1149 q 478 1126 460 1135 q 518 1110 496 1117 q 575 1103 540 1103 q 672 1144 613 1103 l 747 981 q 554 907 653 907 z "},"œ":{"ha":1350,"x_min":19,"x_max":1332,"o":"m 914 883 q 1130 840 1036 883 q 1278 719 1224 797 q 1332 536 1332 642 l 1332 390 l 892 390 l 892 315 q 926 278 892 278 q 961 315 961 278 l 961 349 l 1326 328 l 1326 301 q 1276 131 1326 204 q 1133 18 1225 58 q 918 -22 1042 -22 q 783 3 844 -22 q 683 63 721 28 q 581 3 644 28 q 436 -22 518 -22 q 145 63 254 -22 q 24 311 36 147 q 19 440 19 361 q 24 569 19 519 q 147 809 38 735 q 436 883 256 883 q 696 808 596 883 q 789 864 736 844 q 914 883 842 883 m 892 540 l 892 490 l 961 490 l 961 540 q 926 578 961 578 q 892 540 892 578 m 471 335 l 471 532 q 467 553 471 538 q 436 569 463 569 q 406 553 410 569 q 401 532 401 538 l 401 335 q 406 314 401 331 q 436 297 410 297 q 467 314 463 297 q 471 335 471 331 z "},"p":{"ha":965,"x_min":25,"x_max":950,"o":"m 25 861 l 413 861 q 419 768 418 821 q 419 675 419 715 l 432 675 q 503 828 444 772 q 665 883 563 883 q 815 851 758 883 q 900 758 871 818 q 940 617 929 699 q 950 439 950 536 q 938 266 950 349 q 889 119 925 183 q 783 17 853 54 q 596 -21 713 -21 q 501 -6 539 -21 q 447 24 464 10 l 447 -214 l 35 -214 l 36 696 q 33 779 36 738 q 25 861 31 821 m 543 335 l 543 522 q 538 544 543 528 q 506 560 533 560 q 473 544 478 560 q 468 522 468 528 l 468 335 q 473 314 468 331 q 506 297 478 297 q 538 314 533 297 q 543 335 543 331 z "},"þ":{"ha":958,"x_min":25,"x_max":940,"o":"m 657 883 q 806 850 750 883 q 892 756 863 817 q 931 615 921 696 q 940 439 940 533 q 928 265 940 347 q 878 117 915 182 q 770 15 842 53 q 582 -22 699 -22 q 489 -6 526 -22 q 438 24 451 10 l 438 -214 l 25 -214 l 25 1117 l 438 1117 l 438 757 q 522 849 465 815 q 657 883 579 883 m 532 335 l 532 522 q 527 544 532 528 q 494 560 522 560 q 462 544 467 560 q 457 522 457 528 l 457 335 q 462 314 457 331 q 494 297 467 297 q 527 314 522 297 q 532 335 532 331 z "},"q":{"ha":965,"x_min":22,"x_max":947,"o":"m 572 861 l 947 861 q 940 780 943 821 q 936 697 936 739 l 938 -214 l 525 -214 l 525 7 l 538 179 l 525 179 q 505 85 524 132 q 441 9 486 39 q 315 -21 396 -21 q 156 19 215 -21 q 68 126 97 60 q 31 274 39 193 q 22 435 22 354 q 33 608 22 526 q 76 751 44 689 q 173 848 108 813 q 343 883 238 883 q 462 862 417 883 q 532 807 507 840 q 567 738 557 774 q 568 800 567 769 q 572 861 569 831 m 506 335 l 506 522 q 501 544 506 528 q 468 560 496 560 q 435 544 440 560 q 431 522 431 528 l 431 335 q 435 314 431 331 q 468 297 440 297 q 501 314 496 297 q 506 335 506 331 z "},"r":{"ha":754,"x_min":25,"x_max":742,"o":"m 650 883 q 691 881 667 883 q 742 872 715 879 l 700 422 l 697 421 q 647 437 676 429 q 576 444 618 444 q 511 436 546 444 q 452 407 476 428 q 428 347 428 386 l 428 -1 l 35 0 l 35 644 q 33 749 35 693 q 25 861 32 806 l 349 861 q 385 744 376 810 q 396 622 394 679 l 407 622 q 417 684 407 642 q 455 772 428 726 q 529 851 482 818 q 650 883 576 883 z "},"s":{"ha":847,"x_min":13,"x_max":838,"o":"m 776 482 q 645 538 715 519 q 478 563 575 556 q 461 563 468 563 q 447 564 454 564 q 422 544 422 564 q 436 530 422 533 q 472 522 450 526 q 593 506 529 517 q 713 469 657 496 q 803 390 768 443 q 838 244 838 336 q 803 117 838 168 q 708 35 768 65 q 571 -8 647 6 q 411 -21 494 -21 q 199 -5 306 -21 q 13 29 93 11 l 46 417 q 110 376 72 399 q 213 333 149 353 q 382 304 276 314 q 392 303 388 303 q 403 303 397 303 q 428 321 428 303 q 417 338 428 333 q 382 344 406 342 q 258 365 319 353 q 144 404 196 378 q 62 478 93 431 q 31 603 31 526 q 83 768 31 707 q 224 856 135 829 q 421 883 313 883 q 614 869 514 883 q 811 831 714 854 l 776 482 z "},"ß":{"ha":963,"x_min":28,"x_max":949,"o":"m 28 0 l 29 704 q 88 958 29 863 q 251 1096 147 1053 q 490 1139 356 1139 q 703 1098 613 1139 q 844 983 794 1057 q 894 810 894 908 q 865 663 894 725 q 761 549 835 600 q 900 451 851 517 q 949 272 949 386 q 859 45 949 113 q 607 -22 769 -22 q 429 0 497 -22 l 446 360 q 492 332 464 347 q 542 317 519 317 q 575 333 567 317 q 583 361 583 349 q 543 422 583 397 q 444 453 503 447 l 444 618 q 530 666 497 638 q 563 739 563 694 q 497 818 563 818 q 403 642 403 818 l 403 0 l 28 0 z "},"t":{"ha":631,"x_min":19,"x_max":619,"o":"m 590 335 l 619 -3 q 522 -17 569 -12 q 432 -22 475 -22 q 257 8 333 -22 q 138 115 181 38 q 94 332 94 192 l 94 561 l 19 561 l 19 861 l 97 861 l 119 974 l 494 1011 l 494 861 l 594 861 l 594 561 l 494 561 l 494 422 q 514 352 494 371 q 568 333 533 333 q 578 333 572 333 q 590 335 585 333 z "},"u":{"ha":944,"x_min":24,"x_max":931,"o":"m 931 0 l 576 0 q 562 89 567 42 q 557 182 557 136 l 544 182 q 523 83 544 129 q 453 8 501 36 q 324 -21 406 -21 q 159 6 219 -21 q 70 78 99 32 q 33 185 42 124 q 24 315 25 246 l 24 861 l 431 861 l 431 347 q 435 326 431 343 q 468 310 440 310 q 501 326 496 310 q 506 347 506 343 l 506 861 l 917 861 l 917 303 q 917 245 917 288 q 919 151 918 203 q 924 58 921 100 q 931 0 926 15 z "},"ú":{"ha":944,"x_min":24,"x_max":931,"o":"m 931 0 l 576 0 q 562 89 567 42 q 557 182 557 136 l 544 182 q 523 83 544 129 q 453 8 501 36 q 324 -21 406 -21 q 159 6 219 -21 q 70 78 99 32 q 33 185 42 124 q 24 315 25 246 l 24 861 l 431 861 l 431 347 q 435 326 431 343 q 468 310 440 310 q 501 326 496 310 q 506 347 506 343 l 506 861 l 917 861 l 917 303 q 917 245 917 288 q 919 151 918 203 q 924 58 921 100 q 931 0 926 15 m 622 915 l 288 915 l 431 1132 l 819 1132 l 622 915 z "},"û":{"ha":944,"x_min":24,"x_max":931,"o":"m 931 0 l 576 0 q 562 89 567 42 q 557 182 557 136 l 544 182 q 523 83 544 129 q 453 8 501 36 q 324 -21 406 -21 q 159 6 219 -21 q 70 78 99 32 q 33 185 42 124 q 24 315 25 246 l 24 861 l 431 861 l 431 347 q 435 326 431 343 q 468 310 440 310 q 501 326 496 310 q 506 347 506 343 l 506 861 l 917 861 l 917 303 q 917 245 917 288 q 919 151 918 203 q 924 58 921 100 q 931 0 926 15 m 149 915 l 290 1132 l 653 1132 l 796 915 l 501 915 l 472 978 l 442 915 l 149 915 z "},"ü":{"ha":944,"x_min":24,"x_max":931,"o":"m 931 0 l 576 0 q 562 89 567 42 q 557 182 557 136 l 544 182 q 523 83 544 129 q 453 8 501 36 q 324 -21 406 -21 q 159 6 219 -21 q 70 78 99 32 q 33 185 42 124 q 24 315 25 246 l 24 861 l 431 861 l 431 347 q 435 326 431 343 q 468 310 440 310 q 501 326 496 310 q 506 347 506 343 l 506 861 l 917 861 l 917 303 q 917 245 917 288 q 919 151 918 203 q 924 58 921 100 q 931 0 926 15 m 188 1132 l 450 1132 l 450 915 l 188 915 l 188 1132 m 494 1132 l 757 1132 l 757 915 l 494 915 l 494 1132 z "},"ù":{"ha":944,"x_min":24,"x_max":931,"o":"m 931 0 l 576 0 q 562 89 567 42 q 557 182 557 136 l 544 182 q 523 83 544 129 q 453 8 501 36 q 324 -21 406 -21 q 159 6 219 -21 q 70 78 99 32 q 33 185 42 124 q 24 315 25 246 l 24 861 l 431 861 l 431 347 q 435 326 431 343 q 468 310 440 310 q 501 326 496 310 q 506 347 506 343 l 506 861 l 917 861 l 917 303 q 917 245 917 288 q 919 151 918 203 q 924 58 921 100 q 931 0 926 15 m 326 915 l 129 1132 l 506 1132 l 649 915 l 326 915 z "},"v":{"ha":972,"x_min":10,"x_max":960,"o":"m 757 0 l 215 0 l 10 861 l 436 861 l 479 358 l 492 358 l 533 863 l 960 863 l 757 0 z "},"w":{"ha":1318,"x_min":7,"x_max":1303,"o":"m 590 0 l 153 0 l 7 863 l 426 863 l 444 408 l 457 408 l 524 863 l 789 863 l 857 407 l 869 407 l 883 861 l 1303 861 l 1157 0 l 719 0 l 661 269 l 649 269 l 590 0 z "},"ẃ":{"ha":1318,"x_min":7,"x_max":1303,"o":"m 590 0 l 153 0 l 7 863 l 426 863 l 444 408 l 457 408 l 524 863 l 789 863 l 857 407 l 869 407 l 883 861 l 1303 861 l 1157 0 l 719 0 l 661 269 l 649 269 l 590 0 m 810 915 l 475 915 l 618 1132 l 1007 1132 l 810 915 z "},"ŵ":{"ha":1318,"x_min":7,"x_max":1303,"o":"m 590 0 l 153 0 l 7 863 l 426 863 l 444 408 l 457 408 l 524 863 l 789 863 l 857 407 l 869 407 l 883 861 l 1303 861 l 1157 0 l 719 0 l 661 269 l 649 269 l 590 0 m 336 915 l 478 1132 l 840 1132 l 983 915 l 689 915 l 660 978 l 629 915 l 336 915 z "},"ẅ":{"ha":1318,"x_min":7,"x_max":1303,"o":"m 590 0 l 153 0 l 7 863 l 426 863 l 444 408 l 457 408 l 524 863 l 789 863 l 857 407 l 869 407 l 883 861 l 1303 861 l 1157 0 l 719 0 l 661 269 l 649 269 l 590 0 m 375 1132 l 638 1132 l 638 915 l 375 915 l 375 1132 m 682 1132 l 944 1132 l 944 915 l 682 915 l 682 1132 z "},"ẁ":{"ha":1318,"x_min":7,"x_max":1303,"o":"m 590 0 l 153 0 l 7 863 l 426 863 l 444 408 l 457 408 l 524 863 l 789 863 l 857 407 l 869 407 l 883 861 l 1303 861 l 1157 0 l 719 0 l 661 269 l 649 269 l 590 0 m 514 915 l 317 1132 l 693 1132 l 836 915 l 514 915 z "},"x":{"ha":953,"x_min":13,"x_max":947,"o":"m 486 594 l 510 861 l 940 861 l 804 449 l 947 0 l 519 0 l 486 304 l 474 304 l 444 0 l 13 0 l 149 449 l 19 861 l 444 861 l 474 594 l 486 594 z "},"y":{"ha":981,"x_min":7,"x_max":969,"o":"m 638 -214 l 125 -214 l 268 131 l 7 861 l 457 861 l 494 388 l 518 388 l 519 861 l 969 861 l 638 -214 z "},"ý":{"ha":981,"x_min":7,"x_max":969,"o":"m 638 -214 l 125 -214 l 268 131 l 7 861 l 457 861 l 494 388 l 518 388 l 519 861 l 969 861 l 638 -214 m 640 915 l 306 915 l 449 1132 l 838 1132 l 640 915 z "},"ŷ":{"ha":981,"x_min":7,"x_max":969,"o":"m 638 -214 l 125 -214 l 268 131 l 7 861 l 457 861 l 494 388 l 518 388 l 519 861 l 969 861 l 638 -214 m 167 915 l 308 1132 l 671 1132 l 814 915 l 519 915 l 490 978 l 460 915 l 167 915 z "},"ÿ":{"ha":981,"x_min":7,"x_max":969,"o":"m 638 -214 l 125 -214 l 268 131 l 7 861 l 457 861 l 494 388 l 518 388 l 519 861 l 969 861 l 638 -214 m 206 1132 l 468 1132 l 468 915 l 206 915 l 206 1132 m 513 1132 l 775 1132 l 775 915 l 513 915 l 513 1132 z "},"ỳ":{"ha":981,"x_min":7,"x_max":969,"o":"m 638 -214 l 125 -214 l 268 131 l 7 861 l 457 861 l 494 388 l 518 388 l 519 861 l 969 861 l 638 -214 m 344 915 l 147 1132 l 524 1132 l 667 915 l 344 915 z "},"z":{"ha":835,"x_min":22,"x_max":822,"o":"m 810 624 l 532 325 l 822 325 l 822 0 l 22 0 l 22 238 l 303 536 l 47 536 l 47 861 l 810 861 l 810 624 z "},"ª":{"ha":525,"x_min":25,"x_max":508,"o":"m 504 572 l 307 572 q 297 642 299 600 l 292 642 q 266 588 292 617 q 178 560 240 560 q 58 601 90 560 q 25 696 25 643 l 25 732 q 72 844 25 807 q 231 881 119 881 q 260 880 244 881 q 294 878 276 879 q 276 904 296 901 q 248 907 263 907 q 219 907 233 907 q 116 893 158 907 q 50 865 74 879 l 36 1035 q 272 1076 172 1076 q 438 1032 379 1076 q 497 903 497 988 l 497 663 q 501 617 499 640 q 504 572 503 594 m 279 719 l 279 768 q 276 780 279 771 q 258 789 274 789 q 240 780 243 789 q 238 768 238 771 l 238 719 q 240 707 238 717 q 258 697 243 697 q 276 707 274 697 q 279 719 279 717 m 33 478 l 33 535 l 508 535 l 508 478 l 33 478 z "},"º":{"ha":536,"x_min":28,"x_max":514,"o":"m 511 750 q 441 612 506 657 q 271 567 376 567 q 102 611 165 567 q 32 749 39 656 q 29 781 31 763 q 28 821 28 799 q 29 863 28 844 q 32 894 31 881 q 103 1031 39 988 q 271 1075 167 1075 q 441 1031 376 1075 q 511 896 506 988 q 513 865 513 882 q 514 824 514 847 q 513 783 514 801 q 511 750 513 765 m 292 771 l 292 869 q 289 882 292 872 q 271 892 286 892 q 253 882 256 892 q 250 869 250 872 l 250 771 q 253 760 250 769 q 271 750 256 750 q 289 760 286 750 q 292 771 292 769 m 33 478 l 33 535 l 508 535 l 508 478 l 33 478 z "},"加":{"ha":1350,"x_min":0,"x_max":1319,"o":"m 99 1142 l 399 1142 l 399 1017 l 690 1017 l 690 182 q 678 45 690 96 q 628 -31 665 -6 q 521 -63 592 -56 q 335 -71 450 -71 l 315 138 q 292 3 304 63 q 267 -93 279 -56 l 0 -39 q 40 170 21 47 q 72 438 58 293 q 94 729 86 582 l 31 729 l 24 1017 l 99 1017 l 99 1142 m 1319 1067 l 1319 -43 l 1044 -43 l 1044 22 l 997 22 l 997 -46 l 725 -46 l 725 1067 l 1319 1067 m 1044 310 l 1044 785 l 997 785 l 997 310 l 1044 310 m 413 272 l 413 729 l 368 729 q 348 441 360 582 q 321 183 336 300 q 394 195 376 176 q 413 272 413 214 z "},"石":{"ha":1350,"x_min":7,"x_max":1328,"o":"m 1328 1092 l 1328 792 l 657 792 q 633 731 647 761 q 604 672 619 701 l 1274 672 l 1274 -71 l 956 -71 l 956 -15 l 528 -15 l 528 -71 l 208 -71 l 208 239 q 129 183 168 208 q 54 139 90 158 l 54 138 l 7 504 q 115 567 58 525 q 225 668 172 610 q 313 792 278 726 l 53 792 l 53 1092 l 1328 1092 m 528 279 l 956 279 l 956 392 l 528 392 l 528 279 z "},"가":{"ha":1225,"x_min":13,"x_max":1213,"o":"m 1125 810 l 1213 810 l 1213 422 l 1125 422 l 1125 -58 l 750 -58 l 750 1142 l 1125 1142 l 1125 810 m 44 729 l 44 1104 l 713 1104 q 697 665 713 850 q 642 353 682 479 q 530 149 603 226 q 341 33 457 71 q 57 -11 225 -4 l 13 392 q 169 419 107 392 q 267 495 231 447 q 319 603 303 543 q 338 729 336 664 l 44 729 z "},"각":{"ha":1225,"x_min":19,"x_max":1213,"o":"m 1138 979 l 1213 979 l 1213 617 l 1138 617 l 1138 435 l 763 435 l 763 1142 l 1138 1142 l 1138 979 m 54 1122 l 732 1122 q 728 859 733 969 q 701 674 722 749 q 636 554 681 600 q 515 484 592 508 q 324 451 439 460 q 44 439 208 442 l 19 756 q 216 767 144 760 q 321 781 288 774 q 363 798 354 789 q 372 817 372 807 l 54 817 l 54 1122 m 750 72 l 63 72 l 63 404 l 1138 404 l 1138 -58 l 750 -58 l 750 72 z "},"간":{"ha":1225,"x_min":7,"x_max":1213,"o":"m 1138 1142 l 1138 944 l 1213 944 l 1213 582 l 1138 582 l 1138 322 l 763 322 l 763 1142 l 1138 1142 m 42 1122 l 732 1122 q 726 864 733 972 q 697 682 719 756 q 628 563 675 608 q 505 492 582 517 q 312 457 428 467 q 32 444 196 447 l 7 761 q 205 772 132 765 q 314 787 278 779 q 360 803 350 794 q 371 822 371 813 l 42 822 l 42 1122 m 50 410 l 450 410 l 450 272 l 1150 272 l 1150 -58 l 50 -58 l 50 410 z "},"갇":{"ha":1225,"x_min":19,"x_max":1213,"o":"m 1138 1142 l 1138 1001 l 1213 1001 l 1213 639 l 1138 639 l 1138 479 l 763 479 l 763 1142 l 1138 1142 m 54 1129 l 732 1129 q 728 883 733 986 q 701 711 722 781 q 635 599 679 642 q 514 533 590 556 q 323 501 438 510 q 44 489 208 492 l 19 793 q 216 802 144 797 q 321 813 288 807 q 363 825 354 818 q 372 842 372 832 l 54 842 l 54 1129 m 1138 249 l 444 249 l 444 208 l 1150 208 l 1150 -58 l 57 -58 l 57 449 l 1138 449 l 1138 249 z "},"갈":{"ha":1225,"x_min":13,"x_max":1213,"o":"m 1138 1142 l 1138 1017 l 1213 1017 l 1213 667 l 1138 667 l 1138 517 l 763 517 l 763 1142 l 1138 1142 m 47 1129 l 732 1129 q 727 895 733 993 q 699 731 721 797 q 631 624 676 664 q 510 562 586 583 q 317 531 433 540 q 38 519 201 522 l 13 818 q 210 827 138 822 q 318 838 283 832 q 363 850 353 843 q 372 867 372 857 l 47 867 l 47 1129 m 1139 269 l 1143 267 l 1178 -14 q 1122 -42 1172 -29 q 990 -63 1071 -54 q 809 -77 908 -72 q 605 -83 710 -82 q 402 -78 500 -83 q 226 -62 304 -74 q 103 -33 149 -51 q 57 10 57 -15 l 57 288 l 539 288 l 539 313 l 57 313 l 57 488 l 1138 488 l 1138 306 q 1090 274 1138 297 q 938 228 1043 251 q 656 197 832 206 l 656 172 q 892 194 800 179 q 1038 225 985 208 q 1113 255 1090 242 q 1139 269 1136 268 z "},"갉":{"ha":1225,"x_min":13,"x_max":1213,"o":"m 1138 1032 l 1213 1032 l 1213 669 l 1138 669 l 1138 532 l 775 532 l 775 1142 l 1138 1142 l 1138 1032 m 38 494 l 13 786 q 210 795 138 790 q 318 806 283 800 q 363 818 353 811 q 372 835 372 825 l 47 835 l 47 1122 l 744 1122 q 739 878 746 981 q 708 708 732 776 q 638 599 685 640 q 513 535 590 557 q 318 506 435 514 q 38 494 201 497 m 626 263 l 626 499 l 1138 499 l 1138 -58 l 750 -58 l 750 206 l 642 206 l 700 -28 q 624 -57 681 -44 q 494 -75 568 -69 q 341 -79 419 -81 q 194 -69 263 -78 q 84 -42 126 -60 q 42 4 42 -24 l 38 261 l 263 261 l 263 286 l 38 286 l 38 468 l 601 468 l 601 263 q 535 221 601 242 q 349 206 468 200 l 349 181 q 485 186 422 178 q 588 215 549 194 q 626 263 626 235 z "},"갊":{"ha":1225,"x_min":13,"x_max":1213,"o":"m 1138 1021 l 1213 1021 l 1213 658 l 1138 658 l 1138 524 l 775 524 l 775 1142 l 1138 1142 l 1138 1021 m 38 494 l 13 786 q 210 795 138 790 q 318 806 283 800 q 363 818 353 811 q 372 835 372 825 l 47 835 l 47 1122 l 744 1122 q 739 878 746 981 q 708 708 732 776 q 638 599 685 640 q 513 535 590 557 q 318 506 435 514 q 38 494 201 497 m 583 228 l 625 117 l 625 493 l 1138 493 l 1138 -58 l 644 -58 q 549 -78 607 -71 q 422 -86 490 -85 q 287 -83 354 -87 q 164 -68 219 -79 q 75 -39 108 -57 q 42 4 42 -21 l 38 249 l 263 249 l 263 274 l 38 274 l 38 456 l 583 456 l 583 263 q 557 244 583 260 q 478 216 531 229 q 344 206 425 203 l 344 181 q 469 188 418 178 q 548 212 519 199 q 582 229 576 225 l 583 228 m 888 319 l 863 319 l 863 169 l 888 169 l 888 319 z "},"갋":{"ha":1225,"x_min":13,"x_max":1213,"o":"m 1138 1024 l 1213 1024 l 1213 661 l 1138 661 l 1138 524 l 775 524 l 775 1142 l 1138 1142 l 1138 1024 m 38 494 l 13 786 q 210 795 138 790 q 318 806 283 800 q 363 818 353 811 q 372 835 372 825 l 47 835 l 47 1122 l 744 1122 q 739 878 746 981 q 708 708 732 776 q 638 599 685 640 q 513 535 590 557 q 318 506 435 514 q 38 494 201 497 m 839 411 l 888 411 l 888 493 l 1138 493 l 1138 -58 l 625 -58 q 532 -78 589 -71 q 409 -86 475 -85 q 278 -83 343 -87 q 160 -68 214 -79 q 74 -39 107 -57 q 42 4 42 -21 l 38 261 l 263 261 l 263 286 l 38 286 l 38 468 l 564 468 l 564 263 q 541 244 564 260 q 470 216 518 229 q 349 206 422 203 l 349 181 q 462 188 417 178 q 532 212 507 199 q 563 229 557 225 l 564 228 l 601 126 l 601 493 l 839 493 l 839 411 m 839 224 l 839 142 l 888 142 l 888 224 l 839 224 z "},"감":{"ha":1225,"x_min":13,"x_max":1213,"o":"m 1138 1004 l 1213 1004 l 1213 642 l 1138 642 l 1138 474 l 763 474 l 763 1142 l 1138 1142 l 1138 1004 m 47 1129 l 732 1129 q 727 878 733 983 q 699 703 721 774 q 631 588 676 632 q 510 521 586 544 q 317 488 433 497 q 38 476 201 479 l 13 786 q 210 795 138 790 q 318 806 283 800 q 363 818 353 811 q 372 835 372 825 l 47 835 l 47 1129 m 1138 -58 l 57 -58 l 57 443 l 1138 443 l 1138 -58 m 763 222 l 432 222 l 432 197 l 763 197 l 763 222 z "},"갑":{"ha":1225,"x_min":13,"x_max":1213,"o":"m 1138 1026 l 1213 1026 l 1213 664 l 1138 664 l 1138 519 l 763 519 l 763 1142 l 1138 1142 l 1138 1026 m 47 1132 l 732 1132 q 727 888 733 989 q 699 717 721 786 q 631 608 676 649 q 510 545 586 567 q 317 515 433 524 q 38 504 201 507 l 13 801 q 210 810 138 806 q 318 821 283 815 q 363 833 353 826 q 372 850 372 840 l 47 850 l 47 1132 m 450 394 l 750 394 l 750 486 l 1138 486 l 1138 -58 l 63 -58 l 63 474 l 450 474 l 450 394 m 450 219 l 450 167 l 750 167 l 750 219 l 450 219 z "},"값":{"ha":1225,"x_min":13,"x_max":1218,"o":"m 1213 651 l 1138 651 l 1138 499 l 763 499 l 763 1142 l 1138 1142 l 1138 1014 l 1213 1014 l 1213 651 m 47 1122 l 732 1122 q 727 873 733 976 q 699 700 721 769 q 631 588 676 631 q 510 524 586 546 q 317 493 433 501 q 38 482 201 485 l 13 786 q 210 795 138 790 q 318 806 283 800 q 363 818 353 811 q 372 835 372 825 l 47 835 l 47 1122 m 1031 303 q 1138 283 1088 297 q 1218 250 1188 269 l 1149 -72 q 1039 -42 1099 -53 q 904 -29 979 -32 l 925 85 q 815 -12 879 29 q 668 -76 751 -53 l 610 110 l 610 -58 l 49 -58 l 49 443 l 311 443 l 311 385 l 360 385 l 360 443 l 610 443 l 610 261 q 669 298 647 276 q 699 359 690 319 q 707 468 707 399 l 1044 468 q 1043 385 1046 426 q 1031 303 1040 343 m 311 197 l 311 142 l 360 142 l 360 197 l 311 197 z "},"갓":{"ha":1225,"x_min":13,"x_max":1213,"o":"m 1138 607 l 1138 385 l 815 385 q 810 359 814 372 q 804 332 807 346 q 1038 315 936 328 q 1186 282 1139 301 l 1129 -58 q 1031 -34 1100 -47 q 861 -11 961 -21 q 640 -1 761 -1 l 657 115 q 407 -23 556 28 q 86 -72 258 -74 l 50 271 q 172 287 110 275 q 288 321 233 299 q 381 378 342 343 q 432 463 419 413 l 763 463 l 763 1142 l 1138 1142 l 1138 969 l 1213 969 l 1213 607 l 1138 607 m 47 1122 l 732 1122 q 727 871 733 976 q 699 694 721 765 q 631 580 676 624 q 510 513 586 536 q 317 480 433 489 q 38 468 201 471 l 13 781 q 210 790 138 785 q 318 800 283 794 q 363 813 353 806 q 372 829 372 819 l 47 829 l 47 1122 z "},"갔":{"ha":1225,"x_min":13,"x_max":1213,"o":"m 1138 1142 l 1138 1013 l 1213 1013 l 1213 650 l 1138 650 l 1138 488 l 763 488 l 763 1142 l 1138 1142 m 38 474 l 13 786 q 210 795 138 790 q 318 806 283 800 q 363 818 353 811 q 372 835 372 825 l 47 835 l 47 1122 l 732 1122 q 727 872 733 976 q 699 696 721 767 q 631 582 676 625 q 510 516 586 539 q 317 485 433 493 q 38 474 201 476 m 603 463 l 989 463 q 974 319 993 394 q 1092 306 1035 315 q 1188 282 1149 297 l 1131 -71 q 1050 -49 1101 -60 q 937 -33 999 -39 q 817 -26 875 -26 l 832 90 q 678 -14 768 31 q 467 -81 588 -58 l 411 49 q 338 3 388 29 q 230 -47 289 -24 q 115 -81 171 -71 l 13 263 q 119 310 78 276 q 181 380 160 343 q 201 442 201 417 l 576 442 q 569 367 576 399 q 544 294 561 335 l 568 286 q 595 368 586 321 q 603 463 604 415 z "},"강":{"ha":1225,"x_min":13,"x_max":1213,"o":"m 1213 622 l 1138 622 l 1138 421 l 992 421 q 1122 337 1075 403 q 1169 182 1169 271 q 1100 -6 1169 61 q 924 -71 1031 -72 l 272 -71 q 147 -40 203 -71 q 59 47 92 -10 q 26 182 26 103 q 62 308 29 253 q 149 395 94 363 q 272 428 204 428 l 763 428 l 763 1142 l 1138 1142 l 1138 985 l 1213 985 l 1213 622 m 38 457 l 13 772 q 210 782 138 776 q 318 794 283 788 q 363 810 353 801 q 372 828 372 818 l 47 828 l 47 1121 l 732 1121 q 727 869 733 975 q 699 690 721 763 q 631 573 676 618 q 510 503 586 528 q 317 469 433 479 q 38 457 201 460 m 376 194 l 819 194 q 828 196 824 194 q 832 207 832 197 q 828 218 832 217 q 819 219 824 219 l 376 219 q 367 218 371 219 q 364 207 364 217 q 367 196 364 197 q 376 194 371 194 z "},"갖":{"ha":1225,"x_min":13,"x_max":1213,"o":"m 1138 1142 l 1138 1014 l 1213 1014 l 1213 651 l 1138 651 l 1138 499 l 763 499 l 763 1142 l 1138 1142 m 38 499 l 13 799 q 210 808 138 803 q 318 818 283 813 q 363 831 353 824 q 372 847 372 838 l 47 847 l 47 1129 l 732 1129 q 727 890 733 990 q 699 722 721 790 q 631 610 676 653 q 510 544 586 567 q 317 511 433 521 q 38 499 201 501 m 1138 293 l 825 293 q 817 276 821 285 q 807 257 813 267 q 1019 243 929 254 q 1157 215 1110 232 l 1111 -64 q 942 -31 1068 -47 q 635 -14 817 -14 l 647 93 q 385 -28 538 17 q 67 -72 232 -72 l 32 228 q 189 245 106 231 q 339 293 272 260 l 63 293 l 63 468 l 1138 468 l 1138 293 z "},"갗":{"ha":1225,"x_min":13,"x_max":1213,"o":"m 1213 639 l 1138 639 l 1138 475 l 819 475 l 819 436 l 1138 436 l 1138 281 l 797 281 q 782 246 793 264 q 1012 232 914 243 q 1157 203 1110 221 l 1111 -64 q 942 -31 1068 -47 q 635 -14 817 -14 l 649 93 q 397 -28 547 17 q 67 -72 247 -72 l 32 215 q 188 233 106 218 q 333 281 269 247 l 44 281 l 44 436 l 404 436 q 406 463 406 449 q 406 493 407 476 l 763 493 l 763 1142 l 1138 1142 l 1138 1001 l 1213 1001 l 1213 639 m 38 496 l 13 796 q 210 805 138 800 q 318 815 283 810 q 363 828 353 821 q 372 844 372 835 l 47 844 l 47 1126 l 732 1126 q 727 888 733 988 q 699 719 721 788 q 631 607 676 650 q 510 541 586 564 q 317 508 433 518 q 38 496 201 499 z "},"같":{"ha":1225,"x_min":19,"x_max":1213,"o":"m 1138 1142 l 1138 1001 l 1213 1001 l 1213 639 l 1138 639 l 1138 500 l 763 500 l 763 1142 l 1138 1142 m 54 1131 l 732 1131 q 728 886 733 988 q 701 717 722 785 q 635 609 679 650 q 514 547 590 568 q 323 518 438 526 q 44 507 208 510 l 19 806 q 216 815 144 810 q 321 825 288 819 q 363 838 354 831 q 372 854 372 844 l 54 854 l 54 1131 m 1125 185 l 444 185 l 444 154 l 1150 154 l 1150 -58 l 57 -58 l 57 472 l 1138 472 l 1138 322 l 444 322 l 444 292 l 1125 292 l 1125 185 z "},"갚":{"ha":1225,"x_min":13,"x_max":1213,"o":"m 1138 1142 l 1138 1022 l 1213 1022 l 1213 660 l 1138 660 l 1138 517 l 775 517 l 775 1142 l 1138 1142 m 47 1132 l 744 1132 q 740 888 746 989 q 711 721 733 788 q 642 614 689 654 q 518 553 596 574 q 322 526 440 533 q 38 517 204 519 l 13 810 q 218 819 143 814 q 328 828 293 824 q 374 840 364 833 q 385 854 385 846 l 47 854 l 47 1132 m 822 272 l 1063 235 l 1044 167 l 1150 167 l 1150 -71 l 47 -71 l 47 167 l 153 167 l 135 235 l 375 272 l 60 272 l 60 485 l 1138 485 l 1138 272 l 822 272 m 661 272 l 536 272 l 543 167 l 656 167 l 661 272 z "},"갛":{"ha":1225,"x_min":13,"x_max":1213,"o":"m 1138 665 l 1138 508 l 794 508 l 794 474 l 1150 474 l 1150 261 l 1071 261 q 1113 215 1099 246 q 1128 135 1128 185 q 1072 -15 1128 43 q 906 -71 1015 -72 l 293 -71 q 129 -12 185 -71 q 74 135 74 46 q 90 216 74 186 q 135 261 107 246 l 50 261 l 50 474 l 407 474 l 407 524 l 763 524 l 763 1142 l 1138 1142 l 1138 1028 l 1213 1028 l 1213 665 l 1138 665 m 47 1132 l 732 1132 q 727 894 733 993 q 699 729 721 794 q 631 625 676 664 q 510 566 586 586 q 317 539 433 546 q 38 529 201 532 l 13 819 q 210 828 138 824 q 318 838 283 833 q 363 849 353 843 q 372 863 372 854 l 47 863 l 47 1132 m 417 185 l 783 185 q 792 186 788 185 q 796 197 796 188 q 792 208 796 207 q 783 210 788 210 l 417 210 q 408 208 411 210 q 404 197 404 207 q 408 186 404 188 q 417 185 411 185 z "},"개":{"ha":1225,"x_min":13,"x_max":1200,"o":"m 925 785 l 925 1142 l 1200 1142 l 1200 -58 l 925 -58 l 925 397 l 875 397 l 875 -33 l 613 -33 l 613 1117 l 875 1117 l 875 785 l 925 785 m 58 704 l 58 1079 l 578 1079 q 565 648 578 825 q 517 355 551 471 q 424 169 483 239 q 274 62 364 100 q 57 1 185 24 l 13 392 q 178 493 121 410 q 240 704 235 576 l 58 704 z "},"객":{"ha":1225,"x_min":19,"x_max":1200,"o":"m 950 954 l 950 1142 l 1200 1142 l 1200 422 l 950 422 l 950 617 l 907 617 l 907 422 l 669 422 l 669 1129 l 907 1129 l 907 954 l 950 954 m 47 1104 l 638 1104 q 627 808 639 928 q 580 615 615 689 q 478 501 544 540 q 305 447 411 463 q 44 429 199 432 l 19 749 q 184 765 125 756 q 267 785 243 774 q 292 810 292 797 l 47 810 l 47 1104 m 813 60 l 75 60 l 75 392 l 1200 392 l 1200 -58 l 813 -58 l 813 60 z "},"갠":{"ha":1225,"x_min":19,"x_max":1213,"o":"m 950 592 l 907 592 l 907 342 l 669 342 l 669 1129 l 907 1129 l 907 929 l 950 929 l 950 1142 l 1200 1142 l 1200 317 l 950 317 l 950 592 m 47 1110 l 638 1110 q 627 814 639 933 q 580 620 615 694 q 478 507 544 546 q 305 453 411 468 q 44 435 199 438 l 19 756 q 184 772 125 763 q 267 792 243 781 q 292 817 292 804 l 47 817 l 47 1110 m 475 404 l 475 272 l 1213 272 l 1213 -58 l 75 -58 l 75 404 l 475 404 z "},"갣":{"ha":1225,"x_min":19,"x_max":1200,"o":"m 938 635 l 894 635 l 894 464 l 657 464 l 657 1129 l 894 1129 l 894 972 l 938 972 l 938 1142 l 1188 1142 l 1188 464 l 938 464 l 938 635 m 47 1117 l 625 1117 q 615 824 626 940 q 568 638 603 707 q 468 533 533 568 q 299 487 403 499 q 44 472 196 475 l 19 774 q 184 790 125 781 q 267 810 243 799 q 292 835 292 822 l 47 835 l 47 1117 m 444 242 l 444 204 l 1200 204 l 1200 -58 l 57 -58 l 57 436 l 1188 436 l 1188 242 l 444 242 z "},"갤":{"ha":1225,"x_min":19,"x_max":1213,"o":"m 922 661 l 879 661 l 879 507 l 642 507 l 642 1129 l 879 1129 l 879 999 l 922 999 l 922 1142 l 1172 1142 l 1172 507 l 922 507 l 922 661 m 47 1117 l 613 1117 q 603 837 614 947 q 560 660 593 726 q 463 562 526 594 q 298 518 400 529 q 44 504 196 507 l 19 793 q 224 815 168 803 q 279 847 279 828 l 47 847 l 47 1117 m 1174 269 l 1178 267 l 1213 -14 q 1155 -42 1207 -29 q 1021 -63 1103 -54 q 838 -77 939 -72 q 630 -83 736 -82 q 424 -78 524 -83 q 245 -62 325 -74 q 119 -33 165 -51 q 72 10 72 -15 l 72 288 l 556 288 l 556 313 l 72 313 l 72 475 l 1172 475 l 1172 306 q 1125 274 1172 297 q 972 228 1078 251 q 690 197 867 206 l 690 172 q 927 194 835 179 q 1072 225 1019 208 q 1148 255 1125 242 q 1174 269 1171 268 z "},"갬":{"ha":1225,"x_min":25,"x_max":1194,"o":"m 944 971 l 944 1142 l 1194 1142 l 1194 461 l 944 461 l 944 633 l 900 633 l 900 461 l 663 461 l 663 1129 l 900 1129 l 900 971 l 944 971 m 54 1114 l 632 1114 q 621 821 633 938 q 574 635 608 704 q 474 532 539 567 q 305 485 408 497 q 50 469 201 472 l 25 771 q 190 787 131 778 q 273 808 249 796 q 297 832 297 819 l 54 832 l 54 1114 m 1194 -58 l 69 -58 l 69 431 l 1194 431 l 1194 -58 m 819 217 l 444 217 l 444 192 l 819 192 l 819 217 z "},"갭":{"ha":1225,"x_min":25,"x_max":1194,"o":"m 944 994 l 944 1142 l 1194 1142 l 1194 507 l 944 507 l 944 657 l 900 657 l 900 507 l 663 507 l 663 1129 l 900 1129 l 900 994 l 944 994 m 54 1114 l 632 1114 q 621 833 633 944 q 574 656 608 722 q 474 556 539 589 q 305 510 408 522 q 50 494 201 497 l 25 783 q 190 799 131 790 q 273 820 249 808 q 297 844 297 832 l 54 844 l 54 1114 m 475 394 l 807 394 l 807 474 l 1194 474 l 1194 -58 l 88 -58 l 88 461 l 475 461 l 475 394 m 475 219 l 475 167 l 807 167 l 807 219 l 475 219 z "},"갯":{"ha":1225,"x_min":19,"x_max":1207,"o":"m 944 640 l 894 640 l 894 481 l 657 481 l 657 1129 l 894 1129 l 894 978 l 944 978 l 944 1142 l 1200 1142 l 1200 386 l 944 386 l 944 640 m 47 1110 l 625 1110 q 615 814 626 932 q 568 624 603 696 q 468 517 533 553 q 299 469 403 482 q 44 453 196 456 l 19 761 q 184 777 125 768 q 267 798 243 786 q 292 822 292 810 l 47 822 l 47 1110 m 819 332 q 1053 315 951 328 q 1207 282 1154 301 l 1149 -58 q 1045 -34 1117 -47 q 874 -11 974 -21 q 653 -1 774 -1 l 669 114 q 417 -23 567 28 q 92 -72 267 -74 l 56 258 q 222 286 139 264 q 367 349 306 308 q 444 450 428 390 l 832 450 q 819 332 835 389 z "},"갰":{"ha":1225,"x_min":19,"x_max":1201,"o":"m 988 319 q 1106 306 1049 315 q 1201 282 1163 297 l 1144 -71 q 1064 -49 1115 -60 q 951 -33 1013 -39 q 831 -26 889 -26 l 844 90 q 692 -14 782 31 q 481 -81 601 -58 l 425 49 q 352 3 401 29 q 244 -47 303 -24 q 129 -81 185 -71 l 26 263 q 133 310 92 276 q 194 380 174 343 q 215 442 215 417 l 590 442 q 583 367 590 399 q 558 294 575 335 l 582 286 q 609 368 600 321 q 617 463 618 415 l 938 463 l 938 661 l 894 661 l 894 497 l 657 497 l 657 1129 l 894 1129 l 894 999 l 938 999 l 938 1142 l 1188 1142 l 1188 400 l 1001 400 q 997 359 1000 379 q 988 319 993 339 m 44 464 l 19 781 q 159 790 107 785 q 236 800 211 794 q 269 813 261 806 q 279 829 278 819 l 47 829 l 47 1117 l 625 1117 q 619 851 626 960 q 592 671 613 742 q 531 559 571 600 q 427 499 492 518 q 268 473 363 479 q 44 464 174 467 z "},"갱":{"ha":1225,"x_min":19,"x_max":1207,"o":"m 1194 410 l 1029 410 q 1160 327 1113 392 q 1207 176 1207 263 q 1138 -6 1207 60 q 961 -71 1068 -72 l 285 -71 q 160 -41 215 -71 q 72 44 104 -11 q 39 176 39 100 q 74 298 42 244 q 162 384 107 351 q 285 417 217 417 l 944 417 l 944 633 l 900 633 l 900 449 l 663 449 l 663 1129 l 900 1129 l 900 971 l 944 971 l 944 1142 l 1194 1142 l 1194 410 m 44 453 l 19 761 q 184 777 125 768 q 267 798 243 786 q 292 822 292 810 l 47 822 l 47 1110 l 625 1110 q 615 814 626 932 q 568 624 603 696 q 468 517 533 553 q 299 469 403 482 q 44 453 196 456 m 389 188 l 857 188 q 865 189 861 188 q 869 200 869 190 q 865 211 869 210 q 857 213 861 213 l 389 213 q 380 211 383 213 q 376 200 376 210 q 380 189 376 190 q 389 188 383 188 z "},"갸":{"ha":1225,"x_min":13,"x_max":1213,"o":"m 1213 967 l 1213 617 l 1125 617 l 1125 529 l 1213 529 l 1213 179 l 1125 179 l 1125 -58 l 750 -58 l 750 1142 l 1125 1142 l 1125 967 l 1213 967 m 44 729 l 44 1104 l 713 1104 q 697 665 713 850 q 642 353 682 479 q 530 149 603 226 q 341 33 457 71 q 57 -11 225 -4 l 13 392 q 169 419 107 392 q 267 495 231 447 q 319 603 303 543 q 338 729 336 664 l 44 729 z "},"갹":{"ha":1225,"x_min":19,"x_max":1213,"o":"m 1213 1064 l 1213 826 l 1138 826 l 1138 769 l 1213 769 l 1213 532 l 1138 532 l 1138 435 l 763 435 l 763 1142 l 1138 1142 l 1138 1064 l 1213 1064 m 54 1122 l 732 1122 q 728 859 733 969 q 701 674 722 749 q 635 554 679 600 q 514 484 590 508 q 323 451 438 460 q 44 439 208 442 l 19 756 q 216 767 144 760 q 321 781 288 774 q 363 798 354 789 q 372 817 372 807 l 54 817 l 54 1122 m 750 72 l 63 72 l 63 404 l 1138 404 l 1138 -58 l 750 -58 l 750 72 z "},"갼":{"ha":1225,"x_min":7,"x_max":1213,"o":"m 1213 1035 l 1213 797 l 1138 797 l 1138 722 l 1213 722 l 1213 485 l 1138 485 l 1138 322 l 763 322 l 763 1142 l 1138 1142 l 1138 1035 l 1213 1035 m 42 1122 l 732 1122 q 726 864 733 972 q 697 682 719 756 q 628 563 675 608 q 505 492 582 517 q 312 457 428 467 q 32 444 196 447 l 7 761 q 206 772 132 765 q 315 787 279 779 q 362 803 351 794 q 372 822 372 813 l 42 822 l 42 1122 m 50 410 l 450 410 l 450 272 l 1150 272 l 1150 -58 l 50 -58 l 50 410 z "},"걀":{"ha":1225,"x_min":13,"x_max":1213,"o":"m 1213 1083 l 1213 858 l 1138 858 l 1138 808 l 1213 808 l 1213 583 l 1138 583 l 1138 517 l 763 517 l 763 1142 l 1138 1142 l 1138 1083 l 1213 1083 m 47 1129 l 732 1129 q 727 895 733 993 q 699 731 721 797 q 631 624 676 664 q 510 562 586 583 q 317 531 433 540 q 38 519 201 522 l 13 818 q 210 827 138 822 q 318 838 283 832 q 363 850 353 843 q 372 867 372 857 l 47 867 l 47 1129 m 1139 269 l 1143 267 l 1178 -14 q 1122 -42 1172 -29 q 990 -63 1071 -54 q 808 -77 908 -72 q 604 -83 708 -82 q 402 -78 500 -83 q 226 -62 304 -74 q 101 -33 147 -51 q 56 10 56 -15 l 56 288 l 538 288 l 538 313 l 56 313 l 56 488 l 1138 488 l 1138 306 q 1090 274 1138 297 q 938 228 1043 251 q 656 197 832 206 l 656 172 q 892 194 800 179 q 1038 225 985 208 q 1113 255 1090 242 q 1139 269 1136 268 z "},"걋":{"ha":1225,"x_min":13,"x_max":1213,"o":"m 1213 1022 l 1213 810 l 1138 810 l 1138 742 l 1213 742 l 1213 529 l 1138 529 l 1138 385 l 815 385 q 810 359 814 372 q 804 332 807 346 q 1038 315 936 328 q 1186 282 1139 301 l 1129 -58 q 1031 -34 1100 -47 q 861 -11 961 -21 q 640 -1 761 -1 l 657 115 q 407 -23 556 28 q 86 -72 258 -74 l 50 271 q 172 287 110 275 q 288 321 233 299 q 381 378 342 343 q 432 463 419 413 l 763 463 l 763 1142 l 1138 1142 l 1138 1022 l 1213 1022 m 47 1122 l 732 1122 q 727 871 733 976 q 699 694 721 765 q 631 580 676 624 q 510 513 586 536 q 317 480 433 489 q 38 468 201 471 l 13 781 q 210 790 138 785 q 318 800 283 794 q 363 813 353 806 q 372 829 372 819 l 47 829 l 47 1122 z "},"걍":{"ha":1225,"x_min":13,"x_max":1213,"o":"m 1213 1061 l 1213 824 l 1138 824 l 1138 765 l 1213 765 l 1213 528 l 1138 528 l 1138 421 l 992 421 q 1122 337 1075 403 q 1169 182 1169 271 q 1100 -6 1169 61 q 924 -71 1031 -72 l 272 -71 q 147 -40 203 -71 q 59 47 92 -10 q 26 182 26 103 q 62 308 29 253 q 149 395 94 363 q 272 428 204 428 l 763 428 l 763 1142 l 1138 1142 l 1138 1061 l 1213 1061 m 38 457 l 13 772 q 210 782 138 776 q 318 794 283 788 q 363 810 353 801 q 372 828 372 818 l 47 828 l 47 1121 l 732 1121 q 727 869 733 975 q 699 690 721 763 q 631 573 676 618 q 510 503 586 528 q 317 469 433 479 q 38 457 201 460 m 376 194 l 819 194 q 828 196 824 194 q 832 207 832 197 q 828 218 832 217 q 819 219 824 219 l 376 219 q 367 218 371 219 q 364 207 364 217 q 367 196 364 197 q 376 194 371 194 z "},"걔":{"ha":1225,"x_min":13,"x_max":1200,"o":"m 925 956 l 925 1142 l 1200 1142 l 1200 -58 l 925 -58 l 925 206 l 875 206 l 875 -33 l 613 -33 l 613 1117 l 875 1117 l 875 956 l 925 956 m 58 704 l 58 1079 l 578 1079 q 565 648 578 825 q 517 355 551 471 q 424 169 483 239 q 274 62 364 100 q 57 1 185 24 l 13 392 q 178 493 121 410 q 240 704 235 576 l 58 704 m 875 656 l 875 506 l 925 506 l 925 656 l 875 656 z "},"걘":{"ha":1225,"x_min":19,"x_max":1200,"o":"m 938 504 l 894 504 l 894 342 l 657 342 l 657 1129 l 894 1129 l 894 1035 l 938 1035 l 938 1142 l 1188 1142 l 1188 317 l 938 317 l 938 504 m 47 1110 l 625 1110 q 615 814 626 933 q 568 620 603 694 q 468 507 533 546 q 299 453 403 468 q 44 435 196 438 l 19 756 q 184 772 125 763 q 267 792 243 781 q 292 817 292 804 l 47 817 l 47 1110 m 938 717 l 938 822 l 894 822 l 894 717 l 938 717 m 475 404 l 475 272 l 1200 272 l 1200 -58 l 75 -58 l 75 404 l 475 404 z "},"걜":{"ha":1225,"x_min":19,"x_max":1213,"o":"m 922 574 l 879 574 l 879 507 l 642 507 l 642 1129 l 879 1129 l 879 1068 l 922 1068 l 922 1142 l 1172 1142 l 1172 507 l 922 507 l 922 574 m 47 1117 l 613 1117 q 603 837 614 947 q 560 660 593 726 q 463 562 526 594 q 298 518 400 529 q 44 504 196 507 l 19 793 q 224 815 168 803 q 279 847 279 828 l 47 847 l 47 1117 m 922 786 l 922 856 l 879 856 l 879 786 l 922 786 m 1174 269 l 1176 267 l 1213 -14 q 1155 -42 1207 -29 q 1021 -63 1103 -54 q 838 -77 939 -72 q 630 -83 736 -82 q 424 -78 524 -83 q 245 -62 325 -74 q 119 -33 165 -51 q 72 10 72 -15 l 72 288 l 556 288 l 556 313 l 72 313 l 72 475 l 1172 475 l 1172 306 q 1125 274 1172 297 q 972 228 1078 251 q 690 197 867 206 l 690 172 q 927 194 835 179 q 1072 225 1019 208 q 1148 255 1125 242 q 1174 269 1171 268 z "},"걥":{"ha":1225,"x_min":25,"x_max":1194,"o":"m 944 1067 l 944 1142 l 1194 1142 l 1194 507 l 944 507 l 944 579 l 900 579 l 900 507 l 663 507 l 663 1129 l 900 1129 l 900 1067 l 944 1067 m 54 1114 l 632 1114 q 621 833 633 944 q 574 656 608 722 q 474 556 539 589 q 305 510 408 522 q 50 494 201 497 l 25 783 q 190 799 131 790 q 273 820 249 808 q 297 844 297 832 l 54 844 l 54 1114 m 900 854 l 900 792 l 944 792 l 944 854 l 900 854 m 475 394 l 807 394 l 807 474 l 1194 474 l 1194 -58 l 88 -58 l 88 461 l 475 461 l 475 394 m 475 219 l 475 167 l 807 167 l 807 219 l 475 219 z "},"거":{"ha":1225,"x_min":13,"x_max":1200,"o":"m 825 810 l 825 1142 l 1200 1142 l 1200 -58 l 825 -58 l 825 422 l 682 422 q 570 181 644 271 q 374 50 496 92 q 71 0 253 8 l 57 1 l 13 404 q 220 449 144 404 q 328 569 296 494 q 363 729 360 643 l 57 729 l 57 1104 l 738 1104 q 736 950 738 1024 q 732 810 735 876 l 825 810 z "},"걱":{"ha":1225,"x_min":32,"x_max":1194,"o":"m 819 979 l 819 1142 l 1194 1142 l 1194 435 l 819 435 l 819 617 l 696 617 q 584 506 660 543 q 381 455 508 468 q 57 439 253 442 l 32 756 q 233 767 160 760 q 340 781 306 774 q 383 798 374 789 q 392 817 392 807 l 67 817 l 67 1122 l 750 1122 l 750 979 l 819 979 m 807 72 l 82 72 l 82 404 l 1194 404 l 1194 -58 l 807 -58 l 807 72 z "},"건":{"ha":1225,"x_min":19,"x_max":1200,"o":"m 813 594 l 668 594 q 548 503 625 535 q 348 459 471 471 q 44 444 225 447 l 19 761 q 218 772 144 765 q 328 787 292 779 q 374 803 364 794 q 385 822 385 813 l 54 822 l 54 1122 l 744 1122 q 744 1035 744 1076 q 743 957 744 994 l 813 957 l 813 1142 l 1188 1142 l 1188 322 l 813 322 l 813 594 m 475 410 l 475 272 l 1200 272 l 1200 -58 l 75 -58 l 75 410 l 475 410 z "},"걷":{"ha":1225,"x_min":25,"x_max":1194,"o":"m 674 639 q 559 547 635 578 q 360 503 483 515 q 50 489 236 492 l 25 793 q 222 802 150 797 q 328 813 294 807 q 370 825 361 818 q 379 842 379 832 l 60 842 l 60 1129 l 738 1129 l 738 1001 l 807 1001 l 807 1142 l 1182 1142 l 1182 479 l 807 479 l 807 639 l 674 639 m 463 249 l 463 208 l 1194 208 l 1194 -58 l 75 -58 l 75 449 l 1182 449 l 1182 249 l 463 249 z "},"걸":{"ha":1225,"x_min":17,"x_max":1213,"o":"m 797 667 l 668 667 q 554 576 629 607 q 355 535 479 546 q 42 519 231 524 l 17 818 q 208 827 138 822 q 311 838 278 832 q 354 850 344 843 q 364 867 364 857 l 51 867 l 51 1129 l 729 1129 l 729 1017 l 797 1017 l 797 1142 l 1172 1142 l 1172 517 l 797 517 l 797 667 m 1174 269 l 1176 267 l 1213 -14 q 1155 -42 1207 -29 q 1021 -63 1103 -54 q 838 -77 939 -72 q 630 -83 736 -82 q 424 -78 524 -83 q 245 -62 325 -74 q 119 -33 165 -51 q 72 10 72 -15 l 72 288 l 556 288 l 556 313 l 72 313 l 72 488 l 1172 488 l 1172 306 q 1125 274 1172 297 q 972 228 1078 251 q 690 197 867 206 l 690 172 q 927 194 835 179 q 1072 225 1019 208 q 1148 255 1125 242 q 1174 269 1171 268 z "},"걺":{"ha":1225,"x_min":38,"x_max":1188,"o":"m 825 1019 l 825 1142 l 1188 1142 l 1188 524 l 825 524 l 825 657 l 703 657 q 590 555 665 589 q 387 510 515 521 q 63 494 258 499 l 38 786 q 235 795 163 790 q 343 806 308 800 q 388 818 378 811 q 397 835 397 825 l 72 835 l 72 1122 l 757 1122 l 757 1019 l 825 1019 m 633 228 l 675 117 l 675 493 l 1188 493 l 1188 -58 l 694 -58 q 597 -78 657 -71 q 468 -86 538 -85 q 330 -83 399 -87 q 204 -68 261 -79 q 113 -39 147 -57 q 79 4 79 -21 l 75 249 l 300 249 l 300 274 l 75 274 l 75 456 l 633 456 l 633 263 q 607 244 633 260 q 528 216 581 229 q 394 206 475 203 l 394 181 q 519 188 468 178 q 598 212 569 199 q 632 229 626 225 l 633 228 m 938 319 l 913 319 l 913 169 l 938 169 l 938 319 z "},"검":{"ha":1225,"x_min":32,"x_max":1188,"o":"m 813 1004 l 813 1142 l 1188 1142 l 1188 474 l 813 474 l 813 642 l 692 642 q 577 539 653 574 q 375 492 501 504 q 57 476 249 479 l 32 786 q 230 795 157 790 q 338 806 303 800 q 382 818 372 811 q 392 835 392 825 l 67 835 l 67 1129 l 750 1129 l 750 1004 l 813 1004 m 1188 -58 l 88 -58 l 88 443 l 1188 443 l 1188 -58 m 813 222 l 463 222 l 463 197 l 813 197 l 813 222 z "},"겁":{"ha":1225,"x_min":25,"x_max":1188,"o":"m 813 1026 l 813 1142 l 1188 1142 l 1188 519 l 813 519 l 813 664 l 689 664 q 576 564 651 597 q 372 519 500 531 q 50 504 244 507 l 25 801 q 223 810 150 806 q 331 821 296 815 q 375 833 365 826 q 385 850 385 840 l 60 850 l 60 1132 l 744 1132 l 744 1026 l 813 1026 m 457 394 l 800 394 l 800 486 l 1188 486 l 1188 -58 l 69 -58 l 69 474 l 457 474 l 457 394 m 457 219 l 457 167 l 800 167 l 800 219 l 457 219 z "},"겂":{"ha":1225,"x_min":13,"x_max":1219,"o":"m 788 651 l 671 651 q 563 545 636 581 q 362 498 489 510 q 38 482 235 486 l 13 786 q 210 795 138 790 q 318 806 283 800 q 363 818 353 811 q 372 835 372 825 l 47 835 l 47 1122 l 719 1122 l 719 1014 l 788 1014 l 788 1142 l 1163 1142 l 1163 499 l 788 499 l 788 651 m 1043 301 q 1144 282 1096 296 q 1219 250 1192 268 l 1151 -72 q 1042 -42 1101 -53 q 907 -29 982 -32 l 925 71 q 819 -17 881 21 q 681 -76 758 -56 l 622 110 l 622 -58 l 61 -58 l 61 443 l 324 443 l 324 385 l 372 385 l 372 443 l 622 443 l 622 261 q 681 298 660 276 q 711 359 703 319 q 719 468 719 399 l 1057 468 q 1056 385 1058 426 q 1043 301 1053 343 m 324 197 l 324 142 l 372 142 l 372 197 l 324 197 z "},"것":{"ha":1225,"x_min":25,"x_max":1199,"o":"m 817 332 q 1050 315 949 328 q 1199 282 1151 301 l 1142 -58 q 1043 -34 1113 -47 q 874 -11 974 -21 q 653 -1 774 -1 l 669 115 q 419 -23 568 28 q 99 -72 271 -74 l 63 271 q 184 287 122 275 q 300 321 246 299 q 393 378 354 343 q 444 463 432 413 l 813 463 l 813 607 l 669 607 q 550 522 626 551 q 351 482 474 493 q 50 468 229 471 l 25 781 q 223 790 150 785 q 331 800 296 794 q 375 813 365 806 q 385 829 385 819 l 60 829 l 60 1122 l 744 1122 l 744 969 l 813 969 l 813 1142 l 1188 1142 l 1188 385 l 828 385 q 823 359 826 372 q 817 332 819 346 z "},"겄":{"ha":1225,"x_min":25,"x_max":1200,"o":"m 50 474 l 25 786 q 223 795 150 790 q 331 806 296 800 q 375 818 365 811 q 385 835 385 825 l 60 835 l 60 1122 l 732 1122 l 732 1013 l 800 1013 l 800 1142 l 1175 1142 l 1175 488 l 800 488 l 800 650 l 685 650 q 577 540 650 576 q 376 490 504 503 q 50 474 249 478 m 986 319 q 1104 306 1047 315 q 1200 282 1161 297 l 1143 -71 q 1063 -49 1114 -60 q 949 -33 1011 -39 q 829 -26 888 -26 l 844 90 q 690 -14 781 31 q 479 -81 600 -58 l 424 49 q 351 3 400 29 q 242 -47 301 -24 q 128 -81 183 -71 l 25 263 q 131 310 90 276 q 193 380 172 343 q 214 442 214 417 l 589 442 q 581 367 589 399 q 557 294 574 335 l 581 286 q 608 368 599 321 q 615 463 617 415 l 1001 463 q 986 319 1006 394 z "},"겅":{"ha":1225,"x_min":25,"x_max":1200,"o":"m 1188 421 l 1022 421 q 1153 337 1106 403 q 1200 182 1200 271 q 1131 -6 1200 61 q 956 -71 1061 -72 l 296 -71 q 171 -40 226 -71 q 83 47 115 -10 q 50 182 50 103 q 85 308 53 253 q 173 395 118 363 q 296 428 228 428 l 813 428 l 813 622 l 682 622 q 567 521 643 556 q 366 473 492 486 q 50 457 240 460 l 25 772 q 223 782 150 776 q 331 794 296 788 q 375 810 365 801 q 385 828 385 818 l 60 828 l 60 1121 l 744 1121 l 744 985 l 813 985 l 813 1142 l 1188 1142 l 1188 421 m 400 194 l 851 194 q 860 196 856 194 q 864 207 864 197 q 860 218 864 217 q 851 219 856 219 l 400 219 q 392 218 396 219 q 388 207 388 217 q 392 196 388 197 q 400 194 396 194 z "},"겆":{"ha":1225,"x_min":25,"x_max":1194,"o":"m 800 651 l 671 651 q 559 558 633 590 q 361 515 485 526 q 50 499 238 503 l 25 801 q 223 810 150 806 q 331 820 296 815 q 375 831 365 825 q 385 844 385 836 l 60 844 l 60 1129 l 732 1129 l 732 1014 l 800 1014 l 800 1142 l 1175 1142 l 1175 499 l 800 499 l 800 651 m 844 257 q 1057 243 967 254 q 1194 215 1147 232 l 1149 -64 q 980 -31 1106 -47 q 672 -14 854 -14 l 685 93 q 422 -28 575 17 q 104 -72 269 -72 l 69 228 q 226 245 143 231 q 376 293 310 260 l 88 293 l 88 468 l 1175 468 l 1175 293 l 863 293 q 854 276 858 285 q 844 257 850 267 z "},"겉":{"ha":1225,"x_min":32,"x_max":1200,"o":"m 813 639 l 674 639 q 558 557 633 585 q 361 519 483 529 q 57 507 239 510 l 32 806 q 228 815 157 810 q 333 825 300 819 q 376 838 367 831 q 385 854 385 844 l 67 854 l 67 1131 l 744 1131 l 744 1001 l 813 1001 l 813 1142 l 1188 1142 l 1188 500 l 813 500 l 813 639 m 475 185 l 475 154 l 1200 154 l 1200 -58 l 88 -58 l 88 472 l 1188 472 l 1188 322 l 475 322 l 475 292 l 1175 292 l 1175 185 l 475 185 z "},"겊":{"ha":1225,"x_min":32,"x_max":1194,"o":"m 819 647 l 682 647 q 564 565 640 592 q 364 528 488 538 q 57 517 240 519 l 32 810 q 230 819 157 814 q 338 828 303 824 q 382 840 372 833 q 392 854 392 846 l 67 854 l 67 1132 l 750 1132 l 750 1010 l 819 1010 l 819 1142 l 1182 1142 l 1182 517 l 819 517 l 819 647 m 1100 235 l 1082 167 l 1194 167 l 1194 -71 l 79 -71 l 79 167 l 190 167 l 172 235 l 413 272 l 92 272 l 92 485 l 1182 485 l 1182 272 l 860 272 l 1100 235 m 699 272 l 574 272 l 581 167 l 693 167 l 699 272 z "},"겋":{"ha":1225,"x_min":32,"x_max":1182,"o":"m 1182 1142 l 1182 508 l 819 508 l 819 474 l 1182 474 l 1182 261 l 1103 261 q 1144 215 1129 246 q 1158 135 1158 185 q 1102 -15 1158 43 q 936 -71 1046 -72 l 311 -71 q 149 -12 204 -71 q 93 135 93 46 q 110 216 93 186 q 154 261 126 246 l 69 261 l 69 474 l 432 474 l 432 524 l 807 524 l 807 665 l 679 665 q 567 579 642 607 q 369 542 493 551 q 57 529 244 532 l 32 819 q 230 828 157 824 q 338 838 303 833 q 382 849 372 843 q 392 863 392 854 l 67 863 l 67 1132 l 738 1132 l 738 1028 l 807 1028 l 807 1142 l 1182 1142 m 435 185 l 815 185 q 823 186 818 185 q 828 197 828 188 q 823 208 828 207 q 815 210 818 210 l 435 210 q 426 208 431 210 q 422 197 422 207 q 426 186 422 188 q 435 185 431 185 z "},"게":{"ha":1225,"x_min":13,"x_max":1200,"o":"m 925 -58 l 925 1142 l 1200 1142 l 1200 -58 l 925 -58 m 571 756 l 625 756 l 625 1117 l 888 1117 l 888 -33 l 625 -33 l 625 406 l 531 406 q 440 188 499 268 q 287 67 381 108 q 57 1 193 25 l 13 392 q 178 493 121 410 q 240 704 235 576 l 58 704 l 58 1079 l 578 1079 q 576 907 578 988 q 571 756 575 826 z "},"겍":{"ha":1225,"x_min":13,"x_max":1200,"o":"m 950 422 l 950 1142 l 1200 1142 l 1200 422 l 950 422 m 682 617 l 563 617 q 463 502 528 542 q 294 447 397 463 q 38 429 190 432 l 13 749 q 177 765 118 756 q 260 785 236 774 q 285 810 285 797 l 42 810 l 42 1104 l 619 1104 q 619 1026 619 1064 q 618 954 619 989 l 682 954 l 682 1129 l 919 1129 l 919 422 l 682 422 l 682 617 m 813 60 l 75 60 l 75 392 l 1200 392 l 1200 -58 l 813 -58 l 813 60 z "},"겐":{"ha":1225,"x_min":19,"x_max":1213,"o":"m 950 1142 l 1200 1142 l 1200 317 l 950 317 l 950 1142 m 682 592 l 560 592 q 459 497 524 529 q 293 451 394 464 q 44 435 192 438 l 19 756 q 184 772 125 763 q 267 792 243 781 q 292 817 292 804 l 47 817 l 47 1110 l 625 1110 q 625 1015 625 1061 q 624 929 625 969 l 682 929 l 682 1129 l 919 1129 l 919 342 l 682 342 l 682 592 m 475 404 l 475 272 l 1213 272 l 1213 -58 l 75 -58 l 75 404 l 475 404 z "},"겔":{"ha":1225,"x_min":17,"x_max":1213,"o":"m 922 1142 l 1172 1142 l 1172 507 l 922 507 l 922 1142 m 654 661 l 550 661 q 457 562 518 594 q 294 518 396 529 q 42 504 193 507 l 17 793 q 221 815 165 803 q 276 847 276 828 l 44 847 l 44 1117 l 597 1117 l 597 999 l 654 999 l 654 1129 l 892 1129 l 892 507 l 654 507 l 654 661 m 1174 269 l 1176 267 l 1213 -14 q 1155 -42 1207 -29 q 1021 -63 1103 -54 q 838 -77 939 -72 q 630 -83 736 -82 q 424 -78 524 -83 q 245 -62 325 -74 q 119 -33 165 -51 q 72 10 72 -15 l 72 288 l 556 288 l 556 313 l 72 313 l 72 475 l 1172 475 l 1172 306 q 1125 274 1172 297 q 972 228 1078 251 q 690 197 867 206 l 690 172 q 927 194 835 179 q 1072 225 1019 208 q 1148 255 1125 242 q 1174 269 1171 268 z "},"겜":{"ha":1225,"x_min":25,"x_max":1194,"o":"m 944 461 l 944 1142 l 1194 1142 l 1194 461 l 944 461 m 675 633 l 565 633 q 469 530 532 564 q 303 485 406 496 q 50 469 201 474 l 25 771 q 190 787 131 778 q 273 808 249 796 q 297 832 297 819 l 54 832 l 54 1114 l 619 1114 q 619 1040 619 1075 q 618 971 619 1004 l 675 971 l 675 1129 l 913 1129 l 913 461 l 675 461 l 675 633 m 1194 -58 l 69 -58 l 69 431 l 1194 431 l 1194 -58 m 819 217 l 444 217 l 444 192 l 819 192 l 819 217 z "},"겝":{"ha":1225,"x_min":25,"x_max":1194,"o":"m 944 507 l 944 1142 l 1194 1142 l 1194 507 l 944 507 m 675 657 l 568 657 q 471 555 535 589 q 305 510 407 521 q 50 494 203 499 l 25 783 q 190 799 131 790 q 273 820 249 808 q 297 844 297 832 l 54 844 l 54 1114 l 619 1114 l 619 994 l 675 994 l 675 1129 l 913 1129 l 913 507 l 675 507 l 675 657 m 475 394 l 807 394 l 807 474 l 1194 474 l 1194 -58 l 88 -58 l 88 461 l 475 461 l 475 394 m 475 219 l 475 167 l 807 167 l 807 219 l 475 219 z "},"겟":{"ha":1225,"x_min":19,"x_max":1207,"o":"m 944 1142 l 1200 1142 l 1200 386 l 944 386 l 944 1142 m 675 640 l 569 640 q 472 522 536 561 q 303 469 407 483 q 44 453 199 456 l 19 761 q 184 777 125 768 q 267 798 243 786 q 292 822 292 810 l 47 822 l 47 1110 l 619 1110 q 619 1042 619 1075 q 618 978 619 1010 l 675 978 l 675 1129 l 913 1129 l 913 481 l 675 481 l 675 640 m 819 332 q 1053 315 951 328 q 1207 282 1154 301 l 1149 -58 q 1045 -34 1117 -47 q 874 -11 974 -21 q 653 -1 774 -1 l 669 114 q 417 -23 567 28 q 92 -72 267 -74 l 56 258 q 222 286 139 264 q 367 349 306 308 q 444 450 428 390 l 832 450 q 819 332 835 389 z "},"겠":{"ha":1225,"x_min":13,"x_max":1201,"o":"m 988 319 q 1106 306 1049 315 q 1201 282 1163 297 l 1144 -71 q 1064 -49 1115 -60 q 951 -33 1013 -39 q 831 -26 889 -26 l 844 90 q 692 -14 782 31 q 481 -81 601 -58 l 425 49 q 352 3 401 29 q 244 -47 303 -24 q 129 -81 185 -71 l 26 263 q 133 310 92 276 q 194 380 174 343 q 215 442 215 417 l 590 442 q 583 367 590 399 q 558 294 575 335 l 582 286 q 609 368 600 321 q 617 463 618 415 l 944 463 l 944 1142 l 1194 1142 l 1194 400 l 1001 400 q 997 359 1000 379 q 988 319 993 339 m 38 464 l 13 781 q 152 790 100 785 q 229 800 204 794 q 263 813 254 806 q 272 829 271 819 l 42 829 l 42 1117 l 607 1117 l 607 999 l 675 999 l 675 1129 l 913 1129 l 913 497 l 675 497 l 675 661 l 574 661 q 515 554 553 593 q 413 497 476 515 q 258 472 350 478 q 38 464 165 467 z "},"겡":{"ha":1225,"x_min":19,"x_max":1207,"o":"m 1194 410 l 1029 410 q 1160 327 1113 392 q 1207 176 1207 263 q 1138 -6 1207 60 q 961 -71 1068 -72 l 285 -71 q 160 -41 215 -71 q 72 44 104 -11 q 39 176 39 100 q 74 298 42 244 q 162 384 107 351 q 285 417 217 417 l 944 417 l 944 1142 l 1194 1142 l 1194 410 m 44 453 l 19 761 q 184 777 125 768 q 267 798 243 786 q 292 822 292 810 l 47 822 l 47 1110 l 613 1110 l 613 971 l 675 971 l 675 1129 l 913 1129 l 913 449 l 675 449 l 675 633 l 564 633 q 469 520 532 558 q 302 469 406 482 q 44 453 199 456 m 389 188 l 857 188 q 865 189 861 188 q 869 200 869 190 q 865 211 869 210 q 857 213 861 213 l 389 213 q 380 211 383 213 q 376 200 376 210 q 380 189 376 190 q 389 188 383 188 z "},"겨":{"ha":1225,"x_min":13,"x_max":1200,"o":"m 825 982 l 825 1142 l 1200 1142 l 1200 -58 l 825 -58 l 825 219 l 693 219 l 693 464 q 583 199 657 297 q 385 55 510 100 q 71 0 261 10 l 57 1 l 13 404 q 220 449 144 404 q 328 569 296 494 q 363 729 360 643 l 57 729 l 57 1104 l 738 1104 q 738 1041 738 1072 q 736 982 738 1010 l 825 982 m 708 557 l 825 557 l 825 644 l 719 644 l 708 557 z "},"격":{"ha":1225,"x_min":32,"x_max":1194,"o":"m 819 1038 l 819 1142 l 1194 1142 l 1194 435 l 819 435 l 819 538 l 713 538 l 713 656 q 642 545 689 588 q 520 481 596 503 q 331 450 444 458 q 57 439 217 442 l 32 756 q 233 767 160 760 q 340 781 306 774 q 383 798 374 789 q 392 817 392 807 l 67 817 l 67 1122 l 750 1122 l 750 1038 l 819 1038 m 735 750 l 819 750 l 819 825 l 744 825 q 740 787 743 806 q 735 750 738 768 m 807 72 l 82 72 l 82 404 l 1194 404 l 1194 -58 l 807 -58 l 807 72 z "},"겪":{"ha":1225,"x_min":38,"x_max":1189,"o":"m 725 568 l 725 683 q 658 566 703 610 q 537 499 614 522 q 344 468 460 476 q 63 457 228 460 l 38 768 q 235 777 163 772 q 343 788 308 782 q 388 800 378 793 q 397 817 397 807 l 72 817 l 72 1117 l 757 1117 l 757 1056 l 825 1056 l 825 1142 l 1188 1142 l 1188 474 l 825 474 l 825 568 l 725 568 m 744 781 l 825 781 l 825 843 l 751 843 q 749 810 750 825 q 744 781 747 796 m 650 443 l 1188 443 q 1186 227 1189 317 q 1162 79 1183 138 q 1087 -12 1140 21 q 935 -59 1033 -46 q 681 -71 838 -72 l 619 124 l 619 -58 l 232 -58 l 232 118 l 88 118 l 88 418 l 619 418 l 619 168 q 744 172 703 168 q 799 185 785 176 q 813 206 813 193 l 650 206 l 650 443 z "},"견":{"ha":1225,"x_min":19,"x_max":1200,"o":"m 713 494 l 713 692 q 644 566 690 614 q 522 492 599 518 q 327 457 444 467 q 44 444 210 447 l 19 761 q 218 772 144 765 q 328 787 292 779 q 374 803 364 794 q 385 822 385 813 l 54 822 l 54 1122 l 744 1122 l 744 1044 l 813 1044 l 813 1142 l 1188 1142 l 1188 322 l 813 322 l 813 494 l 713 494 m 813 732 l 813 807 l 733 807 q 729 769 732 788 q 722 732 726 750 l 813 732 m 475 410 l 475 272 l 1200 272 l 1200 -58 l 75 -58 l 75 410 l 475 410 z "},"겯":{"ha":1225,"x_min":25,"x_max":1194,"o":"m 707 561 l 707 710 q 640 597 685 640 q 519 531 594 554 q 328 500 443 508 q 50 489 213 492 l 25 793 q 222 802 150 797 q 328 813 294 807 q 370 825 361 818 q 379 842 379 832 l 60 842 l 60 1129 l 738 1129 l 738 1049 l 807 1049 l 807 1142 l 1182 1142 l 1182 479 l 807 479 l 807 561 l 707 561 m 807 774 l 807 836 l 731 836 q 726 804 729 819 q 721 774 724 789 l 807 774 m 463 249 l 463 208 l 1194 208 l 1194 -58 l 75 -58 l 75 449 l 1182 449 l 1182 249 l 463 249 z "},"결":{"ha":1225,"x_min":13,"x_max":1213,"o":"m 700 582 l 700 733 q 633 624 678 665 q 512 561 589 583 q 319 531 435 539 q 38 519 203 522 l 13 818 q 210 827 138 822 q 318 838 283 832 q 363 850 353 843 q 372 867 372 857 l 47 867 l 47 1129 l 732 1129 l 732 1069 l 800 1069 l 800 1142 l 1175 1142 l 1175 517 l 800 517 l 800 582 l 700 582 m 715 794 l 800 794 l 800 857 l 724 857 q 720 825 722 840 q 715 794 718 810 m 1174 269 l 1176 267 l 1213 -14 q 1155 -42 1207 -29 q 1021 -63 1103 -54 q 838 -77 939 -72 q 630 -83 736 -82 q 424 -78 524 -83 q 245 -62 325 -74 q 119 -33 165 -51 q 72 10 72 -15 l 72 288 l 556 288 l 556 313 l 72 313 l 72 488 l 1172 488 l 1172 306 q 1125 274 1172 297 q 972 228 1078 251 q 690 197 867 206 l 690 172 q 927 194 835 179 q 1072 225 1019 208 q 1148 255 1125 242 q 1174 269 1171 268 z "},"겷":{"ha":1225,"x_min":22,"x_max":1203,"o":"m 710 581 l 710 713 q 643 600 688 642 q 522 536 599 558 q 328 506 444 514 q 47 494 213 497 l 22 786 q 220 795 147 790 q 328 806 293 800 q 372 818 363 811 q 382 835 382 825 l 57 835 l 57 1122 l 742 1122 l 742 1068 l 810 1068 l 810 1142 l 1172 1142 l 1172 518 l 810 518 l 810 581 l 710 581 m 728 793 l 810 793 l 810 856 l 735 856 q 732 823 733 838 q 728 793 731 808 m 1069 443 l 1203 443 l 1203 261 l 1157 261 q 1189 213 1176 243 q 1201 135 1201 183 q 1159 -8 1201 43 q 1017 -58 1117 -60 l 767 -58 q 699 -42 731 -58 q 622 -69 678 -58 q 494 -84 567 -79 q 344 -85 421 -89 q 202 -72 268 -82 q 95 -42 136 -61 q 54 4 54 -24 l 50 261 l 275 261 l 275 286 l 50 286 l 50 468 l 576 468 l 576 263 q 553 244 576 260 q 483 216 531 229 q 361 206 435 203 l 361 181 q 474 188 429 178 q 544 212 519 199 q 575 229 569 225 l 576 228 l 610 154 q 622 220 613 194 q 647 261 632 246 l 608 261 l 608 443 l 744 443 l 744 493 l 1069 493 l 1069 443 m 822 147 l 989 147 q 997 149 993 147 q 1001 160 1001 150 q 997 171 1001 169 q 989 172 993 172 l 822 172 q 814 171 818 172 q 810 160 810 169 q 814 149 810 150 q 822 147 818 147 z "},"겸":{"ha":1225,"x_min":32,"x_max":1188,"o":"m 813 1057 l 813 1142 l 1188 1142 l 1188 474 l 813 474 l 813 569 l 713 569 l 713 688 q 642 580 689 621 q 519 517 596 539 q 329 488 443 496 q 57 476 215 479 l 32 786 q 230 795 157 790 q 338 806 303 800 q 382 818 372 811 q 392 835 392 825 l 67 835 l 67 1129 l 750 1129 l 750 1057 l 813 1057 m 735 782 l 813 782 l 813 844 l 743 844 q 735 782 742 813 m 1188 -58 l 88 -58 l 88 443 l 1188 443 l 1188 -58 m 813 222 l 463 222 l 463 197 l 813 197 l 813 222 z "},"겹":{"ha":1225,"x_min":25,"x_max":1188,"o":"m 813 1074 l 813 1142 l 1188 1142 l 1188 519 l 813 519 l 813 586 l 713 586 l 713 721 q 646 608 690 650 q 524 544 601 567 q 331 515 447 522 q 50 504 215 507 l 25 801 q 223 810 150 806 q 331 821 296 815 q 375 833 365 826 q 385 850 385 840 l 60 850 l 60 1132 l 744 1132 l 744 1074 l 813 1074 m 731 799 l 813 799 l 813 861 l 738 861 q 735 829 736 844 q 731 799 733 814 m 482 394 l 800 394 l 800 486 l 1188 486 l 1188 -58 l 94 -58 l 94 474 l 482 474 l 482 394 m 482 219 l 482 167 l 800 167 l 800 219 l 482 219 z "},"겻":{"ha":1225,"x_min":25,"x_max":1199,"o":"m 817 332 q 1050 315 949 328 q 1199 282 1151 301 l 1142 -58 q 1043 -34 1113 -47 q 874 -11 974 -21 q 653 -1 774 -1 l 669 115 q 419 -23 568 28 q 99 -72 271 -74 l 63 271 q 184 287 122 275 q 300 321 246 299 q 393 378 354 343 q 444 463 432 413 l 813 463 l 813 556 l 713 556 l 713 699 q 646 581 690 626 q 524 513 601 536 q 331 480 447 489 q 50 468 215 471 l 25 781 q 223 790 150 785 q 331 800 296 794 q 375 813 365 806 q 385 829 385 819 l 60 829 l 60 1122 l 744 1122 l 744 1049 l 813 1049 l 813 1142 l 1188 1142 l 1188 385 l 828 385 q 823 359 826 372 q 817 332 819 346 m 729 768 l 813 768 l 813 836 l 736 836 q 733 801 735 818 q 729 768 732 783 z "},"겼":{"ha":1225,"x_min":19,"x_max":1207,"o":"m 44 474 l 19 786 q 217 795 144 790 q 325 806 290 800 q 369 818 360 811 q 379 835 379 825 l 54 835 l 54 1122 l 732 1122 l 732 1068 l 800 1068 l 800 1142 l 1175 1142 l 1175 488 l 800 488 l 800 581 l 700 581 l 700 699 q 633 583 678 626 q 513 517 589 540 q 322 485 438 494 q 44 474 207 476 m 719 793 l 800 793 l 800 856 l 726 856 q 724 823 725 838 q 719 793 722 808 m 993 319 q 1110 306 1053 315 q 1207 282 1168 297 l 1149 -71 q 1069 -49 1121 -60 q 956 -33 1017 -39 q 835 -26 894 -26 l 850 90 q 697 -14 788 31 q 485 -81 606 -58 l 431 49 q 358 3 407 29 q 249 -47 308 -24 q 133 -81 189 -71 l 32 263 q 138 310 96 276 q 199 380 179 343 q 219 442 219 417 l 594 442 q 587 367 594 399 q 564 294 579 335 l 586 286 q 613 368 604 321 q 621 463 622 415 l 1007 463 q 993 319 1011 390 z "},"경":{"ha":1225,"x_min":25,"x_max":1200,"o":"m 1188 421 l 1022 421 q 1153 337 1106 403 q 1200 182 1200 271 q 1131 -6 1200 61 q 956 -71 1061 -72 l 296 -71 q 171 -40 226 -71 q 83 47 115 -10 q 50 182 50 103 q 85 308 53 253 q 173 395 118 363 q 296 428 228 428 l 813 428 l 813 544 l 713 544 l 713 694 q 646 574 690 619 q 524 503 601 528 q 331 469 447 479 q 50 457 215 460 l 25 772 q 223 782 150 776 q 331 794 296 788 q 375 810 365 801 q 385 828 385 818 l 60 828 l 60 1121 l 744 1121 l 744 1044 l 813 1044 l 813 1142 l 1188 1142 l 1188 421 m 726 757 l 813 757 l 813 832 l 736 832 q 733 793 735 811 q 726 757 731 775 m 400 194 l 851 194 q 860 196 856 194 q 864 207 864 197 q 860 218 864 217 q 851 219 856 219 l 400 219 q 392 218 396 219 q 388 207 388 217 q 392 196 388 197 q 400 194 396 194 z "},"겿":{"ha":1225,"x_min":32,"x_max":1194,"o":"m 813 246 q 1043 232 944 243 q 1194 203 1142 221 l 1149 -64 q 975 -31 1101 -47 q 667 -14 849 -14 l 681 94 q 425 -27 578 18 q 92 -72 272 -72 l 57 215 q 214 233 131 218 q 364 281 297 247 l 69 281 l 69 436 l 435 436 q 437 463 436 449 q 436 493 438 476 l 800 493 l 800 572 l 700 572 l 700 694 q 631 595 676 633 q 510 537 585 557 q 324 508 435 517 q 57 496 213 499 l 32 796 q 230 805 157 800 q 338 815 303 810 q 382 828 372 821 q 392 844 392 835 l 67 844 l 67 1126 l 738 1126 l 738 1060 l 800 1060 l 800 1142 l 1175 1142 l 1175 475 l 850 475 l 850 436 l 1175 436 l 1175 281 l 829 281 q 822 263 825 272 q 813 246 818 254 m 724 785 l 800 785 l 800 847 l 732 847 l 724 785 z "},"곁":{"ha":1225,"x_min":32,"x_max":1200,"o":"m 713 582 l 713 717 q 646 608 690 649 q 526 546 601 567 q 335 517 450 525 q 57 507 219 510 l 32 806 q 228 815 157 810 q 333 825 300 819 q 376 838 367 831 q 385 854 385 844 l 67 854 l 67 1131 l 744 1131 l 744 1069 l 813 1069 l 813 1142 l 1188 1142 l 1188 500 l 813 500 l 813 582 l 713 582 m 731 794 l 813 794 l 813 857 l 738 857 q 735 824 736 839 q 731 794 733 810 m 475 185 l 475 154 l 1200 154 l 1200 -58 l 88 -58 l 88 472 l 1188 472 l 1188 322 l 475 322 l 475 292 l 1175 292 l 1175 185 l 475 185 z "},"계":{"ha":1225,"x_min":13,"x_max":1200,"o":"m 925 -58 l 925 1142 l 1200 1142 l 1200 -58 l 925 -58 m 576 943 l 625 943 l 625 1117 l 888 1117 l 888 -33 l 625 -33 l 625 218 l 519 218 l 519 363 q 426 172 486 243 q 276 62 367 100 q 57 1 186 24 l 13 392 q 178 493 121 410 q 240 704 235 576 l 58 704 l 58 1079 l 578 1079 q 578 1010 578 1044 q 576 943 578 975 m 550 518 l 625 518 l 625 643 l 564 643 q 558 578 561 608 q 550 518 556 547 z "},"곈":{"ha":1225,"x_min":19,"x_max":1200,"o":"m 938 1142 l 1188 1142 l 1188 317 l 938 317 l 938 1142 m 575 532 l 575 653 q 484 518 546 564 q 316 456 422 472 q 44 435 210 439 l 19 756 q 184 772 125 763 q 267 792 243 781 q 292 817 292 804 l 47 817 l 47 1110 l 613 1110 l 613 1032 l 669 1032 l 669 1129 l 907 1129 l 907 342 l 669 342 l 669 532 l 575 532 m 669 744 l 669 819 l 606 819 q 601 783 604 801 q 596 744 599 764 l 669 744 m 475 404 l 475 272 l 1200 272 l 1200 -58 l 75 -58 l 75 404 l 475 404 z "},"곌":{"ha":1225,"x_min":17,"x_max":1213,"o":"m 922 1142 l 1172 1142 l 1172 507 l 922 507 l 922 1142 m 560 581 l 560 686 q 472 570 532 608 q 307 519 411 532 q 42 504 203 507 l 17 793 q 221 815 165 803 q 276 847 276 828 l 44 847 l 44 1117 l 597 1117 l 597 1068 l 654 1068 l 654 1129 l 892 1129 l 892 507 l 654 507 l 654 581 l 560 581 m 585 793 l 654 793 l 654 856 l 592 856 q 589 823 590 838 q 585 793 588 808 m 1174 269 l 1176 267 l 1213 -14 q 1155 -42 1207 -29 q 1021 -63 1103 -54 q 838 -77 939 -72 q 630 -83 736 -82 q 424 -78 524 -83 q 245 -62 325 -74 q 119 -33 165 -51 q 72 10 72 -15 l 72 288 l 556 288 l 556 313 l 72 313 l 72 475 l 1172 475 l 1172 306 q 1125 274 1172 297 q 972 228 1078 251 q 690 197 867 206 l 690 172 q 927 194 835 179 q 1072 225 1019 208 q 1148 255 1125 242 q 1174 269 1171 268 z "},"곕":{"ha":1225,"x_min":25,"x_max":1194,"o":"m 944 507 l 944 1142 l 1194 1142 l 1194 507 l 944 507 m 575 579 l 575 676 q 481 561 544 599 q 313 511 418 524 q 50 494 208 499 l 25 783 q 190 799 131 790 q 273 820 249 808 q 297 844 297 832 l 54 844 l 54 1114 l 619 1114 l 619 1067 l 675 1067 l 675 1129 l 913 1129 l 913 507 l 675 507 l 675 579 l 575 579 m 606 792 l 675 792 l 675 854 l 611 854 q 608 822 610 838 q 606 792 607 807 m 475 394 l 807 394 l 807 474 l 1194 474 l 1194 -58 l 88 -58 l 88 461 l 475 461 l 475 394 m 475 219 l 475 167 l 807 167 l 807 219 l 475 219 z "},"곗":{"ha":1225,"x_min":19,"x_max":1207,"o":"m 944 1142 l 1200 1142 l 1200 386 l 944 386 l 944 1142 m 575 565 l 575 656 q 479 527 543 569 q 310 470 415 485 q 44 453 204 456 l 19 761 q 184 777 125 768 q 267 798 243 786 q 292 822 292 810 l 47 822 l 47 1110 l 619 1110 l 619 1053 l 675 1053 l 675 1129 l 913 1129 l 913 481 l 675 481 l 675 565 l 575 565 m 675 778 l 675 840 l 611 840 l 604 778 l 675 778 m 819 332 q 1053 315 951 328 q 1207 282 1154 301 l 1149 -58 q 1045 -34 1117 -47 q 874 -11 974 -21 q 653 -1 774 -1 l 669 114 q 417 -23 567 28 q 92 -72 267 -74 l 56 258 q 222 286 139 264 q 367 349 306 308 q 444 450 428 390 l 832 450 q 819 332 835 389 z "},"곘":{"ha":1225,"x_min":13,"x_max":1201,"o":"m 988 319 q 1106 306 1049 315 q 1201 282 1163 297 l 1144 -71 q 1064 -49 1115 -60 q 951 -33 1013 -39 q 831 -26 889 -26 l 844 90 q 692 -14 782 31 q 481 -81 601 -58 l 425 49 q 352 3 401 29 q 244 -47 303 -24 q 129 -81 185 -71 l 26 263 q 133 310 92 276 q 194 380 174 343 q 215 442 215 417 l 590 442 q 583 367 590 399 q 558 294 575 335 l 582 286 q 609 368 600 321 q 617 463 618 415 l 944 463 l 944 1142 l 1194 1142 l 1194 400 l 1001 400 q 997 359 1000 379 q 988 319 993 339 m 38 464 l 13 781 q 152 790 100 785 q 229 800 204 794 q 263 813 254 806 q 272 829 271 819 l 42 829 l 42 1117 l 607 1117 l 607 1063 l 675 1063 l 675 1129 l 913 1129 l 913 497 l 675 497 l 675 575 l 575 575 l 575 667 q 516 557 554 597 q 415 497 478 517 q 259 472 351 478 q 38 464 167 467 m 596 788 l 675 788 l 675 850 l 601 850 q 599 818 600 833 q 596 788 599 803 z "},"고":{"ha":1225,"x_min":25,"x_max":1200,"o":"m 1107 329 l 1200 329 l 1200 -21 l 25 -21 l 25 329 l 251 329 l 251 592 l 626 592 l 626 329 l 1058 329 l 719 394 q 753 505 742 454 q 770 606 765 556 q 775 717 775 657 l 63 717 l 63 1079 l 1150 1079 q 1149 794 1150 910 q 1144 602 1147 678 q 1137 478 1142 526 q 1125 396 1132 429 q 1107 329 1118 363 z "},"곡":{"ha":1225,"x_min":19,"x_max":1207,"o":"m 1132 654 l 1207 654 l 1207 379 l 19 379 l 19 654 l 250 654 l 250 779 l 625 779 l 625 654 l 1044 654 l 757 711 q 774 776 767 746 q 782 842 782 807 l 57 842 l 57 1142 l 1157 1142 q 1156 836 1157 957 q 1132 654 1154 715 m 782 54 l 44 54 l 44 347 l 1169 347 l 1169 -58 l 782 -58 l 782 54 z "},"곤":{"ha":1225,"x_min":19,"x_max":1207,"o":"m 1132 635 l 1207 635 l 1207 360 l 19 360 l 19 635 l 250 635 l 250 760 l 625 760 l 625 635 l 1044 635 l 757 693 q 774 757 767 726 q 782 842 782 788 l 57 842 l 57 1142 l 1157 1142 q 1156 818 1157 939 q 1132 635 1154 697 m 57 329 l 457 329 l 457 242 l 1182 242 l 1182 -58 l 57 -58 l 57 329 z "},"곧":{"ha":1225,"x_min":19,"x_max":1207,"o":"m 1133 675 l 1207 675 l 1207 425 l 19 425 l 19 675 l 250 675 l 250 779 l 625 779 l 625 675 l 1032 675 l 757 731 q 774 790 767 764 q 782 842 782 815 l 57 842 l 57 1142 l 1157 1142 q 1156 851 1157 967 q 1133 675 1154 736 m 1175 213 l 443 213 l 443 172 l 1188 172 l 1188 -58 l 56 -58 l 56 350 l 57 350 l 57 394 l 1176 394 l 1175 213 z "},"골":{"ha":1225,"x_min":19,"x_max":1207,"o":"m 1131 725 l 1207 725 l 1207 475 l 19 475 l 19 725 l 250 725 l 250 806 l 625 806 l 625 725 l 1046 725 l 760 769 q 775 813 768 789 q 782 856 782 838 l 57 856 l 57 1156 l 1157 1156 q 1156 956 1157 1038 q 1149 819 1154 874 q 1131 725 1143 764 m 1168 257 l 1169 254 l 1207 -14 q 1148 -42 1200 -29 q 1013 -63 1096 -54 q 828 -77 929 -72 q 619 -83 726 -82 q 410 -78 511 -83 q 230 -62 310 -74 q 103 -33 150 -51 q 56 10 56 -15 l 56 269 l 557 269 l 557 294 l 56 294 l 56 444 l 1167 444 l 1167 293 q 1119 265 1167 285 q 967 224 1072 244 q 685 197 861 204 l 685 172 q 920 190 828 178 q 1066 217 1013 203 q 1142 244 1119 232 q 1168 257 1164 256 z "},"곪":{"ha":1225,"x_min":19,"x_max":1207,"o":"m 1133 686 l 1207 686 l 1207 436 l 19 436 l 19 686 l 250 686 l 250 793 l 625 793 l 625 686 l 1057 686 l 756 732 q 774 786 765 760 q 782 843 782 813 l 57 843 l 57 1143 l 1157 1143 q 1156 860 1157 972 q 1133 686 1156 747 m 596 203 l 636 56 l 636 406 l 1182 406 l 1182 -58 l 636 -58 q 550 -75 604 -68 q 430 -84 496 -82 q 299 -83 364 -86 q 177 -72 233 -81 q 86 -47 121 -62 q 49 -8 51 -31 l 44 231 l 282 231 l 282 256 l 44 256 l 44 406 l 596 406 l 596 238 q 570 219 596 235 q 497 191 544 204 q 382 181 450 178 l 382 156 q 494 163 450 153 q 564 187 539 174 q 594 204 589 200 l 596 203 m 918 267 l 893 267 l 893 117 l 918 117 l 918 267 z "},"곬":{"ha":1226,"x_min":19,"x_max":1207,"o":"m 1133 686 l 1207 686 l 1207 436 l 19 436 l 19 686 l 250 686 l 250 793 l 625 793 l 625 686 l 1057 686 l 756 732 q 774 786 765 760 q 782 843 782 813 l 57 843 l 57 1143 l 1157 1143 q 1156 860 1157 972 q 1133 686 1156 747 m 576 203 l 578 201 l 643 -35 q 573 -61 624 -50 q 456 -78 522 -72 q 321 -82 390 -83 q 191 -73 251 -81 q 92 -49 131 -65 q 50 -10 53 -33 l 44 231 l 278 231 l 278 256 l 44 256 l 44 406 l 578 406 l 578 236 q 551 218 578 233 q 477 190 525 203 q 364 179 429 176 l 364 154 q 474 162 429 151 q 545 185 519 172 q 576 203 571 199 m 733 406 l 1058 406 q 1046 260 1063 331 q 1130 249 1092 258 q 1203 228 1168 240 l 1138 -57 q 1028 -32 1083 -40 q 904 -22 974 -24 l 921 57 q 815 -6 876 21 q 674 -46 754 -33 l 604 210 q 705 283 675 236 q 733 406 735 331 z "},"곯":{"ha":1225,"x_min":19,"x_max":1207,"o":"m 1133 699 l 1207 699 l 1207 449 l 19 449 l 19 699 l 250 699 l 250 797 l 625 797 l 625 699 l 1057 699 l 756 744 q 774 792 765 768 q 782 842 782 815 l 57 842 l 57 1142 l 1157 1142 q 1156 869 1157 979 q 1133 699 1156 760 m 739 424 l 1064 424 l 1064 386 l 1182 386 l 1182 219 l 1128 219 q 1167 180 1151 206 q 1182 110 1182 154 q 1172 29 1182 68 q 1122 -34 1161 -10 q 996 -58 1082 -58 l 771 -58 q 714 -51 738 -58 q 675 -33 690 -44 q 606 -56 658 -46 q 484 -72 554 -67 q 340 -78 414 -78 q 200 -71 265 -78 q 92 -49 135 -64 q 47 -8 50 -33 l 44 236 l 282 236 l 282 261 l 44 261 l 44 411 l 594 411 l 594 225 q 569 207 594 222 q 496 178 543 192 q 381 168 449 165 l 381 143 q 494 151 449 140 q 564 174 539 161 q 594 192 589 188 l 594 190 l 628 99 l 628 110 q 641 180 628 154 q 676 219 654 206 l 626 219 l 626 386 l 739 386 l 739 424 m 815 118 l 982 118 q 990 119 985 118 q 994 131 994 121 q 990 142 994 140 q 982 143 985 143 l 815 143 q 806 142 810 143 q 803 131 803 140 q 806 119 803 121 q 815 118 810 118 z "},"곰":{"ha":1225,"x_min":19,"x_max":1207,"o":"m 1133 674 l 1207 674 l 1207 424 l 19 424 l 19 674 l 250 674 l 250 779 l 625 779 l 625 674 l 1039 674 l 757 731 q 774 790 767 764 q 782 842 782 815 l 57 842 l 57 1142 l 1157 1142 q 1156 851 1157 965 q 1133 674 1154 736 m 1169 -60 l 57 -60 l 57 393 l 1169 393 l 1169 -60 m 807 217 l 419 217 l 419 192 l 807 192 l 807 217 z "},"곱":{"ha":1225,"x_min":19,"x_max":1207,"o":"m 1135 690 l 1207 690 l 1207 440 l 19 440 l 19 690 l 250 690 l 250 793 l 625 793 l 625 690 l 1032 690 l 756 732 q 774 786 765 760 q 782 843 782 813 l 57 843 l 57 1143 l 1157 1143 q 1156 863 1157 975 q 1135 690 1154 751 m 425 353 l 800 353 l 800 408 l 1175 408 l 1175 -58 l 50 -58 l 50 408 l 425 408 l 425 353 m 425 208 l 425 160 l 800 160 l 800 208 l 425 208 z "},"곳":{"ha":1225,"x_min":19,"x_max":1207,"o":"m 1132 658 l 1207 658 l 1207 408 l 19 408 l 19 658 l 250 658 l 250 779 l 625 779 l 625 658 l 1044 658 l 757 717 q 774 778 767 750 q 782 842 782 807 l 57 842 l 57 1142 l 1157 1142 q 1156 839 1157 957 q 1132 658 1154 721 m 419 378 l 807 378 q 806 340 808 360 q 796 301 803 321 q 970 291 889 299 q 1113 274 1051 283 q 1207 251 1175 264 l 1149 -71 q 1045 -47 1121 -60 q 863 -24 969 -33 q 635 -14 757 -14 l 656 121 q 496 28 588 69 q 296 -37 404 -14 q 68 -58 188 -60 l 32 269 q 148 279 85 272 q 269 299 211 286 q 369 331 328 311 q 419 378 410 350 z "},"공":{"ha":1225,"x_min":19,"x_max":1207,"o":"m 1133 678 l 1207 678 l 1207 428 l 19 428 l 19 678 l 250 678 l 250 782 l 625 782 l 625 678 l 1032 678 l 757 732 q 774 788 767 761 q 782 842 782 815 l 57 842 l 57 1142 l 1157 1142 q 1156 849 1157 958 q 1133 678 1154 739 m 257 401 l 969 401 q 1097 369 1046 401 q 1176 284 1149 336 q 1203 174 1203 232 q 1140 -4 1203 64 q 969 -72 1076 -72 l 257 -72 q 136 -40 189 -72 q 53 47 83 -8 q 24 174 24 103 q 53 284 24 232 q 136 369 83 336 q 257 401 189 401 m 397 185 l 828 185 q 835 186 831 185 q 840 197 840 188 q 835 208 840 207 q 828 210 831 210 l 397 210 q 389 208 393 210 q 385 197 385 207 q 389 186 385 188 q 397 185 393 185 z "},"곶":{"ha":1225,"x_min":19,"x_max":1207,"o":"m 1135 707 l 1207 707 l 1207 457 l 19 457 l 19 707 l 250 707 l 250 796 l 625 796 l 625 707 l 1029 707 l 760 750 q 776 800 769 778 q 782 842 782 822 l 57 842 l 57 1142 l 1157 1142 q 1157 942 1157 1025 q 1153 802 1157 858 q 1135 707 1149 746 m 1160 257 l 794 257 q 790 244 793 250 q 783 231 786 238 q 1026 221 921 231 q 1179 197 1131 211 l 1133 -58 q 1036 -41 1106 -50 q 867 -26 967 -32 q 644 -22 767 -19 l 658 81 q 411 -29 561 8 q 76 -67 261 -67 l 42 215 q 197 224 114 217 q 346 257 281 231 l 54 257 l 54 425 l 1160 425 l 1160 257 z "},"곹":{"ha":1225,"x_min":19,"x_max":1207,"o":"m 1129 710 l 1207 710 l 1207 460 l 19 460 l 19 710 l 250 710 l 250 806 l 625 806 l 625 710 l 1054 710 l 760 757 q 774 801 768 776 q 782 842 781 825 l 57 842 l 57 1142 l 1157 1142 q 1156 940 1157 1022 q 1149 803 1154 858 q 1129 710 1143 749 m 1154 160 l 432 160 l 432 129 l 1181 129 l 1181 -58 l 57 -58 l 57 429 l 1169 429 l 1168 304 l 432 304 l 432 272 l 1156 272 l 1154 160 z "},"과":{"ha":1225,"x_min":13,"x_max":1213,"o":"m 1138 813 l 1213 813 l 1213 425 l 1138 425 l 1138 -58 l 763 -58 l 763 32 q 585 8 699 17 q 326 -2 472 0 q 13 -4 179 -4 l 13 321 l 107 321 l 107 568 l 365 568 q 385 674 382 631 q 388 763 388 718 l 38 763 l 38 1088 l 725 1088 q 724 854 725 951 q 719 690 722 757 q 712 576 717 622 q 699 494 707 529 q 681 424 692 458 l 444 471 l 444 321 q 597 331 528 324 q 719 354 665 339 l 763 146 l 763 1142 l 1138 1142 l 1138 813 z "},"곽":{"ha":1225,"x_min":13,"x_max":1213,"o":"m 1138 944 l 1213 944 l 1213 582 l 1138 582 l 1138 360 l 763 360 l 763 390 q 601 376 713 381 q 337 369 489 371 q 13 368 185 368 l 13 618 l 113 618 l 113 758 l 375 758 q 388 833 388 799 l 38 833 l 38 1121 l 725 1121 q 725 940 725 1011 q 723 822 725 869 q 714 738 721 775 q 693 657 707 700 l 450 697 l 450 619 q 618 626 546 622 q 725 638 690 631 l 763 449 l 763 1142 l 1138 1142 l 1138 944 m 750 -1 l 38 -1 l 38 331 l 1138 331 l 1138 -58 l 750 -58 l 750 -1 z "},"관":{"ha":1225,"x_min":13,"x_max":1213,"o":"m 1138 1142 l 1138 919 l 1213 919 l 1213 557 l 1138 557 l 1138 297 l 763 297 l 763 390 q 601 376 713 381 q 337 369 489 371 q 13 368 185 368 l 13 618 l 113 618 l 113 758 l 375 758 q 388 833 388 799 l 38 833 l 38 1121 l 725 1121 q 725 940 725 1011 q 723 822 725 869 q 714 738 721 775 q 693 657 707 700 l 450 697 l 450 619 q 618 626 546 622 q 725 638 690 631 l 763 449 l 763 1142 l 1138 1142 m 38 335 l 438 335 l 438 260 l 1150 260 l 1150 -58 l 38 -58 l 38 335 z "},"괄":{"ha":1225,"x_min":13,"x_max":1213,"o":"m 1138 1142 l 1138 1001 l 1213 1001 l 1213 639 l 1138 639 l 1138 458 l 763 458 l 763 490 q 601 476 713 481 q 337 470 489 471 q 13 469 185 469 l 13 719 l 125 719 l 125 808 l 379 808 q 390 835 386 822 q 394 860 394 849 l 44 860 l 44 1135 l 719 1135 q 719 985 719 1046 q 716 883 718 925 q 708 812 714 842 q 693 753 703 782 l 463 782 l 463 721 q 622 726 553 722 q 725 738 692 731 l 763 549 l 763 1142 l 1138 1142 m 1139 269 l 1142 267 l 1178 -14 q 1120 -42 1172 -29 q 985 -63 1068 -54 q 801 -77 903 -72 q 592 -83 700 -82 q 385 -78 485 -83 q 206 -62 286 -74 q 79 -33 126 -51 q 32 10 32 -15 l 32 258 l 532 258 l 532 283 l 32 283 l 32 433 l 1138 433 l 1138 306 q 1089 274 1138 297 q 933 228 1040 251 q 644 197 825 206 l 644 172 q 885 194 790 179 q 1035 225 981 208 q 1113 255 1089 242 q 1139 269 1136 268 z "},"괆":{"ha":1225,"x_min":13,"x_max":1213,"o":"m 1138 1142 l 1138 982 l 1213 982 l 1213 619 l 1138 619 l 1138 442 l 763 442 l 763 489 q 601 474 713 479 q 337 468 489 469 q 13 467 185 467 l 13 717 l 125 717 l 125 804 l 374 804 q 388 833 381 817 q 394 860 394 849 l 44 860 l 44 1135 l 719 1135 q 719 988 719 1046 q 717 890 719 929 q 710 821 715 851 q 693 757 704 790 l 463 788 l 463 719 q 622 725 553 721 q 725 736 692 729 l 763 547 l 763 1142 l 1138 1142 m 576 221 l 617 90 l 617 411 l 1146 411 l 1146 -58 l 619 -58 q 524 -78 582 -71 q 401 -86 467 -85 q 269 -83 335 -87 q 149 -68 203 -79 q 62 -39 94 -57 q 29 4 29 -21 l 25 231 l 250 231 l 250 256 l 25 256 l 25 436 l 576 436 l 576 257 q 553 238 576 254 q 483 209 531 222 q 361 199 435 196 l 361 174 q 474 181 429 171 q 544 205 519 192 q 575 222 569 218 l 576 221 m 888 251 l 863 251 l 863 114 l 888 114 l 888 251 z "},"괌":{"ha":1225,"x_min":13,"x_max":1213,"o":"m 1138 974 l 1213 974 l 1213 611 l 1138 611 l 1138 414 l 763 414 l 763 449 q 599 428 711 433 q 335 422 486 422 q 13 421 183 421 l 13 671 l 113 671 l 113 783 l 372 783 q 388 846 388 817 l 38 846 l 38 1133 l 725 1133 q 725 988 725 1047 q 723 883 725 928 q 714 801 721 839 q 693 719 707 763 l 450 757 l 450 675 q 618 685 546 679 q 725 701 690 692 l 763 515 l 763 1142 l 1138 1142 l 1138 974 m 1138 -58 l 38 -58 l 38 383 l 1138 383 l 1138 -58 m 763 193 l 413 193 l 413 168 l 763 168 l 763 193 z "},"괍":{"ha":1225,"x_min":13,"x_max":1213,"o":"m 1138 982 l 1213 982 l 1213 619 l 1138 619 l 1138 446 l 763 446 l 763 483 q 601 469 713 474 q 337 463 489 464 q 13 461 185 461 l 13 711 l 138 711 l 138 804 l 376 804 q 389 833 383 818 q 394 860 394 847 l 44 860 l 44 1135 l 719 1135 q 719 987 719 1046 q 717 888 719 928 q 710 817 715 849 q 693 753 704 786 l 475 782 l 475 714 q 628 721 563 717 q 725 732 693 725 l 763 543 l 763 1142 l 1138 1142 l 1138 982 m 432 361 l 750 361 l 750 417 l 1138 417 l 1138 -58 l 44 -58 l 44 429 l 432 429 l 432 361 m 432 186 l 432 142 l 750 142 l 750 186 l 432 186 z "},"괏":{"ha":1225,"x_min":13,"x_max":1213,"o":"m 1213 611 l 1138 611 l 1138 382 l 807 382 q 801 319 810 349 q 1026 299 926 314 q 1188 261 1125 285 l 1131 -58 q 922 -8 1053 -26 q 629 7 790 10 l 643 103 q 392 -15 542 31 q 61 -58 243 -60 l 25 264 q 143 269 81 264 q 264 288 206 275 q 365 325 322 300 q 419 390 407 350 l 763 390 l 763 446 q 599 425 711 431 q 335 419 486 419 q 13 419 183 419 l 13 669 l 113 669 l 113 783 l 372 783 q 388 846 388 817 l 38 846 l 38 1133 l 725 1133 q 725 988 725 1047 q 723 883 725 928 q 714 801 721 839 q 693 719 707 763 l 450 757 l 450 672 q 618 683 546 676 q 725 699 690 689 l 763 513 l 763 1142 l 1138 1142 l 1138 974 l 1213 974 l 1213 611 z "},"괐":{"ha":1225,"x_min":13,"x_max":1213,"o":"m 1138 1142 l 1138 982 l 1213 982 l 1213 619 l 1138 619 l 1138 424 l 763 424 l 763 471 q 601 456 713 461 q 337 450 489 451 q 13 449 185 449 l 13 699 l 138 699 l 138 792 l 376 792 q 389 820 383 806 q 394 847 394 835 l 44 847 l 44 1122 l 719 1122 q 719 974 719 1033 q 717 876 719 915 q 710 805 715 836 q 693 740 704 774 l 475 769 l 475 701 q 628 708 563 704 q 725 719 693 713 l 763 531 l 763 1142 l 1138 1142 m 614 393 l 1001 393 q 997 319 1004 357 q 1117 307 1063 318 q 1203 276 1171 296 l 1125 -81 q 988 -44 1072 -57 q 819 -31 904 -31 l 844 72 q 690 -17 781 22 q 479 -81 600 -57 l 424 40 q 351 -3 400 21 q 242 -49 301 -28 q 128 -81 183 -69 l 25 249 q 126 285 83 257 q 191 351 168 314 q 214 421 214 389 l 589 421 q 581 341 589 374 q 557 269 574 308 l 581 260 q 607 333 599 296 q 614 393 615 369 z "},"광":{"ha":1225,"x_min":13,"x_max":1213,"o":"m 1213 604 l 1138 604 l 1138 393 l 983 393 q 1115 310 1068 375 q 1163 165 1163 246 q 1131 40 1163 93 q 1044 -42 1099 -14 q 918 -71 989 -71 l 271 -71 q 146 -41 201 -71 q 58 42 90 -11 q 25 165 25 94 q 58 283 25 231 q 147 367 90 335 q 271 399 203 399 l 763 399 l 763 460 q 599 439 711 444 q 335 433 486 433 q 13 432 183 432 l 13 682 l 113 682 l 113 794 l 376 794 q 388 844 388 824 l 38 844 l 38 1132 l 725 1132 q 725 993 725 1050 q 723 893 725 936 q 714 813 721 850 q 693 732 707 775 l 450 768 l 450 686 q 618 697 546 690 q 725 713 690 703 l 763 526 l 763 1142 l 1138 1142 l 1138 967 l 1213 967 l 1213 604 m 375 176 l 814 176 q 822 178 818 176 q 826 189 826 179 q 822 200 826 199 q 814 201 818 201 l 375 201 q 367 200 371 201 q 363 189 363 199 q 367 178 363 179 q 375 176 371 176 z "},"괒":{"ha":1225,"x_min":13,"x_max":1213,"o":"m 1138 1142 l 1138 974 l 1213 974 l 1213 611 l 1138 611 l 1138 432 l 763 432 l 763 465 q 599 444 711 450 q 335 438 486 438 q 13 438 183 438 l 13 682 l 113 682 l 113 796 l 372 796 q 388 858 388 829 l 38 858 l 38 1133 l 725 1133 q 725 994 725 1051 q 723 894 725 938 q 714 813 721 851 q 693 732 707 775 l 450 769 l 450 685 q 618 695 546 689 q 725 711 690 701 l 763 531 l 763 1142 l 1138 1142 m 1138 244 l 769 244 q 763 231 767 238 q 757 218 760 225 q 1001 208 894 218 q 1157 185 1107 199 l 1111 -58 q 1014 -41 1083 -50 q 844 -26 944 -32 q 622 -22 744 -19 l 638 83 q 390 -27 540 13 q 54 -67 239 -67 l 19 203 q 175 211 92 204 q 324 244 258 218 l 32 244 l 32 400 l 1138 400 l 1138 244 z "},"괘":{"ha":1225,"x_min":13,"x_max":1200,"o":"m 950 785 l 950 1142 l 1200 1142 l 1200 -58 l 950 -58 l 950 397 l 907 397 l 907 -33 l 669 -33 l 669 67 q 549 47 622 54 q 385 35 475 39 q 200 31 296 32 q 13 29 104 29 l 13 354 q 62 354 36 354 q 113 353 88 354 l 113 561 l 265 561 q 284 657 279 611 q 289 763 289 703 l 39 763 l 39 1088 l 626 1088 q 624 805 626 915 q 615 626 621 694 q 601 515 610 558 q 582 432 593 471 l 425 464 l 425 357 q 529 368 479 361 q 619 386 579 375 l 669 149 l 669 1129 l 907 1129 l 907 785 l 950 785 z "},"괜":{"ha":1225,"x_min":13,"x_max":1213,"o":"m 907 342 l 669 342 l 669 396 q 562 384 631 389 q 403 377 493 379 q 213 374 314 375 q 13 374 113 374 l 13 624 l 83 624 l 83 765 l 324 765 q 333 828 333 794 l 40 828 l 40 1115 l 633 1115 q 633 938 633 1007 q 631 822 633 868 q 622 738 629 775 q 601 657 615 700 l 383 697 l 383 626 q 533 633 467 629 q 633 644 599 636 l 669 468 l 669 1129 l 907 1129 l 907 929 l 950 929 l 950 1142 l 1200 1142 l 1200 317 l 950 317 l 950 592 l 907 592 l 907 342 m 463 343 l 463 272 l 1213 272 l 1213 -58 l 63 -58 l 63 343 l 463 343 z "},"괠":{"ha":1225,"x_min":7,"x_max":1219,"o":"m 886 461 l 649 461 l 649 494 q 498 480 599 485 q 269 473 397 475 q 7 471 142 471 l 7 721 l 76 721 l 76 801 l 313 801 q 326 842 325 824 l 26 842 l 26 1117 l 614 1117 q 613 965 614 1024 q 610 871 613 907 q 601 809 607 835 q 582 754 594 783 l 376 786 l 376 722 q 518 730 456 725 q 614 742 581 735 l 649 565 l 649 1129 l 886 1129 l 886 967 l 931 967 l 931 1142 l 1181 1142 l 1181 461 l 931 461 l 931 629 l 886 629 l 886 461 m 1182 269 l 1183 267 l 1219 -14 q 1160 -42 1214 -29 q 1022 -63 1107 -54 q 833 -77 938 -72 q 619 -83 729 -82 q 407 -78 510 -83 q 222 -62 304 -74 q 92 -33 140 -51 q 44 10 44 -15 l 44 258 l 544 258 l 544 283 l 44 283 l 44 433 l 1181 433 l 1181 306 q 1132 274 1181 297 q 975 228 1083 251 q 686 197 867 206 l 686 172 q 928 194 833 179 q 1078 225 1024 208 q 1155 255 1132 242 q 1182 269 1178 268 z "},"괢":{"ha":1225,"x_min":13,"x_max":1207,"o":"m 957 967 l 957 1142 l 1207 1142 l 1207 454 l 957 454 l 957 629 l 913 629 l 913 454 l 675 454 l 675 499 q 566 488 636 492 q 406 482 496 483 q 214 480 315 481 q 13 479 113 479 l 13 729 l 90 729 l 90 808 l 328 808 q 340 847 339 828 l 40 847 l 40 1117 l 640 1117 q 639 974 640 1031 q 634 879 638 917 q 624 815 631 842 q 607 761 618 788 l 390 792 l 390 729 q 540 735 474 732 q 640 746 606 739 l 675 569 l 675 1129 l 913 1129 l 913 967 l 957 967 m 617 221 l 657 90 l 657 424 l 1207 424 l 1207 -58 l 657 -58 q 560 -78 619 -71 q 432 -86 501 -85 q 294 -83 363 -87 q 169 -68 226 -79 q 78 -39 113 -57 q 44 4 44 -21 l 40 243 l 272 243 l 272 268 l 40 268 l 40 449 l 617 449 l 617 257 q 593 238 617 254 q 521 209 569 222 q 399 199 472 196 l 399 174 q 513 181 467 171 q 584 205 558 192 q 615 222 610 218 l 617 221 m 938 264 l 913 264 l 913 114 l 938 114 l 938 264 z "},"괩":{"ha":1225,"x_min":13,"x_max":1207,"o":"m 957 967 l 957 1142 l 1207 1142 l 1207 446 l 957 446 l 957 629 l 913 629 l 913 446 l 675 446 l 675 482 q 566 470 636 475 q 406 463 496 465 q 214 459 315 460 q 13 458 113 458 l 13 708 l 90 708 l 90 797 l 324 797 q 340 842 339 822 l 40 842 l 40 1117 l 640 1117 q 639 963 640 1024 q 634 863 638 901 q 624 797 631 824 q 607 743 618 769 l 390 782 l 390 710 q 540 717 474 713 q 640 729 606 722 l 675 553 l 675 1129 l 913 1129 l 913 967 l 957 967 m 438 374 l 814 374 l 814 417 l 1201 417 l 1201 -58 l 50 -58 l 50 429 l 438 429 l 438 374 m 438 199 l 438 154 l 814 154 l 814 199 l 438 199 z "},"괬":{"ha":1225,"x_min":13,"x_max":1213,"o":"m 1000 324 q 1124 312 1067 322 q 1213 282 1181 301 l 1135 -68 q 1047 -40 1100 -51 q 934 -24 993 -29 q 818 -18 875 -18 l 840 74 q 688 -8 778 28 q 479 -68 599 -44 l 411 53 q 338 9 388 33 q 230 -36 289 -15 q 115 -68 171 -57 l 13 254 q 104 288 65 263 q 166 348 143 314 q 189 414 189 382 l 576 414 q 569 342 576 371 q 544 274 561 314 l 568 265 q 592 326 583 290 q 601 385 600 363 l 957 385 l 957 610 l 913 610 l 913 417 l 675 417 l 675 465 q 566 453 636 458 q 406 447 496 449 q 214 444 315 444 q 13 443 113 443 l 13 693 l 90 693 l 90 792 l 325 792 q 336 819 332 804 q 340 842 340 833 l 40 842 l 40 1117 l 640 1117 q 640 956 640 1018 q 636 856 639 894 q 626 789 633 817 q 607 731 619 761 l 390 769 l 390 694 q 540 701 474 696 q 640 713 606 706 l 675 536 l 675 1129 l 913 1129 l 913 947 l 957 947 l 957 1142 l 1207 1142 l 1207 379 l 1001 379 q 1002 352 1003 365 q 1000 324 1001 339 z "},"괭":{"ha":1225,"x_min":13,"x_max":1207,"o":"m 957 1142 l 1207 1142 l 1207 382 l 1060 382 q 1168 301 1129 360 q 1207 164 1207 243 q 1138 -12 1207 47 q 961 -71 1068 -72 l 278 -71 q 153 -44 208 -71 q 65 35 97 -18 q 32 164 32 88 q 65 287 32 235 q 153 367 97 339 q 278 396 210 396 l 957 396 l 957 617 l 913 617 l 913 425 l 675 425 l 675 458 q 566 447 636 451 q 406 440 496 443 q 214 437 315 438 q 13 436 113 436 l 13 686 l 90 686 l 90 790 l 325 790 q 336 818 332 804 q 340 840 340 832 l 40 840 l 40 1115 l 640 1115 q 640 954 640 1017 q 636 852 639 892 q 626 784 633 813 q 607 724 619 756 l 390 763 l 390 688 q 540 694 474 690 q 640 707 606 699 l 675 531 l 675 1129 l 913 1129 l 913 954 l 957 954 l 957 1142 m 382 175 l 857 175 q 865 176 861 175 q 869 188 869 178 q 865 199 869 197 q 857 200 861 200 l 382 200 q 373 199 376 200 q 369 188 369 197 q 373 176 369 178 q 382 175 376 175 z "},"괴":{"ha":1225,"x_min":25,"x_max":1188,"o":"m 813 146 l 813 1142 l 1188 1142 l 1188 -58 l 813 -58 l 813 32 q 633 8 749 17 q 364 -2 518 0 q 25 -4 210 -4 l 25 321 q 90 321 58 321 q 151 319 121 321 l 151 568 l 410 568 q 429 674 426 631 q 432 763 432 718 l 64 763 l 64 1088 l 769 1088 q 768 854 769 951 q 764 690 767 757 q 756 576 761 622 q 744 494 751 529 q 725 424 736 458 l 489 471 l 489 321 q 645 331 575 324 q 769 354 715 339 l 813 146 z "},"괵":{"ha":1225,"x_min":25,"x_max":1188,"o":"m 813 449 l 813 1142 l 1188 1142 l 1188 360 l 813 360 l 813 390 q 649 376 763 381 q 375 369 535 371 q 25 368 215 368 l 25 618 l 157 618 l 157 758 l 419 758 q 432 833 432 799 l 69 833 l 69 1121 l 769 1121 q 769 940 769 1011 q 767 822 769 869 q 757 738 764 775 q 736 657 750 700 l 494 697 l 494 619 q 667 626 593 622 q 775 638 740 631 l 813 449 m 800 -1 l 63 -1 l 63 331 l 1188 331 l 1188 -58 l 800 -58 l 800 -1 z "},"괸":{"ha":1225,"x_min":25,"x_max":1200,"o":"m 1188 297 l 813 297 l 813 390 q 649 376 763 381 q 375 369 535 371 q 25 368 215 368 l 25 618 l 157 618 l 157 758 l 419 758 q 432 833 432 799 l 69 833 l 69 1121 l 769 1121 q 769 940 769 1011 q 767 822 769 869 q 757 738 764 775 q 736 657 750 700 l 494 697 l 494 619 q 667 626 593 622 q 775 638 740 631 l 813 449 l 813 1142 l 1188 1142 l 1188 297 m 463 335 l 463 260 l 1200 260 l 1200 -58 l 63 -58 l 63 335 l 463 335 z "},"괼":{"ha":1225,"x_min":13,"x_max":1215,"o":"m 1175 458 l 800 458 l 800 490 q 637 476 750 481 q 364 470 524 471 q 13 469 204 469 l 13 719 l 157 719 l 157 808 l 410 808 q 425 860 425 836 l 50 860 l 50 1135 l 750 1135 q 750 987 750 1046 q 749 888 750 928 q 742 817 747 849 q 724 753 736 786 l 494 782 l 494 721 q 659 726 589 722 q 763 738 729 731 l 800 549 l 800 1142 l 1175 1142 l 1175 458 m 1176 269 l 1179 267 l 1215 -14 q 1157 -42 1210 -29 q 1019 -63 1104 -54 q 831 -77 935 -72 q 617 -83 726 -82 q 406 -78 508 -83 q 222 -62 304 -74 q 92 -33 140 -51 q 44 10 44 -15 l 44 258 l 544 258 l 544 283 l 44 283 l 44 433 l 1175 433 l 1175 306 q 1126 274 1175 297 q 969 228 1078 251 q 681 197 861 206 l 681 172 q 923 194 828 179 q 1072 225 1018 208 q 1150 255 1126 242 q 1176 269 1174 268 z "},"굄":{"ha":1225,"x_min":25,"x_max":1188,"o":"m 813 515 l 813 1142 l 1188 1142 l 1188 414 l 813 414 l 813 449 q 647 428 761 433 q 373 422 532 422 q 25 421 214 421 l 25 671 l 157 671 l 157 783 l 417 783 q 428 815 424 799 q 432 846 432 832 l 69 846 l 69 1133 l 769 1133 q 769 988 769 1047 q 767 883 769 928 q 757 801 764 839 q 736 719 750 763 l 494 757 l 494 675 q 666 685 593 679 q 775 701 739 692 l 813 515 m 1188 -58 l 63 -58 l 63 383 l 1188 383 l 1188 -58 m 813 193 l 438 193 l 438 168 l 813 168 l 813 193 z "},"굅":{"ha":1225,"x_min":25,"x_max":1188,"o":"m 813 543 l 813 1142 l 1188 1142 l 1188 446 l 813 446 l 813 483 q 649 469 763 474 q 375 463 535 464 q 25 461 215 461 l 25 711 l 182 711 l 182 804 l 419 804 q 438 860 438 833 l 75 860 l 75 1135 l 763 1135 q 763 987 763 1046 q 761 888 763 928 q 754 817 760 849 q 736 753 749 786 l 519 782 l 519 714 q 676 720 610 717 q 775 732 743 724 l 813 543 m 450 361 l 800 361 l 800 417 l 1188 417 l 1188 -58 l 63 -58 l 63 429 l 450 429 l 450 361 m 450 186 l 450 142 l 800 142 l 800 186 l 450 186 z "},"굇":{"ha":1225,"x_min":25,"x_max":1200,"o":"m 814 319 q 1038 299 939 314 q 1200 261 1138 285 l 1143 -58 q 934 -8 1065 -26 q 642 7 803 10 l 656 103 q 405 -15 554 31 q 74 -58 256 -60 l 38 264 q 156 269 93 264 q 276 288 218 275 q 377 325 335 300 q 432 390 419 350 l 813 390 l 813 446 q 647 425 761 431 q 373 419 532 419 q 25 419 214 419 l 25 669 l 157 669 l 157 783 l 417 783 q 428 815 424 799 q 432 846 432 832 l 69 846 l 69 1133 l 769 1133 q 769 988 769 1047 q 767 883 769 928 q 757 801 764 839 q 736 719 750 763 l 494 757 l 494 672 q 666 683 593 676 q 775 699 739 689 l 813 513 l 813 1142 l 1188 1142 l 1188 382 l 819 382 q 814 319 822 349 z "},"굉":{"ha":1225,"x_min":13,"x_max":1200,"o":"m 1175 393 l 1021 393 q 1153 310 1106 375 q 1200 165 1200 246 q 1168 40 1200 93 q 1081 -42 1136 -14 q 956 -71 1026 -71 l 293 -71 q 167 -41 224 -71 q 78 42 111 -11 q 46 165 46 94 q 79 283 46 231 q 169 367 113 335 q 293 399 225 399 l 800 399 l 800 460 q 634 439 749 444 q 360 433 519 433 q 13 432 201 432 l 13 682 l 144 682 l 144 794 l 407 794 q 419 844 419 822 l 57 844 l 57 1132 l 757 1132 q 757 993 757 1050 q 754 893 757 936 q 744 813 751 850 q 724 732 738 775 l 482 768 l 482 686 q 653 697 581 690 q 763 713 726 703 l 800 526 l 800 1142 l 1175 1142 l 1175 393 m 396 176 l 851 176 q 860 178 856 176 q 864 189 864 179 q 860 200 864 199 q 851 201 856 201 l 396 201 q 388 200 392 201 q 383 189 383 199 q 388 178 383 179 q 396 176 392 176 z "},"교":{"ha":1225,"x_min":25,"x_max":1200,"o":"m 1117 329 l 1200 329 l 1200 -21 l 25 -21 l 25 329 l 119 329 l 119 579 l 444 579 l 444 329 l 500 329 l 500 579 l 775 579 q 781 644 779 610 q 782 717 782 678 l 69 717 l 69 1079 l 1157 1079 q 1156 805 1157 918 q 1151 614 1154 692 q 1144 485 1149 536 q 1133 397 1140 433 q 1117 329 1126 361 m 1050 329 l 800 390 l 800 329 l 1050 329 z "},"굔":{"ha":1225,"x_min":19,"x_max":1207,"o":"m 1132 635 l 1207 635 l 1207 360 l 19 360 l 19 635 l 107 635 l 107 772 l 432 772 l 432 635 l 494 635 l 494 772 l 776 772 q 782 842 782 799 l 57 842 l 57 1142 l 1157 1142 q 1156 818 1157 939 q 1132 635 1154 697 m 1044 635 l 794 685 l 794 635 l 1044 635 m 57 329 l 457 329 l 457 242 l 1182 242 l 1182 -58 l 57 -58 l 57 329 z "},"굘":{"ha":1225,"x_min":19,"x_max":1207,"o":"m 1131 718 l 1207 718 l 1207 468 l 19 468 l 19 718 l 107 718 l 107 810 l 432 810 l 432 718 l 494 718 l 494 810 l 774 810 q 782 856 782 835 l 57 856 l 57 1156 l 1157 1156 q 1156 949 1157 1032 q 1149 811 1154 865 q 1131 718 1143 757 m 1056 718 l 794 764 l 794 718 l 1056 718 m 1168 257 l 1169 254 l 1207 -14 q 1148 -42 1200 -29 q 1013 -63 1096 -54 q 828 -77 929 -72 q 619 -83 726 -82 q 410 -78 511 -83 q 230 -62 310 -74 q 103 -33 150 -51 q 56 10 56 -15 l 56 261 l 557 261 l 557 286 l 56 286 l 56 436 l 1167 436 l 1167 293 q 1119 265 1167 285 q 967 224 1072 244 q 685 197 861 204 l 685 172 q 920 190 828 178 q 1066 217 1013 203 q 1142 244 1119 232 q 1168 257 1164 256 z "},"굠":{"ha":1225,"x_min":19,"x_max":1207,"o":"m 1133 675 l 1207 675 l 1207 425 l 19 425 l 19 675 l 107 675 l 107 788 l 432 788 l 432 675 l 494 675 l 494 788 l 774 788 q 782 842 782 817 l 57 842 l 57 1142 l 1157 1142 q 1156 851 1157 967 q 1133 675 1154 736 m 1032 675 l 794 722 l 794 675 l 1032 675 m 1169 -60 l 57 -60 l 57 393 l 1169 393 l 1169 -60 m 807 217 l 419 217 l 419 192 l 807 192 l 807 217 z "},"굡":{"ha":1225,"x_min":19,"x_max":1207,"o":"m 1135 685 l 1207 685 l 1207 435 l 19 435 l 19 685 l 107 685 l 107 797 l 432 797 l 432 685 l 494 685 l 494 797 l 775 797 q 780 824 778 810 q 782 856 782 838 l 57 856 l 57 1156 l 1157 1156 q 1156 860 1157 975 q 1135 685 1154 746 m 1039 685 l 794 726 l 794 685 l 1039 685 m 425 353 l 800 353 l 800 403 l 1175 403 l 1175 -58 l 50 -58 l 50 403 l 425 403 l 425 353 m 425 208 l 425 160 l 800 160 l 800 208 l 425 208 z "},"굣":{"ha":1225,"x_min":19,"x_max":1207,"o":"m 1132 658 l 1207 658 l 1207 408 l 19 408 l 19 658 l 107 658 l 107 785 l 432 785 l 432 658 l 494 658 l 494 785 l 775 785 q 780 812 778 799 q 782 842 782 825 l 57 842 l 57 1142 l 1157 1142 q 1156 839 1157 957 q 1132 658 1154 721 m 1044 658 l 794 708 l 794 658 l 1044 658 m 419 378 l 807 378 q 806 340 808 360 q 796 301 803 321 q 970 291 889 299 q 1113 274 1051 283 q 1207 251 1175 264 l 1149 -71 q 1045 -47 1121 -60 q 863 -24 969 -33 q 635 -14 757 -14 l 656 121 q 496 28 588 69 q 296 -37 404 -14 q 68 -58 188 -60 l 32 269 q 148 279 85 272 q 269 299 211 286 q 369 331 328 311 q 419 378 410 350 z "},"굥":{"ha":1225,"x_min":19,"x_max":1207,"o":"m 1133 678 l 1207 678 l 1207 415 l 19 415 l 19 678 l 107 678 l 107 785 l 432 785 l 432 678 l 494 678 l 494 785 l 774 785 q 779 814 776 800 q 782 842 782 828 l 57 842 l 57 1142 l 1157 1142 q 1156 849 1157 958 q 1133 678 1154 739 m 1032 678 l 794 725 l 794 678 l 1032 678 m 257 389 l 969 389 q 1097 358 1046 389 q 1176 276 1149 326 q 1203 168 1203 226 q 1140 -7 1203 58 q 969 -72 1076 -72 l 257 -72 q 89 -6 154 -72 q 24 168 24 60 q 53 276 24 226 q 136 358 83 326 q 257 389 189 389 m 397 179 l 828 179 q 835 181 831 179 q 840 192 840 182 q 835 203 840 201 q 828 204 831 204 l 397 204 q 389 203 393 204 q 385 192 385 201 q 389 181 385 182 q 397 179 393 179 z "},"구":{"ha":1225,"x_min":25,"x_max":1200,"o":"m 1119 535 l 1200 535 l 1200 185 l 819 185 l 819 -58 l 407 -58 l 407 185 l 25 185 l 25 535 l 1072 535 l 739 600 q 765 686 757 653 q 775 767 772 719 l 63 767 l 63 1129 l 1150 1129 q 1149 909 1150 999 q 1147 760 1149 819 q 1142 661 1146 700 q 1133 593 1139 622 q 1119 535 1128 564 z "},"국":{"ha":1225,"x_min":19,"x_max":1207,"o":"m 1207 667 l 1207 392 l 800 392 l 800 347 l 1169 347 l 1169 -58 l 782 -58 l 782 54 l 44 54 l 44 347 l 425 347 l 425 392 l 19 392 l 19 667 l 1044 667 l 757 724 q 774 782 767 753 q 782 842 782 811 l 57 842 l 57 1142 l 1157 1142 q 1156 847 1157 965 q 1132 667 1154 728 l 1207 667 z "},"군":{"ha":1225,"x_min":19,"x_max":1207,"o":"m 1132 644 l 1207 644 l 1207 369 l 819 369 l 819 272 l 469 272 l 469 369 l 19 369 l 19 644 l 1044 644 l 754 701 q 774 767 765 735 q 782 842 782 800 l 57 842 l 57 1142 l 1157 1142 q 1156 826 1157 947 q 1132 644 1154 706 m 44 329 l 432 329 l 432 242 l 1182 242 l 1182 -58 l 44 -58 l 44 329 z "},"굳":{"ha":1225,"x_min":19,"x_max":1207,"o":"m 1207 688 l 1207 438 l 788 438 l 788 394 l 1176 394 l 1175 213 l 443 213 l 443 172 l 1188 172 l 1188 -58 l 56 -58 l 56 350 l 57 350 l 57 394 l 438 394 l 438 438 l 19 438 l 19 688 l 1032 688 l 757 743 q 774 788 767 767 q 782 842 782 810 l 57 842 l 57 1142 l 1157 1142 q 1156 862 1157 975 q 1133 688 1154 749 l 1207 688 z "},"굴":{"ha":1225,"x_min":19,"x_max":1207,"o":"m 19 488 l 19 738 l 1046 738 l 763 782 q 776 822 769 801 q 782 856 782 842 l 57 856 l 57 1156 l 1157 1156 q 1156 964 1157 1043 q 1149 831 1154 885 q 1131 738 1143 776 l 1207 738 l 1207 488 l 786 488 l 786 444 l 1167 444 l 1167 293 q 1119 265 1167 285 q 967 224 1072 244 q 685 197 861 204 l 685 172 q 920 190 828 178 q 1066 217 1013 203 q 1142 244 1119 232 q 1168 257 1164 256 l 1169 254 l 1207 -14 q 1148 -42 1200 -29 q 1013 -63 1096 -54 q 828 -77 929 -72 q 619 -83 726 -82 q 410 -78 511 -83 q 230 -62 310 -74 q 103 -33 150 -51 q 56 10 56 -15 l 56 269 l 557 269 l 557 294 l 56 294 l 56 444 l 436 444 l 436 488 l 19 488 z "},"굵":{"ha":1225,"x_min":19,"x_max":1207,"o":"m 1207 708 l 1207 458 l 788 458 l 788 418 l 1182 418 l 1182 -58 l 807 -58 l 807 124 l 664 124 l 707 -33 q 631 -62 688 -50 q 501 -81 575 -75 q 347 -86 426 -87 q 200 -76 268 -85 q 90 -49 132 -67 q 47 -3 47 -31 l 44 243 l 269 243 l 269 268 l 44 268 l 44 418 l 438 418 l 438 458 l 19 458 l 19 708 l 1072 708 l 756 757 q 774 806 767 783 q 782 847 782 828 l 57 847 l 57 1142 l 1157 1142 q 1156 878 1157 986 q 1132 708 1156 769 l 1207 708 m 381 181 l 381 156 q 562 172 492 150 q 632 238 632 194 l 632 368 l 607 368 l 607 238 q 553 196 607 217 q 381 181 500 175 z "},"굶":{"ha":1225,"x_min":19,"x_max":1207,"o":"m 1207 697 l 1207 447 l 788 447 l 788 406 l 1182 406 l 1182 -58 l 636 -58 q 550 -75 604 -68 q 430 -84 496 -82 q 299 -83 364 -86 q 177 -72 233 -81 q 86 -47 121 -62 q 49 -8 51 -31 l 44 231 l 282 231 l 282 256 l 44 256 l 44 406 l 438 406 l 438 447 l 19 447 l 19 697 l 1064 697 l 756 744 q 774 795 767 771 q 782 842 782 819 l 57 842 l 57 1142 l 1157 1142 q 1156 868 1157 978 q 1132 697 1156 758 l 1207 697 m 594 204 l 596 203 l 636 56 l 636 343 l 596 343 l 596 238 q 570 219 596 235 q 497 191 544 204 q 382 181 450 178 l 382 156 q 494 163 450 153 q 564 187 539 174 q 594 204 589 200 m 918 267 l 893 267 l 893 117 l 918 117 l 918 267 z "},"굻":{"ha":1225,"x_min":19,"x_max":1207,"o":"m 1207 710 l 1207 460 l 788 460 l 788 433 l 1064 433 l 1064 386 l 1182 386 l 1182 219 l 1128 219 q 1167 180 1151 206 q 1182 110 1182 154 q 1172 29 1182 68 q 1122 -34 1161 -10 q 996 -58 1082 -58 l 771 -58 q 714 -51 738 -58 q 675 -33 690 -44 q 606 -56 658 -46 q 484 -72 554 -67 q 340 -78 414 -78 q 200 -71 265 -78 q 92 -49 135 -64 q 47 -8 50 -33 l 44 243 l 282 243 l 282 268 l 44 268 l 44 418 l 438 418 l 438 460 l 19 460 l 19 710 l 1064 710 l 757 757 q 774 801 767 779 q 782 842 782 822 l 57 842 l 57 1142 l 1157 1142 q 1156 879 1157 988 q 1132 710 1156 771 l 1207 710 m 626 219 l 626 386 l 739 386 l 739 411 l 594 411 l 594 225 q 569 207 594 222 q 496 178 543 192 q 381 168 449 165 l 381 143 q 494 151 449 140 q 564 174 539 161 q 594 192 589 188 l 594 190 l 628 99 l 628 110 q 641 180 628 154 q 676 219 654 206 l 626 219 m 815 118 l 982 118 q 990 119 985 118 q 994 131 994 121 q 990 142 994 140 q 982 143 985 143 l 815 143 q 806 142 810 143 q 803 131 803 140 q 806 119 803 121 q 815 118 810 118 z "},"굼":{"ha":1225,"x_min":19,"x_max":1207,"o":"m 1207 688 l 1207 438 l 788 438 l 788 393 l 1169 393 l 1169 -60 l 57 -60 l 57 393 l 438 393 l 438 438 l 19 438 l 19 688 l 1032 688 l 757 743 q 775 792 768 772 q 782 842 782 811 l 57 842 l 57 1142 l 1157 1142 q 1156 862 1157 975 q 1133 688 1154 749 l 1207 688 m 419 192 l 807 192 l 807 217 l 419 217 l 419 192 z "},"굽":{"ha":1225,"x_min":19,"x_max":1207,"o":"m 1135 694 l 1207 694 l 1207 444 l 782 444 l 782 381 l 444 381 l 444 444 l 19 444 l 19 694 l 1032 694 l 760 736 q 774 785 767 761 q 782 842 782 810 l 57 842 l 57 1142 l 1157 1142 q 1156 860 1157 965 q 1135 694 1154 754 m 413 353 l 813 353 l 813 407 l 1175 407 l 1175 -58 l 50 -58 l 50 407 l 413 407 l 413 353 m 413 208 l 413 160 l 813 160 l 813 208 l 413 208 z "},"굿":{"ha":1225,"x_min":19,"x_max":1207,"o":"m 1132 683 l 1207 683 l 1207 433 l 807 433 l 807 385 l 419 385 l 419 433 l 19 433 l 19 683 l 1044 683 l 757 742 q 774 790 767 765 q 782 842 782 815 l 57 842 l 57 1142 l 1157 1142 q 1156 855 1157 965 q 1132 683 1154 744 m 419 356 l 807 356 q 803 301 810 329 q 974 291 893 299 q 1115 274 1054 283 q 1207 251 1175 264 l 1149 -71 q 1045 -47 1121 -60 q 863 -24 969 -33 q 635 -14 757 -14 l 654 111 q 399 -11 553 38 q 68 -58 246 -60 l 32 269 q 148 277 85 272 q 269 292 211 282 q 369 317 328 301 q 419 356 410 332 z "},"궁":{"ha":1225,"x_min":19,"x_max":1207,"o":"m 1207 690 l 1207 428 l 788 428 l 788 390 l 969 390 q 1097 359 1046 390 q 1176 277 1149 328 q 1203 168 1203 226 q 1140 -7 1203 58 q 969 -72 1076 -72 l 257 -72 q 89 -6 154 -72 q 24 168 24 60 q 53 277 24 226 q 136 359 83 328 q 257 390 189 390 l 438 390 l 438 428 l 19 428 l 19 690 l 1032 690 l 757 744 q 774 794 767 769 q 782 842 782 819 l 57 842 l 57 1142 l 1157 1142 q 1156 859 1157 967 q 1133 690 1154 751 l 1207 690 m 840 192 q 835 203 840 201 q 828 204 831 204 l 397 204 q 389 203 393 204 q 385 192 385 201 q 389 181 385 182 q 397 179 393 179 l 828 179 q 835 181 831 179 q 840 192 840 182 z "},"궂":{"ha":1225,"x_min":19,"x_max":1207,"o":"m 1207 719 l 1207 469 l 788 469 l 788 425 l 1160 425 l 1160 257 l 794 257 q 790 244 793 250 q 783 231 786 238 q 1026 221 921 231 q 1179 197 1131 211 l 1133 -58 q 1036 -41 1106 -50 q 867 -26 967 -32 q 644 -22 767 -19 l 658 81 q 411 -29 561 8 q 76 -67 261 -67 l 42 215 q 197 224 114 217 q 346 257 281 231 l 54 257 l 54 425 l 438 425 l 438 469 l 19 469 l 19 719 l 1029 719 l 760 763 q 776 806 769 786 q 782 842 782 826 l 57 842 l 57 1142 l 1157 1142 q 1156 876 1157 975 q 1135 719 1154 778 l 1207 719 z "},"궃":{"ha":1225,"x_min":19,"x_max":1207,"o":"m 1131 732 l 1207 732 l 1207 482 l 807 482 l 807 439 l 419 439 l 419 482 l 19 482 l 19 732 l 1040 732 l 763 776 q 774 808 768 789 q 782 842 781 828 l 57 842 l 57 1142 l 1157 1142 q 1156 947 1157 1024 q 1149 819 1154 869 q 1131 732 1143 769 m 1160 232 l 793 232 q 787 218 790 225 q 781 204 783 211 q 1024 194 918 204 q 1179 171 1129 185 l 1133 -64 q 1036 -46 1106 -56 q 867 -30 967 -36 q 644 -28 767 -24 l 658 68 q 411 -33 561 1 q 76 -67 261 -67 l 42 190 q 200 198 115 192 q 351 232 285 204 l 54 232 l 54 382 l 421 382 l 421 414 l 808 414 q 810 397 810 406 q 810 382 810 389 l 1160 382 l 1160 232 z "},"궈":{"ha":1225,"x_min":13,"x_max":1200,"o":"m 825 360 l 825 1142 l 1200 1142 l 1200 -58 l 825 -58 l 825 47 l 675 47 l 675 244 q 628 242 653 243 q 575 240 603 240 q 549 63 567 146 q 513 -69 532 -21 l 175 -6 q 206 102 192 39 q 228 233 219 165 l 13 233 l 13 533 q 252 533 132 533 q 477 536 372 533 q 657 543 582 539 l 369 600 q 403 699 393 653 q 414 775 414 746 l 51 775 l 51 1100 l 751 1100 q 749 867 751 961 q 740 712 746 772 q 728 613 735 651 q 711 547 721 575 q 738 551 726 549 q 757 554 749 553 l 797 360 l 825 360 z "},"궉":{"ha":1225,"x_min":25,"x_max":1200,"o":"m 1200 1142 l 1200 368 l 825 368 l 825 411 l 688 411 l 688 456 q 631 453 661 454 q 567 450 600 451 q 535 336 551 382 l 1200 336 l 1200 -58 l 813 -58 l 813 6 l 63 6 l 63 336 l 457 336 l 232 382 q 242 415 238 400 q 253 444 247 431 l 25 444 l 25 694 q 283 695 154 694 q 524 699 413 696 q 706 707 635 701 l 403 751 q 418 797 411 775 q 425 842 425 819 l 63 842 l 63 1129 l 763 1129 q 763 978 763 1040 q 760 871 763 915 q 751 788 758 826 q 732 708 744 750 q 756 712 746 710 q 775 715 767 714 l 797 624 l 825 624 l 825 1142 l 1200 1142 z "},"권":{"ha":1225,"x_min":19,"x_max":1207,"o":"m 457 328 l 457 260 l 1207 260 l 1207 -58 l 57 -58 l 57 340 l 394 340 l 225 375 q 233 399 229 388 q 242 422 238 411 l 19 422 l 19 672 q 255 672 136 672 q 478 675 374 672 q 657 682 582 678 l 388 725 q 419 833 419 793 l 69 833 l 69 1121 l 757 1121 q 757 955 757 1021 q 755 843 757 889 q 747 762 753 797 q 729 686 740 726 q 751 690 740 689 q 769 693 761 692 l 799 572 l 819 572 l 819 1142 l 1194 1142 l 1194 297 l 819 297 l 819 360 l 682 360 l 682 432 q 557 428 626 431 q 522 314 542 358 l 457 328 z "},"궐":{"ha":1225,"x_min":10,"x_max":1213,"o":"m 10 515 l 10 765 q 264 765 140 765 q 492 768 388 765 q 667 775 597 771 l 383 810 q 397 860 394 836 l 47 860 l 47 1135 l 735 1135 q 735 971 735 1033 q 731 866 735 908 q 713 781 726 824 q 732 783 724 782 q 747 785 740 783 l 769 696 l 797 696 l 797 1142 l 1172 1142 l 1172 449 l 797 449 l 797 483 l 660 483 l 660 524 q 596 521 629 522 q 525 519 563 519 q 497 421 513 461 l 1172 421 l 1172 306 q 1124 274 1172 297 q 967 228 1075 251 q 679 197 860 206 l 679 172 q 920 194 825 179 q 1069 225 1015 208 q 1147 255 1124 242 q 1174 269 1171 268 l 1176 267 l 1213 -14 q 1154 -42 1207 -29 q 1017 -63 1101 -54 q 829 -77 932 -72 q 617 -83 726 -82 q 407 -78 508 -83 q 224 -62 306 -74 q 95 -33 143 -51 q 47 10 47 -15 l 47 246 l 549 246 l 549 271 l 47 271 l 47 421 l 393 421 l 192 463 q 201 490 196 478 q 210 515 206 503 l 10 515 z "},"궜":{"ha":1225,"x_min":25,"x_max":1203,"o":"m 999 324 q 1117 312 1064 322 q 1203 282 1171 301 l 1125 -68 q 988 -31 1072 -44 q 819 -18 904 -18 l 844 79 q 690 -6 781 32 q 479 -68 600 -44 l 424 53 q 351 9 400 33 q 242 -36 301 -15 q 128 -68 183 -57 l 25 254 q 126 281 83 256 q 191 344 168 307 q 214 419 214 382 l 407 419 l 207 461 q 213 480 210 471 q 219 499 217 489 l 25 499 l 25 749 q 269 749 150 749 q 489 751 388 749 q 660 758 590 754 l 392 793 q 403 825 399 811 q 410 854 408 839 l 47 854 l 47 1129 l 735 1129 q 735 988 735 1044 q 734 892 735 931 q 728 825 733 854 q 713 764 724 796 q 730 767 722 765 q 744 769 738 768 l 769 671 l 800 671 l 800 1142 l 1175 1142 l 1175 417 l 800 417 l 800 458 l 675 458 l 675 508 q 610 506 644 507 q 536 504 575 506 q 524 460 531 481 q 513 419 518 439 l 589 419 q 581 343 589 372 q 557 274 574 314 l 581 265 q 606 333 599 300 q 614 392 613 367 l 1001 392 q 1002 358 1003 375 q 999 324 1001 340 z "},"궝":{"ha":1225,"x_min":13,"x_max":1207,"o":"m 1188 390 l 1028 390 q 1160 308 1113 372 q 1207 164 1207 243 q 1175 40 1207 93 q 1088 -42 1143 -14 q 961 -71 1032 -71 l 290 -71 q 165 -42 221 -71 q 77 41 110 -12 q 44 164 44 94 q 77 280 44 228 q 166 364 110 332 q 290 396 222 396 l 382 396 l 207 440 q 214 462 210 451 q 219 482 218 472 l 13 482 l 13 732 q 256 732 135 732 q 483 735 378 732 q 663 742 589 738 l 378 775 q 391 819 386 799 q 397 858 396 839 l 47 858 l 47 1129 l 735 1129 q 735 978 735 1039 q 734 878 735 918 q 728 807 733 838 q 713 744 724 776 q 737 748 726 746 q 757 751 747 750 l 782 651 l 813 651 l 813 1142 l 1188 1142 l 1188 390 m 539 486 q 515 396 528 435 l 813 396 l 813 439 l 675 439 l 675 492 q 611 489 644 490 q 539 486 578 488 m 394 175 l 857 175 q 865 176 861 175 q 869 188 869 178 q 865 199 869 197 q 857 200 861 200 l 394 200 q 385 199 389 200 q 382 188 382 197 q 385 176 382 178 q 394 175 389 175 z "},"궤":{"ha":1225,"x_min":13,"x_max":1200,"o":"m 925 -58 l 925 1142 l 1200 1142 l 1200 -58 l 925 -58 m 608 360 l 632 360 l 632 1117 l 894 1117 l 894 -33 l 632 -33 l 632 110 l 525 110 l 525 275 l 460 271 q 440 88 454 174 q 407 -51 426 1 l 89 0 q 116 120 104 49 q 133 265 128 192 l 13 265 l 13 553 q 299 553 183 551 q 489 560 414 554 l 232 607 q 260 684 251 650 q 269 757 269 718 l 32 757 l 32 1082 l 582 1082 q 579 864 582 951 q 572 721 576 776 q 560 630 567 665 q 543 567 553 594 q 563 569 554 568 q 582 572 572 571 l 608 360 z "},"궷":{"ha":1225,"x_min":13,"x_max":1213,"o":"m 950 1142 l 1200 1142 l 1200 340 l 950 340 l 950 1142 m 831 315 q 1051 297 953 310 q 1213 261 1149 285 l 1156 -58 q 944 -12 1074 -28 q 654 1 815 4 l 668 93 q 417 -18 567 24 q 86 -58 268 -60 l 50 264 q 158 267 100 264 q 270 276 215 269 q 368 299 325 283 q 432 343 411 315 l 157 400 q 189 488 176 449 l 13 488 l 13 738 q 300 734 161 733 q 532 740 439 735 l 300 782 q 313 813 307 797 q 319 842 319 828 l 44 842 l 44 1117 l 619 1117 q 619 970 619 1029 q 617 872 619 911 q 610 803 615 832 q 594 746 604 774 q 613 750 604 749 q 628 753 621 751 l 656 643 l 682 643 l 682 1129 l 919 1129 l 919 393 l 682 393 l 682 431 l 575 431 l 575 494 l 496 490 q 482 423 490 456 q 464 365 474 390 l 832 365 q 833 340 833 351 q 831 315 832 328 z "},"궸":{"ha":1225,"x_min":13,"x_max":1208,"o":"m 1000 304 q 1122 291 1065 301 q 1208 263 1178 281 l 1135 -81 q 1047 -53 1100 -64 q 934 -36 993 -42 q 818 -31 875 -31 l 839 57 q 686 -23 775 13 q 479 -81 597 -58 l 411 40 q 338 -3 388 21 q 230 -49 289 -28 q 115 -81 171 -69 l 13 242 q 139 294 90 253 q 189 382 188 335 l 357 382 l 150 425 l 175 493 l 13 493 l 13 743 q 300 739 161 739 q 532 744 439 739 l 301 786 q 314 814 308 800 q 319 842 319 828 l 44 842 l 44 1117 l 619 1117 q 619 971 619 1029 q 617 874 619 913 q 610 807 615 835 q 594 751 604 779 q 613 755 604 754 q 628 757 621 756 l 660 631 l 682 631 l 682 1129 l 919 1129 l 919 381 l 682 381 l 682 418 l 575 418 l 575 499 l 486 494 q 456 382 474 431 l 590 382 q 582 330 590 363 q 554 261 574 297 l 576 253 q 595 290 588 268 q 608 330 603 311 q 614 354 614 349 l 950 354 l 950 1142 l 1200 1142 l 1200 340 l 1003 340 q 1002 322 1003 331 q 1000 304 1001 314 z "},"귀":{"ha":1225,"x_min":25,"x_max":1200,"o":"m 825 325 l 825 1142 l 1200 1142 l 1200 -58 l 825 -58 l 825 257 q 738 247 794 251 q 606 240 681 243 q 581 63 597 146 q 544 -69 564 -21 l 207 -6 q 237 103 224 39 q 258 233 250 167 l 25 233 l 25 533 q 265 533 144 533 q 493 536 386 533 q 675 543 600 539 l 389 600 q 422 699 413 653 q 432 775 432 746 l 69 775 l 69 1100 l 769 1100 q 767 866 769 960 q 759 712 764 772 q 747 613 754 651 q 731 547 740 575 q 757 551 746 549 q 778 554 768 553 l 825 325 z "},"귁":{"ha":1225,"x_min":25,"x_max":1200,"o":"m 1200 1142 l 1200 381 l 825 381 l 825 468 q 722 457 790 461 q 564 450 654 453 q 550 395 558 421 q 535 349 542 369 l 1200 349 l 1200 -58 l 813 -58 l 813 18 l 63 18 l 63 349 l 457 349 l 232 394 q 249 444 240 422 l 25 444 l 25 694 q 283 695 154 694 q 524 699 413 696 q 706 707 635 701 l 403 751 q 418 797 411 775 q 425 842 425 819 l 63 842 l 63 1129 l 763 1129 q 763 978 763 1040 q 760 871 763 915 q 751 788 758 826 q 732 708 744 750 q 756 712 746 710 q 775 715 767 714 l 825 515 l 825 1142 l 1200 1142 z "},"귄":{"ha":1225,"x_min":19,"x_max":1207,"o":"m 457 339 l 457 260 l 1207 260 l 1207 -58 l 57 -58 l 57 346 l 419 346 l 250 382 q 258 403 254 393 q 264 422 261 413 l 19 422 l 19 672 q 255 672 136 672 q 478 675 374 672 q 657 682 582 678 l 388 725 q 419 833 419 793 l 69 833 l 69 1121 l 757 1121 q 757 955 757 1021 q 755 843 757 889 q 747 762 753 797 q 729 686 740 726 q 751 690 740 689 q 769 693 761 692 l 819 493 l 819 1142 l 1194 1142 l 1194 297 l 819 297 l 819 444 q 725 435 786 439 q 582 428 664 431 q 547 319 565 361 l 457 339 z "},"귈":{"ha":1225,"x_min":22,"x_max":1213,"o":"m 22 513 l 22 763 q 275 763 153 763 q 499 765 397 763 q 669 772 601 768 l 396 807 q 410 857 407 833 l 47 857 l 47 1132 l 735 1132 q 735 968 735 1031 q 731 863 735 906 q 713 778 726 821 q 747 782 731 779 l 797 582 l 797 1142 l 1172 1142 l 1172 464 l 797 464 l 797 535 q 703 525 765 529 q 558 518 642 521 q 535 433 549 472 l 1172 433 l 1172 306 q 1124 274 1172 297 q 967 228 1075 251 q 679 197 860 206 l 679 172 q 920 194 825 179 q 1069 225 1015 208 q 1147 255 1124 242 q 1174 269 1171 268 l 1176 267 l 1213 -14 q 1154 -42 1207 -29 q 1017 -63 1101 -54 q 829 -77 932 -72 q 617 -83 726 -82 q 407 -78 508 -83 q 224 -62 306 -74 q 95 -33 143 -51 q 47 10 47 -15 l 47 258 l 550 258 l 550 283 l 47 283 l 47 433 l 432 433 l 229 475 q 235 494 232 485 q 242 513 239 504 l 22 513 z "},"귐":{"ha":1225,"x_min":25,"x_max":1188,"o":"m 1188 1142 l 1188 408 l 813 408 l 813 506 q 715 494 779 499 q 567 488 651 490 q 552 428 560 457 q 536 379 544 400 l 1188 379 l 1188 -58 l 57 -58 l 57 379 l 446 379 l 232 428 l 250 482 l 25 482 l 25 732 q 265 733 146 732 q 488 735 383 733 q 664 742 592 738 l 396 775 q 410 817 404 799 q 417 854 415 835 l 67 854 l 67 1129 l 742 1129 q 742 979 742 1039 q 740 879 742 919 q 734 808 739 839 q 719 746 729 778 q 743 749 732 747 q 763 753 754 751 l 813 553 l 813 1142 l 1188 1142 m 432 167 l 813 167 l 813 192 l 432 192 l 432 167 z "},"귑":{"ha":1225,"x_min":19,"x_max":1188,"o":"m 1188 1142 l 1188 433 l 813 433 l 813 513 q 717 502 781 507 q 572 494 654 497 q 557 433 565 463 q 539 385 549 404 l 444 407 l 444 361 l 800 361 l 800 404 l 1188 404 l 1188 -58 l 57 -58 l 57 417 l 401 417 l 242 453 q 248 472 244 463 q 254 490 251 481 l 19 490 l 19 740 q 258 740 139 740 q 480 742 376 740 q 657 749 583 744 l 399 782 q 413 819 407 801 q 419 854 418 838 l 69 854 l 69 1129 l 744 1129 q 744 983 744 1042 q 743 885 744 925 q 737 815 742 846 q 721 754 732 785 q 745 758 735 757 q 763 760 756 758 l 813 560 l 813 1142 l 1188 1142 m 800 142 l 800 186 l 444 186 l 444 142 l 800 142 z "},"귓":{"ha":1225,"x_min":13,"x_max":1188,"o":"m 803 319 q 1026 299 926 314 q 1188 261 1125 285 l 1131 -58 q 922 -8 1053 -26 q 629 7 790 10 l 643 103 q 392 -15 542 31 q 61 -58 243 -60 l 25 264 q 132 268 75 264 q 244 283 189 272 q 342 312 299 293 q 407 360 385 331 l 219 403 l 244 469 l 13 469 l 13 719 q 252 719 133 719 q 475 722 371 719 q 651 729 579 725 l 383 763 q 397 806 392 786 q 404 854 403 825 l 54 854 l 54 1129 l 729 1129 q 729 972 729 1035 q 728 869 729 910 q 722 797 726 828 q 707 733 717 765 q 731 737 719 735 q 750 740 742 739 l 800 540 l 800 1142 l 1175 1142 l 1175 379 l 807 379 q 803 319 808 349 m 800 385 l 800 493 q 703 482 767 486 q 557 475 640 478 q 546 428 551 451 q 533 385 540 404 l 800 385 z "},"귕":{"ha":1225,"x_min":25,"x_max":1200,"o":"m 1182 403 l 1021 403 q 1153 319 1106 385 q 1200 169 1200 254 q 1168 41 1200 96 q 1081 -42 1136 -14 q 956 -71 1026 -71 l 283 -71 q 158 -41 214 -71 q 70 43 103 -11 q 38 169 38 97 q 70 291 38 238 q 159 376 103 344 q 283 408 215 408 l 363 408 l 225 440 l 240 482 l 25 482 l 25 732 q 263 733 146 732 q 483 735 381 733 q 657 742 585 738 l 390 775 q 403 817 399 799 q 410 854 408 835 l 60 854 l 60 1129 l 735 1129 q 735 979 735 1039 q 734 879 735 919 q 728 808 733 839 q 713 746 724 778 q 737 749 726 747 q 757 753 747 751 l 807 553 l 807 1142 l 1182 1142 l 1182 403 m 557 488 q 536 408 549 444 l 807 408 l 807 506 q 708 494 772 499 q 557 488 643 490 m 388 182 l 851 182 q 860 183 856 182 q 864 194 864 185 q 860 206 864 204 q 851 207 856 207 l 388 207 q 379 206 383 207 q 375 194 375 204 q 379 183 375 185 q 388 182 383 182 z "},"규":{"ha":1225,"x_min":25,"x_max":1200,"o":"m 1119 535 l 1200 535 l 1200 185 l 1050 185 l 1050 -58 l 675 -58 l 675 185 l 550 185 l 550 -58 l 175 -58 l 175 185 l 25 185 l 25 535 l 1072 535 l 739 600 q 765 686 757 653 q 775 767 772 719 l 63 767 l 63 1129 l 1150 1129 q 1149 909 1150 999 q 1147 760 1149 819 q 1142 661 1146 700 q 1133 593 1139 622 q 1119 535 1128 564 z "},"균":{"ha":1225,"x_min":19,"x_max":1207,"o":"m 1057 372 l 1057 279 l 719 279 l 719 372 l 644 372 l 644 279 l 444 279 l 444 242 l 1182 242 l 1182 -58 l 57 -58 l 57 329 l 307 329 l 307 372 l 19 372 l 19 647 l 1044 647 l 757 706 q 774 768 767 739 q 782 842 782 797 l 57 842 l 57 1142 l 1157 1142 q 1156 828 1157 947 q 1132 647 1154 710 l 1207 647 l 1207 372 l 1057 372 z "},"귤":{"ha":1225,"x_min":19,"x_max":1207,"o":"m 19 488 l 19 738 l 1046 738 l 763 782 q 776 822 769 801 q 782 856 782 842 l 57 856 l 57 1156 l 1157 1156 q 1156 964 1157 1043 q 1149 831 1154 885 q 1131 738 1143 776 l 1207 738 l 1207 488 l 1032 488 l 1032 444 l 1167 444 l 1167 293 q 1119 265 1167 285 q 967 224 1072 244 q 685 197 861 204 l 685 172 q 920 190 828 178 q 1066 217 1013 203 q 1142 244 1119 232 q 1168 257 1164 256 l 1169 254 l 1207 -14 q 1148 -42 1200 -29 q 1013 -63 1096 -54 q 828 -77 929 -72 q 619 -83 726 -82 q 410 -78 511 -83 q 230 -62 310 -74 q 103 -33 150 -51 q 56 10 56 -15 l 56 269 l 557 269 l 557 294 l 56 294 l 56 444 l 194 444 l 194 488 l 19 488 m 532 444 l 694 444 l 694 488 l 532 488 l 532 444 z "},"귬":{"ha":1225,"x_min":19,"x_max":1207,"o":"m 1207 688 l 1207 438 l 1032 438 l 1032 393 l 1169 393 l 1169 -60 l 57 -60 l 57 393 l 194 393 l 194 438 l 19 438 l 19 688 l 1032 688 l 757 743 q 775 792 768 772 q 782 842 782 811 l 57 842 l 57 1142 l 1157 1142 q 1156 862 1157 975 q 1133 688 1154 749 l 1207 688 m 532 393 l 694 393 l 694 438 l 532 438 l 532 393 m 419 192 l 807 192 l 807 217 l 419 217 l 419 192 z "},"귭":{"ha":1225,"x_min":19,"x_max":1207,"o":"m 1207 707 l 1207 457 l 1007 457 l 1007 394 l 1175 394 l 1175 -58 l 50 -58 l 50 394 l 219 394 l 219 457 l 19 457 l 19 707 l 1032 707 l 760 750 q 774 799 767 774 q 782 856 782 824 l 57 856 l 57 1156 l 1157 1156 q 1156 874 1157 979 q 1135 707 1154 768 l 1207 707 m 813 340 l 813 385 l 669 385 l 669 457 l 557 457 l 557 385 l 413 385 l 413 340 l 813 340 m 413 196 l 413 147 l 813 147 l 813 196 l 413 196 z "},"그":{"ha":1225,"x_min":25,"x_max":1200,"o":"m 1107 329 l 1200 329 l 1200 -21 l 25 -21 l 25 329 l 1058 329 l 719 394 q 753 503 742 454 q 770 602 765 553 q 775 711 775 651 l 63 711 l 63 1074 l 1150 1074 q 1149 789 1150 904 q 1144 599 1147 674 q 1137 476 1142 524 q 1125 395 1132 428 q 1107 329 1118 363 z "},"극":{"ha":1225,"x_min":19,"x_max":1207,"o":"m 1132 660 l 1207 660 l 1207 385 l 19 385 l 19 660 l 1044 660 l 757 718 q 774 777 767 747 q 782 842 782 807 l 57 842 l 57 1142 l 1157 1142 q 1156 844 1157 965 q 1132 660 1154 724 m 782 54 l 44 54 l 44 347 l 1169 347 l 1169 -58 l 782 -58 l 782 54 z "},"근":{"ha":1225,"x_min":19,"x_max":1207,"o":"m 1132 642 l 1207 642 l 1207 367 l 19 367 l 19 642 l 1044 642 l 754 699 q 774 767 765 738 q 782 842 782 797 l 57 842 l 57 1142 l 1157 1142 q 1156 825 1157 947 q 1132 642 1154 703 m 57 329 l 444 329 l 444 242 l 1182 242 l 1182 -58 l 57 -58 l 57 329 z "},"귿":{"ha":1225,"x_min":19,"x_max":1207,"o":"m 1133 682 l 1207 682 l 1207 432 l 19 432 l 19 682 l 1032 682 l 757 736 q 774 785 767 763 q 782 842 782 807 l 57 842 l 57 1142 l 1157 1142 q 1156 860 1157 975 q 1133 682 1154 744 m 1175 213 l 443 213 l 443 172 l 1188 172 l 1188 -58 l 56 -58 l 56 350 l 57 350 l 57 394 l 1176 394 l 1175 213 z "},"글":{"ha":1225,"x_min":19,"x_max":1207,"o":"m 1131 721 l 1207 721 l 1207 471 l 19 471 l 19 721 l 1046 721 l 763 767 q 776 806 769 785 q 782 847 782 828 l 57 847 l 57 1142 l 1157 1142 q 1156 945 1157 1025 q 1149 813 1154 865 q 1131 721 1143 760 m 56 436 l 1167 436 l 1167 293 q 1119 265 1167 285 q 967 224 1072 244 q 685 197 861 204 l 685 172 q 920 190 828 178 q 1066 217 1013 203 q 1142 244 1119 232 q 1168 257 1164 256 l 1169 254 l 1207 -14 q 1148 -42 1200 -29 q 1013 -63 1096 -54 q 828 -77 929 -72 q 619 -83 726 -82 q 410 -78 511 -83 q 230 -62 310 -74 q 103 -33 150 -51 q 56 10 56 -15 l 56 261 l 557 261 l 557 286 l 56 286 l 56 436 z "},"긁":{"ha":1225,"x_min":19,"x_max":1207,"o":"m 1132 689 l 1207 689 l 1207 439 l 19 439 l 19 689 l 1071 689 l 754 738 q 774 792 765 767 q 782 847 782 817 l 57 847 l 57 1142 l 1157 1142 q 1156 862 1157 974 q 1132 689 1156 750 m 632 238 l 632 406 l 1182 406 l 1182 -58 l 807 -58 l 807 111 l 668 111 l 707 -33 q 631 -62 688 -50 q 501 -81 575 -75 q 347 -86 426 -87 q 200 -76 268 -85 q 90 -49 132 -67 q 47 -3 47 -31 l 44 231 l 269 231 l 269 256 l 44 256 l 44 406 l 607 406 l 607 238 q 553 196 607 217 q 381 181 500 175 l 381 156 q 562 172 492 150 q 632 238 632 194 z "},"긂":{"ha":1225,"x_min":19,"x_max":1207,"o":"m 1133 689 l 1207 689 l 1207 439 l 19 439 l 19 689 l 1057 689 l 756 735 q 774 787 765 761 q 782 843 782 813 l 57 843 l 57 1143 l 1157 1143 q 1156 861 1157 972 q 1133 689 1156 750 m 596 203 l 636 56 l 636 406 l 1182 406 l 1182 -58 l 636 -58 q 550 -75 604 -68 q 430 -84 496 -82 q 299 -83 364 -86 q 177 -72 233 -81 q 86 -47 121 -62 q 49 -8 51 -31 l 44 231 l 282 231 l 282 256 l 44 256 l 44 406 l 596 406 l 596 238 q 570 219 596 235 q 497 191 544 204 q 382 181 450 178 l 382 156 q 494 163 450 153 q 564 187 539 174 q 594 204 589 200 l 596 203 m 918 267 l 893 267 l 893 117 l 918 117 l 918 267 z "},"긇":{"ha":1225,"x_min":19,"x_max":1207,"o":"m 1132 701 l 1207 701 l 1207 451 l 19 451 l 19 701 l 1072 701 l 756 750 q 774 795 765 772 q 782 842 782 818 l 57 842 l 57 1142 l 1157 1142 q 1156 872 1157 982 q 1132 701 1156 763 m 739 426 l 1064 426 l 1064 383 l 1182 383 l 1182 217 l 1131 217 q 1167 178 1153 203 q 1182 110 1182 153 q 1172 29 1182 68 q 1122 -34 1161 -10 q 996 -58 1082 -58 l 771 -58 q 714 -51 738 -58 q 675 -33 690 -44 q 606 -56 658 -46 q 484 -72 554 -67 q 340 -78 414 -78 q 200 -71 265 -78 q 92 -49 135 -64 q 47 -8 50 -33 l 44 239 l 282 239 l 282 264 l 44 264 l 44 414 l 594 414 l 594 225 q 569 207 594 222 q 496 178 543 192 q 381 168 449 165 l 381 143 q 494 151 449 140 q 564 174 539 161 q 594 192 589 188 l 594 190 l 628 99 l 628 110 q 640 178 628 153 q 674 217 653 203 l 626 217 l 626 383 l 739 383 l 739 426 m 815 118 l 982 118 q 990 119 985 118 q 994 131 994 121 q 990 142 994 140 q 982 143 985 143 l 815 143 q 806 142 810 143 q 803 131 803 140 q 806 119 803 121 q 815 118 810 118 z "},"금":{"ha":1225,"x_min":19,"x_max":1207,"o":"m 1133 681 l 1207 681 l 1207 431 l 19 431 l 19 681 l 1032 681 l 757 735 q 775 788 768 764 q 782 842 782 811 l 57 842 l 57 1142 l 1157 1142 q 1156 856 1157 971 q 1133 681 1154 742 m 1169 -60 l 57 -60 l 57 394 l 1169 394 l 1169 -60 m 807 215 l 419 215 l 419 190 l 807 190 l 807 215 z "},"급":{"ha":1225,"x_min":19,"x_max":1207,"o":"m 1135 697 l 1207 697 l 1207 447 l 19 447 l 19 697 l 1032 697 l 756 740 q 774 794 765 768 q 782 856 782 819 l 57 856 l 57 1156 l 1157 1156 q 1156 869 1157 979 q 1135 697 1154 758 m 425 353 l 800 353 l 800 413 l 1175 413 l 1175 -58 l 50 -58 l 50 413 l 425 413 l 425 353 m 425 208 l 425 160 l 800 160 l 800 208 l 425 208 z "},"긋":{"ha":1225,"x_min":19,"x_max":1207,"o":"m 1132 671 l 1207 671 l 1207 421 l 19 421 l 19 671 l 1044 671 l 757 729 q 774 780 767 753 q 782 842 782 807 l 57 842 l 57 1142 l 1157 1142 q 1156 844 1157 957 q 1132 671 1154 732 m 419 383 l 807 383 q 806 343 808 364 q 796 301 803 322 q 970 291 889 299 q 1113 274 1051 283 q 1207 251 1175 264 l 1149 -71 q 1045 -47 1121 -60 q 863 -24 969 -33 q 635 -14 757 -14 l 654 119 q 399 -10 553 40 q 68 -58 246 -60 l 32 269 q 148 278 85 272 q 269 296 211 283 q 369 329 328 308 q 419 383 410 350 z "},"긍":{"ha":1225,"x_min":19,"x_max":1207,"o":"m 1133 688 l 1207 688 l 1207 425 l 19 425 l 19 688 l 1032 688 l 757 743 q 774 792 767 767 q 782 842 782 818 l 57 842 l 57 1142 l 1157 1142 q 1156 858 1157 967 q 1133 688 1154 749 m 257 394 l 969 394 q 1097 362 1046 394 q 1176 277 1149 329 q 1203 167 1203 225 q 1140 -8 1203 57 q 969 -72 1076 -72 l 257 -72 q 89 -6 154 -72 q 24 167 24 60 q 53 277 24 225 q 136 362 83 329 q 257 394 189 394 m 397 178 l 828 178 q 835 179 831 178 q 840 190 840 181 q 835 201 840 200 q 828 203 831 203 l 397 203 q 389 201 393 203 q 385 190 385 200 q 389 179 385 181 q 397 178 393 178 z "},"긏":{"ha":1225,"x_min":19,"x_max":1207,"o":"m 1131 719 l 1207 719 l 1207 469 l 19 469 l 19 719 l 1040 719 l 760 764 q 774 803 767 781 q 782 842 781 825 l 57 842 l 57 1142 l 1157 1142 q 1156 944 1157 1024 q 1149 810 1154 864 q 1131 719 1143 757 m 1160 232 l 793 232 q 787 218 790 225 q 781 204 783 211 q 1024 194 918 204 q 1179 171 1129 185 l 1133 -64 q 1036 -46 1106 -56 q 867 -30 967 -36 q 644 -28 767 -24 l 658 68 q 411 -33 561 1 q 76 -67 261 -67 l 42 190 q 200 198 115 192 q 351 232 285 204 l 54 232 l 54 399 l 421 399 q 422 419 422 408 q 421 442 421 431 l 808 442 q 810 420 810 431 q 810 399 810 410 l 1160 399 l 1160 232 z "},"긑":{"ha":1225,"x_min":19,"x_max":1207,"o":"m 1131 719 l 1207 719 l 1207 469 l 19 469 l 19 719 l 1040 719 l 760 764 q 774 803 767 781 q 782 842 781 825 l 57 842 l 57 1142 l 1157 1142 q 1156 944 1157 1024 q 1149 810 1154 864 q 1131 719 1143 757 m 1154 160 l 432 160 l 432 129 l 1181 129 l 1181 -58 l 57 -58 l 57 433 l 1169 433 l 1168 304 l 432 304 l 432 272 l 1156 272 l 1154 160 z "},"긓":{"ha":1225,"x_min":19,"x_max":1207,"o":"m 1133 746 l 1207 746 l 1207 496 l 19 496 l 19 746 l 1042 746 l 764 782 q 776 810 771 796 q 782 842 781 824 l 57 842 l 57 1142 l 1157 1142 q 1156 954 1157 1028 q 1151 832 1156 881 q 1133 746 1147 783 m 407 471 l 819 471 l 819 421 l 1188 421 l 1188 222 l 1119 222 q 1165 128 1165 196 q 1109 -17 1165 40 q 943 -72 1053 -74 l 281 -72 q 117 -15 172 -72 q 61 128 61 43 q 74 187 61 164 q 110 222 88 210 l 38 222 l 38 421 l 407 421 l 407 471 m 418 153 l 810 153 q 818 154 814 153 q 822 165 822 156 q 818 176 822 175 q 810 178 814 178 l 418 178 q 409 176 413 178 q 406 165 406 175 q 409 154 406 156 q 418 153 413 153 z "},"긔":{"ha":1225,"x_min":25,"x_max":1188,"o":"m 813 171 l 813 1142 l 1188 1142 l 1188 -58 l 813 -58 l 813 57 q 633 33 749 42 q 364 23 518 25 q 25 21 210 21 l 25 346 q 472 346 288 344 q 769 379 657 347 l 813 171 m 719 411 l 381 479 q 414 592 404 546 q 426 675 424 638 q 428 750 428 713 l 60 750 l 60 1075 l 765 1075 q 764 842 765 939 q 760 677 763 744 q 752 563 757 610 q 739 481 747 517 q 719 411 731 446 z "},"긘":{"ha":1225,"x_min":25,"x_max":1200,"o":"m 1188 297 l 813 297 l 813 403 q 649 388 763 393 q 375 382 535 383 q 25 381 215 381 l 25 631 q 290 631 164 631 q 519 633 415 631 q 692 640 622 636 l 400 688 q 424 753 415 721 q 432 833 432 786 l 69 833 l 69 1121 l 769 1121 q 769 931 769 1006 q 767 808 769 857 q 758 722 764 758 q 740 644 753 685 q 760 647 751 646 q 775 650 768 649 l 813 461 l 813 1142 l 1188 1142 l 1188 297 m 463 347 l 463 260 l 1200 260 l 1200 -58 l 63 -58 l 63 347 l 463 347 z "},"긩":{"ha":1225,"x_min":13,"x_max":1200,"o":"m 1175 400 l 1021 400 q 1153 317 1106 382 q 1200 165 1200 251 q 1168 40 1200 93 q 1081 -42 1136 -14 q 956 -71 1026 -71 l 293 -71 q 167 -41 224 -71 q 78 42 111 -11 q 46 165 46 94 q 79 288 46 233 q 169 374 113 342 q 293 407 225 407 l 800 407 l 800 468 q 634 447 749 453 q 360 440 519 440 q 13 440 201 440 l 13 690 q 286 691 157 690 q 519 696 415 692 q 692 707 624 700 l 400 751 q 415 797 410 775 q 419 842 419 819 l 57 842 l 57 1129 l 757 1129 q 756 951 757 1024 q 749 823 756 878 q 726 713 743 768 q 747 717 738 715 q 763 719 756 718 l 800 533 l 800 1142 l 1175 1142 l 1175 400 m 396 176 l 851 176 q 860 178 856 176 q 864 189 864 179 q 860 200 864 199 q 851 201 856 201 l 396 201 q 388 200 392 201 q 383 189 383 199 q 388 178 383 179 q 396 176 392 176 z "},"기":{"ha":1225,"x_min":38,"x_max":1188,"o":"m 807 -62 l 807 1142 l 1188 1142 l 1188 -62 l 807 -62 m 69 729 l 69 1104 l 763 1104 q 747 665 763 850 q 691 353 732 479 q 574 149 650 226 q 378 33 499 71 q 82 -11 257 -4 l 38 392 q 240 440 164 392 q 350 565 315 488 q 388 729 385 643 l 69 729 z "},"긱":{"ha":1225,"x_min":38,"x_max":1188,"o":"m 813 435 l 813 1142 l 1188 1142 l 1188 435 l 813 435 m 72 1122 l 775 1122 q 771 859 776 969 q 744 674 765 749 q 678 554 724 600 q 553 484 632 508 q 353 451 474 460 q 63 439 233 442 l 38 756 q 245 767 171 760 q 353 781 319 774 q 396 798 388 789 q 404 817 404 807 l 72 817 l 72 1122 m 94 404 l 1188 404 l 1188 -58 l 800 -58 l 800 72 l 94 72 l 94 404 z "},"긴":{"ha":1225,"x_min":29,"x_max":1197,"o":"m 810 1142 l 1185 1142 l 1185 322 l 810 322 l 810 1142 m 64 1122 l 772 1122 q 767 864 774 972 q 736 682 760 756 q 665 563 713 608 q 538 492 617 517 q 340 457 458 467 q 54 444 221 447 l 29 761 q 235 772 160 765 q 348 787 311 779 q 396 803 385 794 q 407 822 407 813 l 64 822 l 64 1122 m 472 410 l 472 272 l 1197 272 l 1197 -58 l 72 -58 l 72 410 l 472 410 z "},"긷":{"ha":1225,"x_min":25,"x_max":1194,"o":"m 807 1142 l 1182 1142 l 1182 479 l 807 479 l 807 1142 m 60 1129 l 775 1129 q 770 883 776 986 q 740 711 764 781 q 669 599 717 642 q 542 533 622 556 q 340 501 461 510 q 50 489 219 492 l 25 793 q 237 802 160 797 q 349 813 314 807 q 394 825 385 818 q 404 842 404 832 l 60 842 l 60 1129 m 463 249 l 463 208 l 1194 208 l 1194 -58 l 75 -58 l 75 449 l 1182 449 l 1182 249 l 463 249 z "},"길":{"ha":1225,"x_min":19,"x_max":1208,"o":"m 794 517 l 794 1142 l 1169 1142 l 1169 517 l 794 517 m 54 1129 l 763 1129 q 758 895 764 993 q 729 731 751 797 q 660 624 707 664 q 533 562 613 583 q 334 531 454 540 q 44 519 214 522 l 19 818 q 232 827 154 822 q 347 838 310 832 q 394 850 383 843 q 404 867 404 857 l 54 867 l 54 1129 m 75 488 l 1169 488 l 1169 306 q 1122 274 1169 297 q 968 228 1074 251 q 686 197 863 206 l 686 172 q 922 194 829 179 q 1068 225 1015 208 q 1144 255 1121 242 q 1169 269 1167 268 l 1172 267 l 1208 -14 q 1151 -42 1203 -29 q 1018 -63 1100 -54 q 835 -77 936 -72 q 629 -83 735 -82 q 425 -78 524 -83 q 247 -62 326 -74 q 122 -33 168 -51 q 75 10 75 -15 l 75 288 l 557 288 l 557 313 l 75 313 l 75 488 z "},"긺":{"ha":1225,"x_min":38,"x_max":1188,"o":"m 825 524 l 825 1142 l 1188 1142 l 1188 524 l 825 524 m 63 494 l 38 786 q 238 795 163 790 q 349 806 313 800 q 398 818 386 811 q 410 835 410 825 l 72 835 l 72 1122 l 788 1122 q 776 839 789 951 q 723 658 764 726 q 602 556 682 590 q 390 510 522 522 q 63 494 258 497 m 621 228 l 663 117 l 663 493 l 1188 493 l 1188 -58 l 682 -58 q 585 -78 644 -71 q 456 -86 525 -85 q 317 -83 386 -87 q 192 -68 249 -79 q 101 -39 135 -57 q 67 4 67 -21 l 63 249 l 288 249 l 288 274 l 63 274 l 63 456 l 621 456 l 621 263 q 594 244 621 260 q 515 216 568 229 q 382 206 463 203 l 382 181 q 506 188 456 178 q 585 212 557 199 q 619 229 614 225 l 621 228 m 938 319 l 913 319 l 913 169 l 938 169 l 938 319 z "},"김":{"ha":1225,"x_min":38,"x_max":1188,"o":"m 813 474 l 813 1142 l 1188 1142 l 1188 474 l 813 474 m 72 1129 l 782 1129 q 777 878 783 983 q 748 703 771 774 q 678 588 725 632 q 552 521 632 544 q 352 488 472 497 q 63 476 232 479 l 38 786 q 250 795 172 790 q 365 806 328 800 q 412 818 401 811 q 422 835 422 825 l 72 835 l 72 1129 m 88 443 l 1188 443 l 1188 -58 l 88 -58 l 88 443 m 450 222 l 450 197 l 813 197 l 813 222 l 450 222 z "},"깁":{"ha":1225,"x_min":38,"x_max":1182,"o":"m 807 519 l 807 1142 l 1182 1142 l 1182 519 l 807 519 m 72 1132 l 769 1132 q 765 888 771 989 q 736 717 758 786 q 667 608 714 649 q 543 545 621 567 q 347 515 465 524 q 63 504 229 507 l 38 801 q 240 810 165 806 q 349 821 314 815 q 394 833 385 826 q 404 850 404 840 l 72 850 l 72 1132 m 475 394 l 794 394 l 794 486 l 1182 486 l 1182 -58 l 88 -58 l 88 474 l 475 474 l 475 394 m 475 219 l 475 167 l 794 167 l 794 219 l 475 219 z "},"깃":{"ha":1225,"x_min":29,"x_max":1190,"o":"m 807 332 q 1041 315 939 328 q 1190 282 1143 301 l 1132 -58 q 1035 -34 1104 -47 q 865 -11 965 -21 q 644 -1 765 -1 l 660 115 q 410 -23 558 28 q 90 -72 263 -74 l 54 271 q 176 287 114 275 q 292 321 238 299 q 385 378 346 343 q 436 463 424 413 l 804 463 l 804 1142 l 1179 1142 l 1179 385 l 819 385 q 807 332 815 358 m 54 468 l 29 781 q 235 790 160 785 q 345 800 310 794 q 391 813 381 806 q 401 829 401 819 l 64 829 l 64 1122 l 767 1122 q 761 871 768 976 q 731 694 754 765 q 661 580 708 624 q 535 513 614 536 q 339 480 457 489 q 54 468 221 471 z "},"깄":{"ha":1225,"x_min":19,"x_max":1207,"o":"m 788 1142 l 1163 1142 l 1163 488 l 788 488 l 788 1142 m 44 474 l 19 786 q 225 795 150 790 q 335 806 300 800 q 381 818 371 811 q 392 835 392 825 l 54 835 l 54 1122 l 750 1122 q 745 872 751 976 q 717 696 739 767 q 649 582 694 625 q 524 516 603 539 q 328 485 446 493 q 44 474 211 476 m 993 319 q 1110 306 1053 315 q 1207 282 1168 297 l 1149 -71 q 1069 -49 1121 -60 q 956 -33 1017 -39 q 835 -26 894 -26 l 850 90 q 697 -14 788 31 q 485 -81 606 -58 l 431 49 q 358 3 407 29 q 249 -47 308 -24 q 133 -81 189 -71 l 32 263 q 138 310 96 276 q 199 380 179 343 q 219 442 219 417 l 594 442 q 587 367 594 399 q 564 294 579 335 l 586 286 q 613 368 604 321 q 621 463 622 415 l 1007 463 q 993 319 1011 390 z "},"깅":{"ha":1225,"x_min":32,"x_max":1194,"o":"m 1182 421 l 1017 421 q 1147 337 1100 403 q 1194 182 1194 271 q 1125 -6 1194 61 q 949 -71 1056 -72 l 290 -71 q 165 -40 221 -71 q 77 47 110 -10 q 44 182 44 103 q 80 308 47 253 q 167 395 113 363 q 290 428 222 428 l 807 428 l 807 1142 l 1182 1142 l 1182 421 m 57 457 l 32 772 q 238 782 163 776 q 348 794 313 788 q 394 810 383 801 q 404 828 404 818 l 67 828 l 67 1121 l 769 1121 q 764 869 771 975 q 734 690 757 763 q 664 573 711 618 q 538 503 617 528 q 342 469 460 479 q 57 457 224 460 m 394 194 l 844 194 q 853 196 849 194 q 857 207 857 197 q 853 218 857 217 q 844 219 849 219 l 394 219 q 385 218 389 219 q 382 207 382 217 q 385 196 382 197 q 394 194 389 194 z "},"깆":{"ha":1225,"x_min":32,"x_max":1194,"o":"m 800 1142 l 1175 1142 l 1175 499 l 800 499 l 800 1142 m 57 499 l 32 799 q 238 808 163 803 q 348 818 313 813 q 394 831 383 824 q 404 847 404 838 l 67 847 l 67 1129 l 763 1129 q 758 890 764 990 q 729 722 751 790 q 661 610 707 653 q 537 544 615 567 q 341 511 458 521 q 57 499 224 501 m 832 258 q 1053 244 960 256 q 1194 215 1147 233 l 1149 -64 q 980 -31 1106 -47 q 672 -14 854 -14 l 686 103 q 419 -25 576 22 q 92 -72 263 -72 l 57 228 q 214 245 131 231 q 364 293 297 260 l 88 293 l 88 468 l 1175 468 l 1175 293 l 850 293 q 842 276 846 285 q 832 258 839 267 z "},"깊":{"ha":1225,"x_min":32,"x_max":1194,"o":"m 819 1142 l 1182 1142 l 1182 517 l 819 517 l 819 1142 m 67 1132 l 782 1132 q 777 888 783 989 q 748 721 771 788 q 678 614 725 654 q 551 553 631 574 q 349 526 471 533 q 57 517 228 519 l 32 810 q 248 819 169 814 q 364 828 326 824 q 412 840 401 833 q 422 854 422 846 l 67 854 l 67 1132 m 1094 235 l 1076 167 l 1194 167 l 1194 -71 l 67 -71 l 67 167 l 183 167 l 167 235 l 407 272 l 79 272 l 79 485 l 1182 485 l 1182 272 l 854 272 l 1094 235 m 693 272 l 568 272 l 574 167 l 686 167 l 693 272 z "},"까":{"ha":1225,"x_min":0,"x_max":1213,"o":"m 1150 810 l 1213 810 l 1213 422 l 1150 422 l 1150 -57 l 800 -57 l 800 1142 l 1150 1142 l 1150 810 m 25 1092 l 763 1092 l 763 15 l 463 15 l 463 717 l 428 717 q 413 463 426 582 q 362 250 399 344 q 256 91 325 156 q 71 0 186 26 l 0 381 q 80 458 57 411 q 108 573 103 506 q 113 729 113 640 l 25 729 l 25 1092 z "},"깍":{"ha":1225,"x_min":13,"x_max":1213,"o":"m 1150 975 l 1213 975 l 1213 613 l 1150 613 l 1150 408 l 800 408 l 800 1142 l 1150 1142 l 1150 975 m 63 413 l 13 731 q 108 760 83 738 q 139 817 133 782 l 40 817 l 40 1117 l 769 1117 l 769 428 l 469 428 l 469 804 l 439 804 q 401 627 433 706 q 289 494 368 549 q 63 413 210 440 m 763 46 l 63 46 l 63 378 l 1150 378 l 1150 -58 l 763 -58 l 763 46 z "},"깎":{"ha":1225,"x_min":13,"x_max":1213,"o":"m 1150 1142 l 1150 988 l 1213 988 l 1213 625 l 1150 625 l 1150 433 l 800 433 l 800 1142 l 1150 1142 m 63 457 l 13 760 q 107 778 82 767 q 138 817 132 790 l 28 817 l 28 1117 l 769 1117 l 769 465 l 469 465 l 469 804 l 439 804 q 399 642 432 713 q 287 526 365 572 q 63 457 208 481 m 613 193 l 613 406 l 1150 406 q 1149 208 1151 290 q 1124 71 1146 125 q 1049 -15 1103 17 q 898 -59 996 -46 q 643 -71 800 -72 l 582 114 l 582 -58 l 194 -58 l 194 131 l 63 131 l 63 431 l 582 431 l 582 156 q 706 160 665 156 q 761 172 747 164 q 775 193 775 181 l 613 193 z "},"깐":{"ha":1225,"x_min":13,"x_max":1213,"o":"m 1150 1142 l 1150 944 l 1213 944 l 1213 582 l 1150 582 l 1150 322 l 800 322 l 800 1142 l 1150 1142 m 63 413 l 13 731 q 108 760 83 738 q 139 817 133 782 l 40 817 l 40 1117 l 769 1117 l 769 415 l 469 415 l 469 804 l 439 804 q 401 627 433 706 q 289 494 368 549 q 63 413 210 440 m 63 382 l 463 382 l 463 272 l 1163 272 l 1163 -58 l 63 -58 l 63 382 z "},"깔":{"ha":1225,"x_min":13,"x_max":1213,"o":"m 1150 1142 l 1150 1013 l 1213 1013 l 1213 650 l 1150 650 l 1150 494 l 800 494 l 800 1142 l 1150 1142 m 469 810 l 438 810 q 395 656 429 721 q 280 551 361 590 q 50 496 199 511 l 13 776 q 103 793 76 783 q 136 822 129 803 l 40 822 l 40 1122 l 769 1122 l 769 511 l 469 511 l 469 810 m 1151 263 l 1154 260 l 1190 -14 q 1133 -42 1185 -29 q 1000 -63 1082 -54 q 817 -77 918 -72 q 611 -83 717 -82 q 407 -78 506 -83 q 229 -62 308 -74 q 103 -33 150 -51 q 57 10 57 -15 l 57 263 l 539 263 l 539 288 l 57 288 l 57 463 l 1150 463 l 1150 299 q 1103 267 1150 290 q 952 222 1057 244 q 674 192 847 200 l 674 167 q 908 187 815 172 q 1052 218 1000 201 q 1126 248 1104 235 q 1151 263 1149 261 z "},"깖":{"ha":1225,"x_min":13,"x_max":1213,"o":"m 1150 996 l 1213 996 l 1213 633 l 1150 633 l 1150 474 l 800 474 l 800 1142 l 1150 1142 l 1150 996 m 50 500 l 13 776 q 103 793 76 783 q 136 822 129 803 l 40 822 l 40 1122 l 769 1122 l 769 511 l 469 511 l 469 810 l 438 810 q 395 658 429 722 q 280 554 361 593 q 50 500 199 515 m 596 228 l 638 117 l 638 443 l 1150 443 l 1150 -58 l 657 -58 q 561 -78 619 -71 q 435 -86 503 -85 q 299 -83 367 -87 q 176 -68 232 -79 q 88 -39 121 -57 q 54 4 54 -21 l 50 268 l 275 268 l 275 293 l 50 293 l 50 474 l 596 474 l 596 263 q 569 244 596 260 q 490 216 543 229 q 357 206 438 203 l 357 181 q 481 188 431 178 q 560 212 532 199 q 594 229 589 225 l 596 228 m 900 274 l 875 274 l 875 167 l 900 167 l 900 274 z "},"깜":{"ha":1225,"x_min":13,"x_max":1213,"o":"m 1150 988 l 1213 988 l 1213 625 l 1150 625 l 1150 447 l 800 447 l 800 1142 l 1150 1142 l 1150 988 m 469 810 l 439 810 q 400 636 432 711 q 289 513 368 561 q 63 444 210 464 l 13 761 q 103 785 76 768 q 135 822 129 801 l 40 822 l 40 1122 l 769 1122 l 769 458 l 469 458 l 469 810 m 1150 -58 l 69 -58 l 69 417 l 1150 417 l 1150 -58 m 775 215 l 444 215 l 444 190 l 775 190 l 775 215 z "},"깝":{"ha":1225,"x_min":13,"x_max":1213,"o":"m 1150 1004 l 1213 1004 l 1213 642 l 1150 642 l 1150 467 l 800 467 l 800 1142 l 1150 1142 l 1150 1004 m 63 446 l 13 764 q 100 786 74 771 q 135 822 126 801 l 40 822 l 40 1122 l 769 1122 l 769 474 l 469 474 l 469 810 l 439 810 q 400 638 432 713 q 289 514 368 563 q 63 446 210 465 m 450 364 l 763 364 l 763 435 l 1150 435 l 1150 -58 l 63 -58 l 63 422 l 450 422 l 450 364 m 450 189 l 450 142 l 763 142 l 763 189 l 450 189 z "},"깟":{"ha":1225,"x_min":13,"x_max":1213,"o":"m 1150 601 l 1150 372 l 819 372 q 811 332 818 354 q 1040 315 940 328 q 1186 282 1139 301 l 1129 -58 q 1031 -34 1100 -47 q 861 -11 961 -21 q 640 -1 761 -1 l 654 101 q 406 -26 553 21 q 86 -72 258 -72 l 50 258 q 172 274 110 263 q 288 304 233 285 q 381 353 342 324 q 432 422 419 382 l 800 422 l 800 1142 l 1150 1142 l 1150 964 l 1213 964 l 1213 601 l 1150 601 m 63 439 l 13 751 q 104 774 78 758 q 136 817 131 790 l 40 817 l 40 1122 l 769 1122 l 769 467 l 469 467 l 469 810 l 439 810 q 401 634 433 711 q 289 508 368 557 q 63 439 210 458 z "},"깠":{"ha":1225,"x_min":13,"x_max":1213,"o":"m 1150 1142 l 1150 982 l 1213 982 l 1213 619 l 1150 619 l 1150 444 l 800 444 l 800 1142 l 1150 1142 m 63 439 l 13 751 q 104 774 78 758 q 136 817 131 790 l 40 817 l 40 1122 l 769 1122 l 769 467 l 469 467 l 469 810 l 439 810 q 401 634 433 711 q 289 508 368 557 q 63 439 210 458 m 601 419 l 989 419 q 979 319 993 369 q 1094 306 1038 314 q 1188 282 1150 297 l 1131 -71 q 1050 -49 1101 -60 q 937 -33 999 -39 q 817 -26 875 -26 l 832 86 q 677 -14 768 31 q 467 -81 586 -58 l 411 49 q 338 3 388 29 q 230 -47 289 -24 q 115 -81 171 -71 l 13 263 q 119 308 78 276 q 181 375 160 339 q 201 439 201 411 l 576 439 q 569 369 576 396 q 544 301 561 342 l 568 293 q 594 365 586 328 q 601 419 603 401 z "},"깡":{"ha":1225,"x_min":13,"x_max":1213,"o":"m 1213 614 l 1150 614 l 1150 390 l 997 390 q 1128 308 1081 372 q 1175 164 1175 244 q 1143 40 1175 93 q 1056 -42 1111 -14 q 931 -71 1001 -71 l 267 -71 q 141 -42 197 -71 q 52 41 85 -12 q 19 164 19 94 q 55 280 22 228 q 143 364 88 332 q 267 396 199 396 l 800 396 l 800 1142 l 1150 1142 l 1150 976 l 1213 976 l 1213 614 m 63 413 l 13 731 q 108 760 83 738 q 139 817 133 782 l 40 817 l 40 1117 l 769 1117 l 769 433 l 469 433 l 469 804 l 439 804 q 401 627 433 706 q 289 494 368 549 q 63 413 210 440 m 369 175 l 826 175 q 835 176 831 175 q 839 188 839 178 q 835 199 839 197 q 826 200 831 200 l 369 200 q 361 199 365 200 q 357 188 357 197 q 361 176 357 178 q 369 175 365 175 z "},"깥":{"ha":1225,"x_min":13,"x_max":1213,"o":"m 1150 1142 l 1150 1013 l 1213 1013 l 1213 650 l 1150 650 l 1150 483 l 800 483 l 800 1142 l 1150 1142 m 469 804 l 432 804 q 384 655 419 719 q 272 548 349 590 q 63 488 196 506 l 13 781 q 99 800 71 788 q 136 842 128 813 l 40 842 l 40 1117 l 769 1117 l 769 503 l 469 503 l 469 804 m 1138 181 l 457 181 l 457 149 l 1163 149 l 1163 -58 l 69 -58 l 69 453 l 1150 453 l 1150 313 l 457 313 l 457 282 l 1138 282 l 1138 181 z "},"깨":{"ha":1225,"x_min":0,"x_max":1207,"o":"m 971 785 l 971 1142 l 1207 1142 l 1207 -57 l 971 -57 l 971 397 l 928 397 l 928 -32 l 700 -32 l 700 1129 l 928 1129 l 928 785 l 971 785 m 42 1079 l 663 1079 l 663 38 l 400 38 l 400 704 l 371 704 q 359 463 369 575 q 319 260 349 350 q 235 110 290 171 q 92 22 181 50 l 0 331 q 60 405 36 349 q 95 543 83 461 q 107 717 107 625 l 42 717 l 42 1079 z "},"깩":{"ha":1225,"x_min":13,"x_max":1207,"o":"m 971 967 l 971 1142 l 1207 1142 l 1207 429 l 971 429 l 971 629 l 928 629 l 928 429 l 703 429 l 703 1129 l 928 1129 l 928 967 l 971 967 m 83 431 l 13 700 q 113 828 101 743 l 50 828 l 50 1108 l 671 1108 l 671 444 l 408 444 l 408 815 l 381 815 q 340 637 369 713 q 249 510 310 561 q 83 431 189 458 m 819 67 l 83 67 l 83 397 l 1207 397 l 1207 -58 l 819 -58 l 819 67 z "},"깬":{"ha":1225,"x_min":13,"x_max":1213,"o":"m 965 592 l 921 592 l 921 342 l 696 342 l 696 1129 l 921 1129 l 921 929 l 965 929 l 965 1142 l 1200 1142 l 1200 317 l 965 317 l 965 592 m 83 431 l 13 700 q 113 822 103 744 l 50 822 l 50 1104 l 665 1104 l 665 439 l 408 439 l 408 810 l 381 810 q 340 633 369 708 q 249 508 310 558 q 83 431 188 458 m 483 401 l 483 272 l 1213 272 l 1213 -58 l 83 -58 l 83 401 l 483 401 z "},"깯":{"ha":1225,"x_min":7,"x_max":1213,"o":"m 965 635 l 921 635 l 921 471 l 696 471 l 696 1129 l 921 1129 l 921 972 l 965 972 l 965 1142 l 1200 1142 l 1200 471 l 965 471 l 965 635 m 71 475 l 7 744 q 76 778 51 758 q 107 835 101 799 l 44 835 l 44 1117 l 665 1117 l 665 490 l 403 490 l 403 822 l 374 822 q 332 658 363 726 q 239 544 301 589 q 71 475 176 499 m 458 246 l 458 208 l 1213 208 l 1213 -58 l 71 -58 l 71 444 l 1200 444 l 1200 246 l 458 246 z "},"깰":{"ha":1225,"x_min":0,"x_max":1221,"o":"m 946 664 l 903 664 l 903 499 l 678 499 l 678 1129 l 903 1129 l 903 1001 l 946 1001 l 946 1142 l 1182 1142 l 1182 499 l 946 499 l 946 664 m 71 497 l 0 760 q 69 787 46 771 q 99 829 93 803 l 38 829 l 38 1117 l 646 1117 l 646 513 l 396 513 l 396 817 l 365 817 q 322 668 353 729 q 232 566 292 607 q 71 497 172 525 m 1182 263 l 1185 260 l 1221 -14 q 1163 -42 1215 -29 q 1028 -63 1111 -54 q 842 -77 944 -72 q 633 -83 740 -82 q 426 -78 526 -83 q 245 -62 325 -74 q 118 -33 165 -51 q 71 10 71 -15 l 71 268 l 554 268 l 554 293 l 71 293 l 71 468 l 1182 468 l 1182 299 q 1135 267 1182 290 q 984 222 1089 244 q 706 192 879 200 l 706 167 q 939 187 847 172 q 1083 218 1031 201 q 1157 248 1135 235 q 1182 263 1179 261 z "},"깸":{"ha":1225,"x_min":13,"x_max":1200,"o":"m 965 969 l 965 1142 l 1200 1142 l 1200 444 l 965 444 l 965 632 l 921 632 l 921 444 l 696 444 l 696 1129 l 921 1129 l 921 969 l 965 969 m 83 444 l 13 714 q 82 760 57 736 q 113 824 107 785 l 50 824 l 50 1111 l 665 1111 l 665 458 l 408 458 l 408 811 l 381 811 q 339 638 369 711 q 248 516 308 564 q 83 444 188 468 m 1200 -58 l 83 -58 l 83 414 l 1200 414 l 1200 -58 m 825 214 l 458 214 l 458 189 l 825 189 l 825 214 z "},"깹":{"ha":1225,"x_min":13,"x_max":1200,"o":"m 965 1001 l 965 1142 l 1200 1142 l 1200 482 l 965 482 l 965 664 l 921 664 l 921 482 l 696 482 l 696 1129 l 921 1129 l 921 1001 l 965 1001 m 83 494 l 13 757 q 78 783 54 764 q 110 824 103 801 l 50 824 l 50 1111 l 665 1111 l 665 507 l 408 507 l 408 811 l 379 811 q 337 660 368 722 q 245 558 306 597 q 83 494 185 518 m 471 369 l 813 369 l 813 450 l 1200 450 l 1200 -58 l 83 -58 l 83 463 l 471 463 l 471 369 m 471 194 l 471 142 l 813 142 l 813 194 l 471 194 z "},"깻":{"ha":1225,"x_min":13,"x_max":1200,"o":"m 965 967 l 965 1142 l 1200 1142 l 1200 374 l 965 374 l 965 629 l 921 629 l 921 444 l 696 444 l 696 1129 l 921 1129 l 921 967 l 965 967 m 83 444 l 13 714 q 82 760 57 736 q 113 824 107 785 l 50 824 l 50 1111 l 665 1111 l 665 463 l 408 463 l 408 811 l 381 811 q 339 638 369 711 q 248 516 308 564 q 83 444 188 468 m 432 415 l 819 415 q 819 373 821 394 q 813 332 818 351 q 1040 315 942 328 q 1186 282 1139 301 l 1129 -58 q 1031 -34 1100 -47 q 861 -11 961 -21 q 640 -1 761 -1 l 654 100 q 406 -26 553 21 q 86 -72 258 -72 l 50 258 q 172 273 110 263 q 288 303 233 283 q 381 350 342 322 q 432 415 419 378 z "},"깼":{"ha":1225,"x_min":13,"x_max":1200,"o":"m 1200 1142 l 1200 374 l 996 374 q 993 347 994 360 q 988 319 992 333 q 1102 306 1047 314 q 1194 282 1157 297 l 1138 -71 q 1058 -49 1110 -60 q 944 -33 1006 -39 q 824 -26 883 -26 l 838 82 q 684 -16 775 26 q 474 -81 593 -58 l 419 49 q 345 3 394 29 q 237 -47 296 -24 q 122 -81 178 -71 l 19 263 q 162 335 117 283 q 208 439 207 388 l 583 439 q 576 362 583 390 q 553 294 568 333 l 575 285 q 601 358 593 321 q 608 419 610 394 l 965 419 l 965 629 l 921 629 l 921 450 l 696 450 l 696 1129 l 921 1129 l 921 967 l 965 967 l 965 1142 l 1200 1142 m 83 444 l 13 714 q 82 760 57 736 q 113 824 107 785 l 50 824 l 50 1111 l 665 1111 l 665 464 l 408 464 l 408 811 l 381 811 q 339 638 369 711 q 248 516 308 564 q 83 444 188 468 z "},"깽":{"ha":1225,"x_min":13,"x_max":1213,"o":"m 1200 386 l 1081 386 q 1178 297 1143 356 q 1213 169 1213 239 q 1181 45 1213 100 q 1094 -40 1149 -10 q 968 -71 1039 -71 l 297 -71 q 172 -40 228 -71 q 84 47 117 -8 q 51 169 51 101 q 87 288 54 233 q 174 375 119 342 q 297 408 229 408 l 965 408 l 965 635 l 921 635 l 921 440 l 696 440 l 696 1129 l 921 1129 l 921 972 l 965 972 l 965 1142 l 1200 1142 l 1200 386 m 83 444 l 13 714 q 82 760 57 736 q 113 824 107 785 l 50 824 l 50 1111 l 665 1111 l 665 458 l 408 458 l 408 811 l 381 811 q 339 638 369 711 q 248 516 308 564 q 83 444 188 468 m 401 182 l 864 182 q 872 183 868 182 q 876 194 876 185 q 872 206 876 204 q 864 207 868 207 l 401 207 q 392 206 396 207 q 389 194 389 204 q 392 183 389 185 q 401 182 396 182 z "},"꺄":{"ha":1225,"x_min":0,"x_max":1213,"o":"m 1213 967 l 1213 617 l 1150 617 l 1150 529 l 1213 529 l 1213 179 l 1150 179 l 1150 -57 l 800 -57 l 800 1142 l 1150 1142 l 1150 967 l 1213 967 m 25 1092 l 763 1092 l 763 15 l 463 15 l 463 717 l 428 717 q 413 463 426 582 q 362 250 399 344 q 256 91 325 156 q 71 0 186 26 l 0 381 q 80 458 57 411 q 108 573 103 506 q 113 729 113 640 l 25 729 l 25 1092 z "},"꺅":{"ha":1225,"x_min":13,"x_max":1213,"o":"m 1213 1047 l 1213 810 l 1150 810 l 1150 754 l 1213 754 l 1213 517 l 1150 517 l 1150 408 l 800 408 l 800 1142 l 1150 1142 l 1150 1047 l 1213 1047 m 63 413 l 13 731 q 108 760 83 738 q 139 817 133 782 l 40 817 l 40 1117 l 769 1117 l 769 428 l 469 428 l 469 804 l 439 804 q 401 627 433 706 q 289 494 368 549 q 63 413 210 440 m 763 46 l 63 46 l 63 378 l 1150 378 l 1150 -58 l 763 -58 l 763 46 z "},"꺆":{"ha":1225,"x_min":13,"x_max":1213,"o":"m 1213 1058 l 1213 821 l 1150 821 l 1150 765 l 1213 765 l 1213 528 l 1150 528 l 1150 433 l 800 433 l 800 1142 l 1150 1142 l 1150 1058 l 1213 1058 m 63 457 l 13 760 q 107 778 82 767 q 138 817 132 790 l 28 817 l 28 1117 l 769 1117 l 769 465 l 469 465 l 469 804 l 439 804 q 399 642 432 713 q 287 526 365 572 q 63 457 208 481 m 613 193 l 613 406 l 1150 406 q 1149 208 1151 290 q 1124 71 1146 125 q 1049 -15 1103 17 q 898 -59 996 -46 q 643 -71 800 -72 l 582 114 l 582 -58 l 194 -58 l 194 131 l 63 131 l 63 431 l 582 431 l 582 156 q 706 160 665 156 q 761 172 747 164 q 775 193 775 181 l 613 193 z "},"꺌":{"ha":1225,"x_min":13,"x_max":1213,"o":"m 1213 1069 l 1213 844 l 1150 844 l 1150 794 l 1213 794 l 1213 569 l 1150 569 l 1150 494 l 800 494 l 800 1142 l 1150 1142 l 1150 1069 l 1213 1069 m 469 810 l 438 810 q 395 656 429 721 q 280 551 361 590 q 50 496 199 511 l 13 776 q 103 793 76 783 q 136 822 129 803 l 40 822 l 40 1122 l 769 1122 l 769 511 l 469 511 l 469 810 m 1151 263 l 1154 260 l 1190 -14 q 1133 -42 1185 -29 q 1000 -63 1082 -54 q 817 -77 918 -72 q 611 -83 717 -82 q 407 -78 506 -83 q 229 -62 308 -74 q 103 -33 150 -51 q 57 10 57 -15 l 57 263 l 539 263 l 539 288 l 57 288 l 57 463 l 1150 463 l 1150 299 q 1103 267 1150 290 q 952 222 1057 244 q 674 192 847 200 l 674 167 q 908 187 815 172 q 1052 218 1000 201 q 1126 248 1104 235 q 1151 263 1149 261 z "},"꺍":{"ha":1225,"x_min":13,"x_max":1213,"o":"m 1213 1060 l 1213 835 l 1150 835 l 1150 785 l 1213 785 l 1213 560 l 1150 560 l 1150 474 l 800 474 l 800 1142 l 1150 1142 l 1150 1060 l 1213 1060 m 50 501 l 13 776 q 103 793 76 783 q 136 822 129 803 l 40 822 l 40 1122 l 769 1122 l 769 511 l 469 511 l 469 810 l 438 810 q 395 656 429 721 q 280 553 361 592 q 50 501 199 514 m 639 263 l 639 443 l 1150 443 l 1150 -58 l 763 -58 l 763 149 l 669 149 l 713 -28 q 637 -57 693 -44 q 506 -75 581 -69 q 353 -79 432 -81 q 207 -69 275 -78 q 97 -42 139 -60 q 54 4 54 -24 l 50 274 l 275 274 l 275 299 l 50 299 l 50 481 l 614 481 l 614 263 q 547 221 614 242 q 361 206 481 200 l 361 181 q 498 186 435 178 q 600 215 561 194 q 639 263 639 235 z "},"꺠":{"ha":1225,"x_min":0,"x_max":1207,"o":"m 971 956 l 971 1142 l 1207 1142 l 1207 -57 l 971 -57 l 971 206 l 928 206 l 928 -32 l 700 -32 l 700 1129 l 928 1129 l 928 956 l 971 956 m 42 1079 l 663 1079 l 663 38 l 400 38 l 400 704 l 371 704 q 359 463 369 575 q 319 260 349 350 q 235 110 290 171 q 92 22 181 50 l 0 331 q 60 405 36 349 q 95 543 83 461 q 107 717 107 625 l 42 717 l 42 1079 m 928 656 l 928 506 l 971 506 l 971 656 l 928 656 z "},"꺤":{"ha":1225,"x_min":13,"x_max":1213,"o":"m 965 492 l 921 492 l 921 342 l 696 342 l 696 1129 l 921 1129 l 921 1022 l 965 1022 l 965 1142 l 1200 1142 l 1200 317 l 965 317 l 965 492 m 83 431 l 13 700 q 82 750 57 722 q 113 817 107 778 l 50 817 l 50 1104 l 665 1104 l 665 439 l 408 439 l 408 804 l 381 804 q 339 632 369 706 q 248 508 308 558 q 83 431 188 458 m 965 704 l 965 810 l 921 810 l 921 704 l 965 704 m 483 401 l 483 272 l 1213 272 l 1213 -58 l 83 -58 l 83 401 l 483 401 z "},"꺼":{"ha":1225,"x_min":13,"x_max":1200,"o":"m 850 810 l 850 1142 l 1200 1142 l 1200 -57 l 850 -57 l 850 422 l 788 422 l 788 28 l 486 28 l 486 729 l 450 729 q 433 476 449 594 q 380 262 418 357 q 270 103 342 167 q 83 13 199 39 l 13 393 q 95 471 69 424 q 129 585 121 518 q 138 742 138 653 l 38 742 l 38 1092 l 788 1092 l 788 810 l 850 810 z "},"꺽":{"ha":1225,"x_min":25,"x_max":1188,"o":"m 838 975 l 838 1142 l 1188 1142 l 1188 408 l 838 408 l 838 613 l 782 613 l 782 428 l 482 428 l 482 804 l 451 804 q 413 627 446 706 q 301 494 381 549 q 75 413 222 440 l 25 731 q 121 760 96 738 q 151 817 146 782 l 53 817 l 53 1117 l 782 1117 l 782 975 l 838 975 m 800 46 l 88 46 l 88 378 l 1188 378 l 1188 -58 l 800 -58 l 800 46 z "},"꺾":{"ha":1225,"x_min":25,"x_max":1189,"o":"m 482 804 l 451 804 q 411 642 444 713 q 299 526 378 572 q 75 457 221 481 l 25 760 q 119 778 94 767 q 150 817 144 790 l 40 817 l 40 1117 l 782 1117 l 782 975 l 838 975 l 838 1142 l 1188 1142 l 1188 433 l 838 433 l 838 613 l 782 613 l 782 465 l 482 465 l 482 804 m 638 406 l 1188 406 q 1185 208 1189 290 q 1157 71 1181 125 q 1078 -15 1133 17 q 924 -59 1024 -46 q 668 -71 825 -72 l 607 114 l 607 -58 l 219 -58 l 219 131 l 82 131 l 82 431 l 607 431 l 607 156 q 733 160 690 156 q 792 172 776 164 q 807 193 807 181 l 638 193 l 638 406 z "},"껀":{"ha":1225,"x_min":25,"x_max":1200,"o":"m 482 804 l 451 804 q 413 627 446 706 q 301 494 381 549 q 75 413 222 440 l 25 731 q 121 760 96 738 q 151 817 146 782 l 53 817 l 53 1117 l 782 1117 l 782 957 l 838 957 l 838 1142 l 1188 1142 l 1188 322 l 838 322 l 838 594 l 782 594 l 782 415 l 482 415 l 482 804 m 488 382 l 488 272 l 1200 272 l 1200 -58 l 88 -58 l 88 382 l 488 382 z "},"껄":{"ha":1225,"x_min":13,"x_max":1215,"o":"m 469 810 l 438 810 q 395 656 429 721 q 280 551 361 590 q 50 496 199 511 l 13 776 q 103 793 76 783 q 136 822 129 803 l 40 822 l 40 1122 l 769 1122 l 769 1013 l 825 1013 l 825 1142 l 1175 1142 l 1175 494 l 825 494 l 825 650 l 769 650 l 769 511 l 469 511 l 469 810 m 1176 263 l 1179 260 l 1215 -14 q 1158 -42 1210 -29 q 1023 -63 1106 -54 q 839 -77 940 -72 q 630 -83 738 -82 q 423 -78 522 -83 q 244 -62 324 -74 q 117 -33 164 -51 q 69 10 69 -15 l 69 263 l 551 263 l 551 288 l 69 288 l 69 463 l 1175 463 l 1175 299 q 1128 267 1175 290 q 975 222 1081 244 q 693 192 869 200 l 693 167 q 930 187 838 172 q 1075 218 1022 201 q 1151 248 1128 235 q 1176 263 1174 261 z "},"껌":{"ha":1225,"x_min":32,"x_max":1194,"o":"m 844 988 l 844 1142 l 1194 1142 l 1194 447 l 844 447 l 844 625 l 788 625 l 788 458 l 488 458 l 488 810 l 457 810 q 419 636 451 711 q 308 513 388 561 q 82 444 229 464 l 32 761 q 122 785 96 768 q 154 822 147 801 l 58 822 l 58 1122 l 788 1122 l 788 988 l 844 988 m 1194 -58 l 100 -58 l 100 417 l 1194 417 l 1194 -58 m 819 215 l 475 215 l 475 190 l 819 190 l 819 215 z "},"껍":{"ha":1225,"x_min":32,"x_max":1194,"o":"m 844 1004 l 844 1142 l 1194 1142 l 1194 467 l 844 467 l 844 642 l 788 642 l 788 474 l 488 474 l 488 810 l 457 810 q 419 638 451 713 q 308 514 388 563 q 82 446 229 465 l 32 764 q 119 786 93 771 q 154 822 146 801 l 58 822 l 58 1122 l 788 1122 l 788 1004 l 844 1004 m 482 364 l 807 364 l 807 435 l 1194 435 l 1194 -58 l 94 -58 l 94 422 l 482 422 l 482 364 m 482 189 l 482 142 l 807 142 l 807 189 l 482 189 z "},"껏":{"ha":1225,"x_min":13,"x_max":1196,"o":"m 828 332 q 1052 313 956 326 q 1196 282 1149 300 l 1139 -58 q 1042 -34 1111 -47 q 872 -11 972 -21 q 650 -1 772 -1 l 664 97 q 413 -26 563 19 q 90 -72 264 -72 l 54 258 q 224 282 140 264 q 370 335 308 300 q 449 422 432 369 l 825 422 l 825 601 l 769 601 l 769 467 l 469 467 l 469 810 l 439 810 q 401 634 433 711 q 289 508 368 557 q 63 439 210 458 l 13 751 q 104 774 78 758 q 136 817 131 790 l 40 817 l 40 1122 l 769 1122 l 769 964 l 825 964 l 825 1142 l 1175 1142 l 1175 372 l 835 372 q 832 352 833 363 q 828 332 831 342 z "},"껐":{"ha":1225,"x_min":13,"x_max":1200,"o":"m 63 439 l 13 751 q 104 774 78 758 q 136 817 131 790 l 40 817 l 40 1122 l 769 1122 l 769 982 l 825 982 l 825 1142 l 1175 1142 l 1175 444 l 825 444 l 825 619 l 769 619 l 769 467 l 469 467 l 469 810 l 439 810 q 401 634 433 711 q 289 508 368 557 q 63 439 210 458 m 992 319 q 1106 306 1050 314 q 1200 282 1163 297 l 1143 -71 q 1063 -49 1114 -60 q 949 -33 1011 -39 q 829 -26 888 -26 l 844 86 q 690 -14 781 31 q 479 -81 599 -58 l 424 49 q 351 3 400 29 q 242 -47 301 -24 q 128 -81 183 -71 l 25 263 q 131 308 90 276 q 193 375 172 339 q 214 439 214 411 l 589 439 q 581 369 589 396 q 557 301 574 342 l 581 293 q 607 365 599 328 q 614 419 615 401 l 1001 419 q 992 319 1006 369 z "},"껑":{"ha":1225,"x_min":19,"x_max":1207,"o":"m 1182 390 l 1029 390 q 1160 308 1113 372 q 1207 164 1207 244 q 1175 40 1207 93 q 1088 -42 1143 -14 q 961 -71 1032 -71 l 285 -71 q 160 -42 215 -71 q 72 41 104 -12 q 39 164 39 94 q 74 280 42 228 q 162 364 107 332 q 285 396 217 396 l 832 396 l 832 614 l 775 614 l 775 433 l 475 433 l 475 804 l 444 804 q 407 627 439 706 q 296 494 375 549 q 69 413 217 440 l 19 731 q 115 760 90 738 q 144 817 140 782 l 46 817 l 46 1117 l 775 1117 l 775 976 l 832 976 l 832 1142 l 1182 1142 l 1182 390 m 389 175 l 857 175 q 865 176 861 175 q 869 188 869 178 q 865 199 869 197 q 857 200 861 200 l 389 200 q 380 199 383 200 q 376 188 376 197 q 380 176 376 178 q 389 175 383 175 z "},"껓":{"ha":1225,"x_min":13,"x_max":1194,"o":"m 815 224 q 1047 210 947 221 q 1194 181 1147 199 l 1149 -76 q 1051 -53 1121 -65 q 882 -34 982 -42 q 660 -26 782 -26 l 672 68 q 419 -44 569 -4 q 92 -85 269 -85 l 57 193 q 211 208 129 196 q 358 251 293 221 l 69 251 l 69 414 l 449 414 q 449 437 449 425 q 449 461 450 449 l 825 461 l 825 632 l 769 632 l 769 492 l 469 492 l 469 810 l 439 810 q 400 640 432 714 q 289 518 368 565 q 63 451 210 471 l 13 751 q 104 774 78 758 q 136 817 131 790 l 40 817 l 40 1122 l 769 1122 l 769 994 l 825 994 l 825 1142 l 1175 1142 l 1175 444 l 838 444 l 838 414 l 1175 414 l 1175 251 l 828 251 q 822 238 825 244 q 815 224 818 231 z "},"껕":{"ha":1225,"x_min":13,"x_max":1188,"o":"m 469 804 l 432 804 q 384 655 419 719 q 272 548 349 590 q 63 488 196 506 l 13 781 q 99 800 71 788 q 136 842 128 813 l 40 842 l 40 1117 l 769 1117 l 769 1013 l 825 1013 l 825 1142 l 1175 1142 l 1175 483 l 825 483 l 825 650 l 769 650 l 769 503 l 469 503 l 469 804 m 463 181 l 463 149 l 1188 149 l 1188 -58 l 75 -58 l 75 453 l 1175 453 l 1175 313 l 463 313 l 463 282 l 1163 282 l 1163 181 l 463 181 z "},"께":{"ha":1225,"x_min":0,"x_max":1207,"o":"m 971 -57 l 971 1142 l 1207 1142 l 1207 -57 l 971 -57 m 663 785 l 707 785 l 707 1129 l 933 1129 l 933 -32 l 707 -32 l 707 397 l 663 397 l 663 38 l 400 38 l 400 704 l 371 704 q 359 463 369 575 q 319 260 349 350 q 235 110 290 171 q 92 22 181 50 l 0 331 q 60 405 36 349 q 95 543 83 461 q 107 717 107 625 l 42 717 l 42 1079 l 663 1079 l 663 785 z "},"껙":{"ha":1225,"x_min":13,"x_max":1207,"o":"m 971 429 l 971 1142 l 1207 1142 l 1207 429 l 971 429 m 83 431 l 13 700 q 113 821 103 744 l 50 821 l 50 1108 l 671 1108 l 671 967 l 715 967 l 715 1129 l 940 1129 l 940 429 l 715 429 l 715 629 l 671 629 l 671 444 l 408 444 l 408 808 l 381 808 q 339 633 369 707 q 248 508 308 558 q 83 431 188 458 m 819 67 l 83 67 l 83 397 l 1207 397 l 1207 -58 l 819 -58 l 819 67 z "},"껜":{"ha":1225,"x_min":13,"x_max":1213,"o":"m 965 1142 l 1200 1142 l 1200 317 l 965 317 l 965 1142 m 83 431 l 13 700 q 82 750 57 722 q 113 817 107 778 l 50 817 l 50 1104 l 665 1104 l 665 929 l 708 929 l 708 1129 l 933 1129 l 933 342 l 708 342 l 708 592 l 665 592 l 665 439 l 408 439 l 408 804 l 381 804 q 339 632 369 706 q 248 508 308 558 q 83 431 188 458 m 483 401 l 483 272 l 1213 272 l 1213 -58 l 83 -58 l 83 401 l 483 401 z "},"껨":{"ha":1225,"x_min":13,"x_max":1200,"o":"m 965 444 l 965 1142 l 1200 1142 l 1200 444 l 965 444 m 83 444 l 13 714 q 82 760 57 736 q 113 824 107 785 l 50 824 l 50 1111 l 665 1111 l 665 969 l 708 969 l 708 1129 l 933 1129 l 933 444 l 708 444 l 708 632 l 665 632 l 665 458 l 408 458 l 408 811 l 381 811 q 339 638 369 711 q 248 516 308 564 q 83 444 188 468 m 1200 -58 l 83 -58 l 83 414 l 1200 414 l 1200 -58 m 825 214 l 458 214 l 458 189 l 825 189 l 825 214 z "}}}
